<?xml version="1.0" standalone="no"?><!DOCTYPE svg PUBLIC "-//W3C//DTD SVG 1.1//EN" "http://www.w3.org/Graphics/SVG/1.1/DTD/svg11.dtd" ><svg xmlns="http://www.w3.org/2000/svg"><metadata></metadata><defs><font id="FontForge 2.0 : Mamelon : 1-8-2022" horiz-adv-x="1000"><font-face font-family="" font-weight="400" font-stretch="normal" units-per-em="1000" panose-1="2 0 5 3 0 0 0 0 0 0" ascent="1006" descent="-149" x-height="0" bbox="-55 -149 1000 880" underline-thickness="50" underline-position="-125" unicode-range="U+0009-ff65" /><missing-glyph horiz-adv-x="1000"  /><glyph glyph-name="exclam" unicode="!" d="M147 234 l0 498 q0 18 -14 32 q-14 14 -32 14 q-19 0 -32.5 -14 q-13.5 -14 -13.5 -32 l0 -498 q0 -18 13.5 -32 q13.5 -14 32.5 -14 q18 0 32 14 q14 14 14 32 ZM147 28 l0 48 q0 18 -14 32 q-14 14 -32 14 q-19 0 -32.5 -14 q-13.5 -14 -13.5 -32 l0 -48 q0 -18 13.5 -32 q13.5 -14 32.5 -14 q18 0 32 14 q14 14 14 32 Z" /><glyph glyph-name="quotedbl" unicode="&quot;" d="M135 563 l0 164 q0 16 -12 28 q-12 12 -28 12 q-14 0 -26 -12 q-12 -12 -12 -28 l0 -164 q0 -16 12 -28 q12 -12 26 -12 q16 0 28 12 q12 12 12 28 ZM312 562 l0 165 q0 16 -12 28 q-12 12 -26 12 q-15 0 -27 -12 q-12 -12 -12 -28 l0 -165 q0 -15 12 -27 q12 -12 27 -12 q14 0 26 12 q12 12 12 27 Z" /><glyph glyph-name="numbersign" unicode="#" d="M472 552 q0 16 -12 28 q-12 12 -28 12 l-13 0 q-12 0 -10 11 l12 125 q1 15 -10 27 q-11 12 -26 12 q-14 0 -27 -11.5 q-13 -11.5 -14 -27.5 l-12 -120 q-2 -16 -17 -16 l-93 0 q-16 0 -14 16 l12 120 q1 15 -10 27 q-11 12 -26 12 q-16 0 -29 -11.5 q-13 -11.5 -14 -27.5 l-13 -120 q-2 -16 -15 -16 l-40 0 q-16 0 -28 -12 q-12 -12 -12 -28 q0 -15 12 -27 q12 -12 28 -12 l32 0 q16 0 14 -16 l-15 -161 q-2 -12 -14 -12 l-17 0 q-16 0 -28 -12 q-12 -12 -12 -27 q0 -16 12 -28 q12 -12 28 -12 l11 0 q11 0 9 -11 l-20 -197 q-1 -15 10 -27 q11 -12 26 -12 q14 0 27 11.5 q13 11.5 14 27.5 l20 192 q2 16 17 16 l93 0 q16 0 14 -16 l-20 -191 q-1 -16 10 -28 q11 -12 26 -12 q17 0 30 12 q13 12 14 28 l19 191 q2 16 15 16 l44 0 q16 0 28 12 q12 12 12 28 q0 15 -12 27 q-12 12 -28 12 l-36 0 q-16 0 -14 16 l16 160 q2 13 15 13 l19 0 q16 0 28 12 q12 12 12 27 ZM287 324 l-93 0 q-16 0 -14 16 l17 157 q2 16 17 16 l92 0 q16 0 14 -16 l-16 -157 q-2 -16 -17 -16 Z" /><glyph glyph-name="dollar" unicode="$" d="M419 576 l0 8 q0 46 -31 75 l-6 7 q-39 37 -90 37 l-17 0 q-12 0 -12 12 l0 20 q0 14 -11.5 25 q-11.5 11 -25.5 11 q-13 0 -24 -11 q-11 -11 -11 -25 l0 -20 q0 -12 -13 -12 l-17 0 q-51 0 -90 -37 q-38 -38 -38 -90 l0 -94 q0 -55 38 -91 q39 -37 90 -37 l14 0 q16 0 16 -15 l0 -192 q0 -15 -16 -15 l-20 0 q-16 0 -28 12 l-10 10 q-10 9 -10 25 l0 26 q0 14 -11 25 q-11 11 -26 11 q-14 0 -25.5 -11 q-11.5 -11 -11.5 -25 l0 -17 q0 -52 37 -89 l1 -1 q37 -37 91 -37 l16 0 q13 0 13 -13 l0 -20 q0 -14 10.5 -24.5 q10.5 -10.5 24.5 -10.5 q14 0 25.5 11 q11.5 11 11.5 24 l0 20 q0 13 12 13 l16 0 q54 0 91 37 q37 37 37 91 l0 101 q0 56 -35 96 q-34 40 -88 40 l-18 0 q-15 0 -15 16 l0 175 q0 14 15 14 l20 0 q17 0 28 -11 l13 -14 q9 -9 9 -19 l0 -11 q0 -15 10 -26 q10 -11 24 -11 q15 0 26 11 q11 11 11 26 ZM175 426 l-20 0 q-15 0 -28 13 l-9 9 q-11 11 -11 28 l0 106 q0 17 11 28 l9 10 q11 11 28 11 l20 0 q16 0 16 -14 l0 -175 q0 -16 -16 -16 ZM327 341 l9 -11 q12 -15 12 -29 l0 -120 q0 -15 -13 -28 l-9 -9 q-12 -12 -28 -12 l-20 0 q-15 0 -15 15 l0 192 q0 15 15 15 l22 0 q17 0 27 -13 Z" /><glyph glyph-name="percent" unicode="%" d="M303 457 l0 221 q0 28 -20.5 48.5 q-20.5 20.5 -48.5 20.5 l-111 0 q-26 0 -46 -20.5 q-20 -20.5 -20 -48.5 l0 -221 q0 -27 20 -47.5 q20 -20.5 46 -20.5 l111 0 q28 0 48.5 20 q20.5 20 20.5 48 ZM563 727 q-48 0 -69 -42 l-387 -685 q-7 -13 0.5 -27 q7.5 -14 22.5 -14 q47 0 69 41 l388 685 q8 14 0 28 q-8 14 -24 14 ZM226 654 l0 -174 q0 -15 -16 -15 l-65 0 q-15 0 -15 15 l0 174 q0 16 15 16 l65 0 q16 0 16 -16 ZM589 321 l-111 0 q-28 0 -48 -20 q-20 -20 -20 -48 l0 -222 q0 -28 20 -48 q20 -20 48 -20 l111 0 q27 0 47 20.5 q20 20.5 20 47.5 l0 222 q0 27 -20 47.5 q-20 20.5 -47 20.5 ZM582 229 l0 -173 q0 -16 -16 -16 l-63 0 q-15 0 -15 16 l0 173 q0 16 15 16 l63 0 q16 0 16 -16 Z" /><glyph glyph-name="ampersand" unicode="&amp;" d="M375 191 l-10 -15 q-2 -2 -4 0 l-93 170 q-2 5 1 8 l99 103 q10 12 10 26 l0 196 q0 16 -11 26.5 q-11 10.5 -26 10.5 l-184 0 q-16 0 -26.5 -10.5 q-10.5 -10.5 -10.5 -26.5 l0 -204 q0 -10 5 -18 l48 -90 q2 -5 -2 -8 l-104 -113 q-10 -12 -10 -26 l0 -203 q0 -16 10.5 -26.5 q10.5 -10.5 26.5 -10.5 l210 0 q22 0 31 17 l19 29 q1 2 2.5 2 q1.5 0 2.5 -2 l15 -27 q10 -19 32 -19 l52 0 q15 0 26 11 q11 11 11 26 q0 15 -11 25.5 q-11 10.5 -26 10.5 l-26 0 q-5 0 -7 5 l-20 37 q-2 5 1 9 l57 88 q8 11 1 23.5 q-7 12.5 -21 12.5 q-44 0 -68 -37 ZM279 53 l-144 0 q-5 0 -5 6 l0 142 q0 6 3 9 l76 81 q4 4 6 -1 l98 -182 q3 -4 0 -9 l-26 -41 q-3 -5 -8 -5 ZM199 643 l100 0 q5 0 5 -5 l0 -136 q0 -5 -3 -8 l-68 -72 q-2 -3 -6 1 l-31 57 q-2 6 -2 9 l0 149 q0 5 5 5 Z" /><glyph glyph-name="quotesingle" unicode="&#39;" d="M137 574 l0 163 q0 17 -11.5 28.5 q-11.5 11.5 -28.5 11.5 q-17 0 -28.5 -11.5 q-11.5 -11.5 -11.5 -28.5 l0 -163 q0 -16 11.5 -28 q11.5 -12 28.5 -12 q17 0 28.5 12 q11.5 12 11.5 28 Z" /><glyph glyph-name="parenleft" unicode="(" d="M170 152 l-30 94 q-5 18 -5 35 l0 185 q0 17 5 35 l30 93 q4 13 16 29 l82 104 q10 13 3 28.5 q-7 15.5 -24 15.5 q-50 0 -82 -40 l-21 -26 q-40 -51 -61 -116 l-8 -27 q-18 -69 -18 -131 l0 -117 q0 -61 18 -131 l8 -26 q22 -67 62 -116 l19 -25 q32 -40 83 -40 q17 0 24 15 q7 15 -3 29 l-82 105 q-12 12 -16 27 Z" /><glyph glyph-name="parenright" unicode=")" d="M168 594 l30 -94 q5 -18 5 -35 l0 -185 q0 -17 -5 -35 l-30 -93 q-4 -13 -16 -29 l-82 -104 q-10 -13 -3 -28.5 q7 -15.5 24 -15.5 q50 0 82 40 l21 26 q40 51 61 116 l8 27 q18 69 18 131 l0 117 q0 61 -18 131 l-8 26 q-22 67 -62 116 l-19 25 q-32 40 -83 40 q-17 0 -24 -15 q-7 -15 3 -29 l82 -105 q12 -12 16 -27 Z" /><glyph glyph-name="asterisk" unicode="*" d="M350 659 l-83 -44 q-5 -3 -9 -0.5 q-4 2.5 -4 7.5 l0 80 q0 13 -10.5 23.5 q-10.5 10.5 -23.5 10.5 q-14 0 -24 -10 q-10 -10 -10 -24 l0 -78 q0 -5 -4.5 -7.5 q-4.5 -2.5 -9.5 0.5 l-80 44 q-11 6 -23 -1 q-12 -7 -12 -21 q0 -39 35 -56 l47 -26 q3 -2 3 -7 q0 -5 -3 -7 l-49 -26 q-33 -20 -33 -59 q0 -15 12 -22 q12 -7 23 0 l80 46 q5 3 9.5 0.5 q4.5 -2.5 4.5 -7.5 l0 -80 q0 -13 10 -23.5 q10 -10.5 24 -10.5 q13 0 23.5 10.5 q10.5 10.5 10.5 23.5 l0 81 q0 5 4 7.5 q4 2.5 9 -0.5 l82 -46 q12 -6 24 1 q12 7 12 21 q0 40 -36 59 l-44 25 q-10 7 -1 14 l46 25 q35 18 35 56 q0 13 -12 20 q-12 7 -23 1 Z" /><glyph glyph-name="plus" unicode="+" d="M458 386 l-118 0 q-8 0 -13 5 q-5 5 -5 13 l0 118 q0 18 -12.5 30.5 q-12.5 12.5 -30.5 12.5 q-18 0 -30.5 -12.5 q-12.5 -12.5 -12.5 -30.5 l0 -118 q0 -8 -5 -13 q-5 -5 -13 -5 l-118 0 q-18 0 -30.5 -12.5 q-12.5 -12.5 -12.5 -30.5 q0 -18 12.5 -30.5 q12.5 -12.5 30.5 -12.5 l118 0 q8 0 13 -5 q5 -5 5 -13 l0 -118 q0 -18 12.5 -30.5 q12.5 -12.5 30.5 -12.5 q18 0 30.5 12.5 q12.5 12.5 12.5 30.5 l0 118 q0 8 5 13 q5 5 13 5 l118 0 q18 0 30.5 12.5 q12.5 12.5 12.5 30.5 q0 18 -12.5 30.5 q-12.5 12.5 -30.5 12.5 Z" /><glyph glyph-name="comma" unicode="," d="M114 105 l-20 0 q-16 0 -26.5 -10.5 q-10.5 -10.5 -10.5 -26.5 l0 -5 q0 -13 9.5 -22.5 q9.5 -9.5 22.5 -9.5 q9 0 9 -9 l0 -14 q0 -9 -8 -17 q-29 -24 -29 -64 l0 -11 q0 -15 13.5 -21 q13.5 -6 23.5 4 l23 22 q50 45 50 112 l0 15 q0 23 -17 40 q-17 17 -40 17 Z" /><glyph glyph-name="hyphen" unicode="-" d="M98 298 q-17 0 -29 12 q-12 12 -12 29 q0 17 12 29 q12 12 29 12 l162 0 q17 0 29 -12 q12 -12 12 -29 q0 -17 -12 -29 q-12 -12 -29 -12 l-162 0 Z" /><glyph glyph-name="period" unicode="." d="M102 -17 l28 0 q19 0 32 13 q13 13 13 32 q0 19 -13 32 q-13 13 -32 13 l-28 0 q-19 0 -32 -13 q-13 -13 -13 -32 q0 -19 13 -32 q13 -13 32 -13 Z" /><glyph glyph-name="slash" unicode="/" d="M315 667 l-276 -647 q-7 -17 3 -32.5 q10 -15.5 29 -15.5 q23 0 42.5 13 q19.5 13 26.5 35 l275 647 q7 16 -3 31.5 q-10 15.5 -27 15.5 q-23 0 -42.5 -13 q-19.5 -13 -27.5 -34 Z" /><glyph glyph-name="zero" unicode="0" d="M334 31 q35 0 61.5 27 q26.5 27 26.5 64 l0 516 q0 28 -20 48 q-20 20 -46 20 l-287 0 q-28 0 -48.5 -20 q-20.5 -20 -20.5 -48 l0 -538 q0 -28 20.5 -48.5 q20.5 -20.5 48.5 -20.5 l265 0 ZM82 618 q0 12 14 12 l230 0 q13 0 13 -12 l0 -498 q0 -14 -13 -14 l-230 0 q-14 0 -14 14 l0 498 Z" /><glyph glyph-name="one" unicode="1" d="M12.5 694.5 q-11.5 -11.5 -11.5 -26.5 q0 -15 11.5 -26.5 q11.5 -11.5 27.5 -11.5 l95 0 q14 0 14 -12 l0 -545 q0 -17 12.5 -29.5 q12.5 -12.5 29.5 -12.5 q16 0 28 12.5 q12 12.5 12 29.5 l0 565 q0 28 -19.5 48 q-19.5 20 -47.5 20 l-124 0 q-16 0 -27.5 -11.5 Z" /><glyph glyph-name="two" unicode="2" d="M153 369 l232 0 q35 0 62 27 q27 27 27 64 l0 178 q0 28 -20.5 48 q-20.5 20 -47.5 20 l-309 0 q-15 0 -26.5 -11.5 q-11.5 -11.5 -11.5 -26.5 q0 -15 11.5 -26.5 q11.5 -11.5 26.5 -11.5 l282 0 q13 0 13 -12 l0 -158 q0 -13 -13 -13 l-253 0 q-28 0 -48.5 -20.5 q-20.5 -20.5 -20.5 -48.5 l0 -278 q0 -28 20.5 -48.5 q20.5 -20.5 48.5 -20.5 l310 0 q15 0 26.5 11.5 q11.5 11.5 11.5 27.5 q0 15 -11.5 26.5 q-11.5 11.5 -26.5 11.5 l-283 0 q-14 0 -14 14 l0 234 q0 13 14 13 Z" /><glyph glyph-name="three" unicode="3" d="M93 30 l290 0 q37 0 63 26.5 q26 26.5 26 64.5 l0 518 q0 29 -19.5 48.5 q-19.5 19.5 -47.5 19.5 l-312 0 q-15 0 -25.5 -10.5 q-10.5 -10.5 -10.5 -26.5 q0 -16 10.5 -27 q10.5 -11 25.5 -11 l283 0 q13 0 13 -13 l0 -159 q0 -13 -13 -13 l-212 0 q-16 0 -27.5 -11.5 q-11.5 -11.5 -11.5 -27.5 q0 -16 11.5 -27.5 q11.5 -11.5 27.5 -11.5 l212 0 q13 0 13 -13 l0 -237 q0 -14 -13 -14 l-283 0 q-15 0 -25.5 -11 q-10.5 -11 -10.5 -26 q0 -16 10.5 -27 q10.5 -11 25.5 -11 Z" /><glyph glyph-name="four" unicode="4" d="M57 665 l0 -205 q0 -38 26.5 -64.5 q26.5 -26.5 63.5 -26.5 l246 0 q5 0 9.5 -4 q4.5 -4 4.5 -9 l0 -284 q0 -17 12 -29.5 q12 -12.5 30 -12.5 q17 0 29 12.5 q12 12.5 12 29.5 l0 593 q0 18 -12 30 q-12 12 -29 12 q-18 0 -30 -12 q-12 -12 -12 -30 l0 -205 q0 -5 -4.5 -9 q-4.5 -4 -9.5 -4 l-240 0 q-13 0 -13 13 l0 205 q0 17 -12.5 29.5 q-12.5 12.5 -29.5 12.5 q-17 1 -29 -11.5 q-12 -12.5 -12 -30.5 Z" /><glyph glyph-name="five" unicode="5" d="M57 438 q0 -29 19.5 -49 q19.5 -20 47.5 -20 l252 0 q13 0 13 -13 l0 -235 q0 -14 -13 -14 l-282 0 q-16 0 -26.5 -11 q-10.5 -11 -10.5 -27 q0 -16 10.5 -27.5 q10.5 -11.5 26.5 -11.5 l291 0 q37 1 62 27.5 q25 26.5 25 63.5 l0 257 q0 29 -19.5 49 q-19.5 20 -47.5 20 l-252 0 q-13 0 -13 13 l0 157 q0 13 13 13 l282 0 q16 0 26.5 11.5 q10.5 11.5 10.5 27.5 q0 16 -10.5 27 q-10.5 11 -26.5 11 l-311 0 q-28 0 -47.5 -19.5 q-19.5 -19.5 -19.5 -48.5 l0 -201 Z" /><glyph glyph-name="six" unicode="6" d="M57 99 q0 -29 20 -49 q20 -20 48 -20 l261 0 q37 1 62.5 27.5 q25.5 26.5 25.5 63.5 l0 257 q0 29 -20 49 q-20 20 -48 20 l-253 0 q-13 0 -13 13 l0 157 q0 13 13 13 l265 0 q16 0 27 11.5 q11 11.5 11 27.5 q0 16 -11 27 q-11 11 -27 11 l-293 0 q-29 0 -48.5 -19.5 q-19.5 -19.5 -19.5 -48.5 l0 -540 ZM377 369 q14 0 14 -13 l0 -235 q0 -14 -14 -14 l-224 0 q-13 0 -13 14 l0 235 q0 13 13 13 l224 0 Z" /><glyph glyph-name="seven" unicode="7" d="M383 707 l-288 0 q-16 0 -27 -11 q-11 -11 -11 -27 q0 -16 11 -27.5 q11 -11.5 27 -11.5 l281 0 q14 0 14 -13 l0 -545 q0 -17 12 -29.5 q12 -12.5 30 -12.5 q17 0 29 12.5 q12 12.5 12 29.5 l0 545 q0 37 -26.5 63.5 q-26.5 26.5 -63.5 26.5 Z" /><glyph glyph-name="eight" unicode="8" d="M57 99 q0 -29 20 -49 q20 -20 48 -20 l260 0 q37 1 62.5 27.5 q25.5 26.5 25.5 63.5 l0 518 q0 29 -19.5 48.5 q-19.5 19.5 -48.5 19.5 l-280 0 q-29 0 -48.5 -19.5 q-19.5 -19.5 -19.5 -48.5 l0 -540 ZM140 617 q0 13 14 13 l222 0 q14 0 14 -13 l0 -157 q0 -13 -14 -13 l-222 0 q-14 0 -14 13 l0 157 ZM140 356 q0 13 14 13 l222 0 q14 0 14 -13 l0 -235 q0 -14 -14 -14 l-222 0 q-14 0 -14 14 l0 235 Z" /><glyph glyph-name="nine" unicode="9" d="M125 707 q-29 0 -48.5 -19.5 q-19.5 -19.5 -19.5 -48.5 l0 -201 q0 -29 20 -49 q20 -20 48 -20 l251 0 q13 0 13 -13 l0 -235 q0 -14 -13 -14 l-281 0 q-16 0 -27 -11 q-11 -11 -11 -27 q0 -16 11 -27.5 q11 -11.5 27 -11.5 l290 0 q37 1 62.5 27.5 q25.5 26.5 25.5 63.5 l0 518 q0 29 -19.5 48.5 q-19.5 19.5 -48.5 19.5 l-280 0 ZM389 460 q0 -13 -13 -13 l-223 0 q-13 0 -13 13 l0 157 q0 13 13 13 l223 0 q13 0 13 -13 l0 -157 Z" /><glyph glyph-name="colon" unicode=":" d="M178 401 q0 22 -16.5 38.5 q-16.5 16.5 -38.5 16.5 l-14 0 q-20 0 -36 -16.5 q-16 -16.5 -16 -38.5 q0 -22 16 -39 q16 -17 36 -17 l14 0 q22 0 38.5 16.5 q16.5 16.5 16.5 39.5 ZM162 9.5 q16 16.5 16 38.5 q0 22 -16.5 38.5 q-16.5 16.5 -38.5 16.5 l-14 0 q-20 0 -36 -16.5 q-16 -16.5 -16 -38.5 q0 -22 16 -38.5 q16 -16.5 36 -16.5 l14 0 q23 0 39 16.5 Z" /><glyph glyph-name="semicolon" unicode=";" d="M160.5 364.5 q16.5 16.5 16.5 38.5 q0 22 -16.5 38 q-16.5 16 -38.5 16 l-13 0 q-20 0 -36 -16 q-16 -16 -16 -38 q0 -22 16 -38.5 q16 -16.5 36 -16.5 l13 0 q22 0 38.5 16.5 ZM120 126 l-16 0 q-17 0 -30 -13.5 q-13 -13.5 -13 -31.5 l0 -10 q0 -13 10.5 -24 q10.5 -11 23.5 -11 l5 0 q1 0 1 -1 q0 -1 -1 -1 q0 -1 -1 -2 l-5 -5 q-33 -24 -33 -69 l0 -11 q0 -18 15.5 -25 q15.5 -7 27.5 3 l26 22 q51 41 51 111 l0 7 q0 25 -18 43 q-18 18 -43 18 Z" /><glyph glyph-name="less" unicode="&lt;" d="M291 666 q-24 0 -47 -13 q-23 -13 -36 -34 l-130 -231 q-34 -59 0 -117 l130 -231 q13 -22 36 -35 q23 -13 47 -13 q19 0 28.5 17 q9.5 17 0.5 33 l-155 272 q-8 15 0 31 l155 273 q9 15 -0.5 31.5 q-9.5 16.5 -28.5 16.5 Z" /><glyph glyph-name="equal" unicode="=" d="M481 418 q14 14 14 32 q0 18 -14 31.5 q-14 13.5 -32 13.5 l-346 0 q-18 0 -32 -13.5 q-14 -13.5 -14 -31.5 q0 -18 14 -32 q14 -14 32 -14 l346 0 q18 0 32 14 ZM481 177 q14 14 14 32 q0 18 -14 31.5 q-14 13.5 -32 13.5 l-346 0 q-18 0 -32 -13.5 q-14 -13.5 -14 -31.5 q0 -18 14 -32 q14 -14 32 -14 l346 0 q18 0 32 14 Z" /><glyph glyph-name="greater" unicode="&gt;" d="M99 -8 q56 0 84 49 l132 230 q32 58 0 117 l-132 233 q-28 45 -84 45 q-20 0 -29.5 -16 q-9.5 -16 -0.5 -31 l155 -276 q10 -14 0 -29 l-155 -272 q-9 -16 0.5 -33 q9.5 -17 29.5 -17 Z" /><glyph glyph-name="question" unicode="?" d="M381 709 l-285 0 q-15 0 -27 -11.5 q-12 -11.5 -12 -27.5 l0 -100 q0 -16 12 -28 q12 -12 28 -12 q15 0 26 12 q11 12 11 28 l0 47 q0 14 16 14 l178 0 q16 0 16 -14 l0 -86 q0 -20 -10 -30 l-121 -175 q-7 -12 -7 -22 l0 -127 q0 -16 12 -28 q12 -12 28 -12 q16 0 27.5 12 q11.5 12 11.5 28 l0 98 q0 18 11 31 l118 174 q7 12 7 22 l0 168 q0 16 -12 27.5 q-12 11.5 -28 11.5 ZM206 61 l0 -72 q0 -16 12 -28 q12 -12 28 -12 q16 0 27.5 12 q11.5 12 11.5 28 l0 72 q0 15 -11.5 27 q-11.5 12 -27.5 12 q-16 0 -28 -12 q-12 -12 -12 -27 Z" /><glyph glyph-name="at" unicode="@" d="M666 -7 q12 12 12 28 q0 16 -12 28 q-12 12 -28 12 l-377 0 q-18 0 -30 10 l-81 53 q-15 9 -15 24 l0 297 q0 17 12 29 l118 125 q12 13 28 13 l318 0 q16 0 16 -16 l0 -354 q0 -35 -14 -49 q-15 -16 -51 -16 l-24 1 q-15 0 -15 16 l0 289 q0 27 -20.5 47.5 q-20.5 20.5 -48.5 20.5 l-83 0 q-69 0 -113 -49 l-22 -24 q-44 -49 -44 -117 l0 -143 q0 -56 45 -85 q49 -27 100 -27 l36 0 q13 0 25 12 q12 12 12 25 q0 15 -11.5 27 q-11.5 12 -25.5 12 l-50 0 q-18 0 -31 10 l-8 5 q-14 9 -14 26 l0 157 q0 17 12 29 l46 50 q11 13 27 13 l72 0 q16 0 16 -16 l0 -287 q0 -28 20 -47.5 q20 -19.5 48 -19.5 l50 -1 l1 0 q71 0 108 37 q34 37 34 104 l0 379 q0 26 -20.5 46.5 q-20.5 20.5 -48.5 20.5 l-324 0 q-69 0 -115 -48 l-93 -97 q-46 -46 -46 -117 l0 -270 q0 -30 15 -58.5 q15 -28.5 40 -44.5 l53 -35 q59 -37 124 -37 l349 0 q16 0 28 12 Z" /><glyph glyph-name="A" unicode="A" d="M125 707 q-28 0 -48 -20 q-20 -20 -20 -49 l0 -565 q0 -18 12.5 -30.5 q12.5 -12.5 29.5 -12.5 q18 0 30.5 12.5 q12.5 12.5 12.5 30.5 l0 290 q0 13 14 13 l237 0 q13 0 13 -13 l0 -289 q0 -18 13 -31 q13 -13 31 -13 q18 0 30.5 13 q12.5 13 12.5 31 l0 564 q0 29 -20 49 q-20 20 -48 20 l-300 0 ZM156 456 q-14 0 -14 13 l0 145 q0 13 14 13 l237 0 q13 0 13 -13 l0 -145 q0 -13 -13 -13 l-237 0 Z" /><glyph glyph-name="B" unicode="B" d="M431 456 q-12 0 -12 12 l0 171 q0 28 -20.5 48 q-20.5 20 -48.5 20 l-226 0 q-28 0 -47.5 -20 q-19.5 -20 -19.5 -48 l0 -540 q0 -29 19.5 -49 q19.5 -20 47.5 -20 l300 0 q28 0 48 20 q20 20 20 49 l0 295 q0 26 -18 44 q-18 18 -43 18 ZM319 627 q13 0 13 -13 l0 -145 q0 -13 -13 -13 l-163 0 q-14 0 -14 13 l0 145 q0 13 14 13 l163 0 ZM156 110 q-14 0 -14 13 l0 240 q0 13 14 13 l236 0 q13 0 13 -13 l0 -240 q0 -13 -13 -13 l-236 0 Z" /><glyph glyph-name="C" unicode="C" d="M431 30 q16 0 27.5 12 q11.5 12 11.5 28 q0 16 -11.5 28 q-11.5 12 -27.5 12 l-275 0 q-13 0 -13 13 l0 491 q0 13 13 13 l275 0 q16 0 27.5 12 q11.5 12 11.5 28 q0 16 -11.5 28 q-11.5 12 -27.5 12 l-306 0 q-29 0 -48.5 -19.5 q-19.5 -19.5 -19.5 -48.5 l0 -540 q0 -29 20 -49 q20 -20 48 -20 l306 0 Z" /><glyph glyph-name="D" unicode="D" d="M422 657 q-44 50 -112 50 l-185 0 q-29 0 -48.5 -19.5 q-19.5 -19.5 -19.5 -48.5 l0 -540 q0 -29 20 -49 q20 -20 48 -20 l176 0 q67 0 112 50 l95 106 q1 0 1 4 l0 305 q0 68 -45 116 l-42 46 ZM424 235 q0 -13 -10 -26 l-79 -89 q-13 -11 -25 -11 l-154 0 q-13 0 -13 14 l0 491 q0 13 13 13 l164 0 q13 0 25 -10 l69 -78 q10 -12 10 -26 l0 -278 Z" /><glyph glyph-name="E" unicode="E" d="M361 29 q15 0 26.5 12 q11.5 12 11.5 28 q0 16 -11.5 28 q-11.5 12 -26.5 12 l-205 0 q-14 0 -14 13 l0 241 q0 13 14 13 l175 0 q16 0 27.5 11.5 q11.5 11.5 11.5 28.5 q0 17 -11.5 28.5 q-11.5 11.5 -27.5 11.5 l-175 0 q-14 0 -14 13 l0 145 q0 14 14 14 l205 0 q15 0 26.5 12 q11.5 12 11.5 28 q0 16 -11.5 27.5 q-11.5 11.5 -26.5 11.5 l-236 0 q-29 0 -49 -20 q-20 -20 -20 -48 l0 -540 q0 -29 20 -49 q20 -20 49 -20 l236 -1 Z" /><glyph glyph-name="F" unicode="F" d="M360 707 l-235 0 q-29 0 -49 -20.5 q-20 -20.5 -20 -48.5 l0 -565 q0 -18 12.5 -30.5 q12.5 -12.5 30.5 -12.5 q18 0 30.5 12.5 q12.5 12.5 12.5 30.5 l0 290 q0 13 14 13 l175 0 q16 0 27.5 11.5 q11.5 11.5 11.5 28.5 q0 17 -11.5 28.5 q-11.5 11.5 -27.5 11.5 l-175 0 q-14 0 -14 13 l0 145 q0 13 14 13 l204 0 q16 0 27.5 12 q11.5 12 11.5 28 q0 16 -11.5 28 q-11.5 12 -27.5 12 Z" /><glyph glyph-name="G" unicode="G" d="M125 30 l283 0 q28 0 48 20 q20 20 20 49 l0 288 q0 29 -20 49 q-20 20 -48 20 l-107 0 q-16 0 -27.5 -12 q-11.5 -12 -11.5 -28 q0 -16 11.5 -28 q11.5 -12 27.5 -12 l78 0 q13 0 13 -13 l0 -240 q0 -14 -13 -14 l-223 0 q-13 0 -13 14 l0 490 q0 13 13 13 l270 0 q16 0 28 12 q12 12 12 29 q0 17 -12 29 q-12 12 -28 12 l-301 0 q-28 0 -48 -20 q-20 -20 -20 -49 l0 -540 q0 -29 20 -49 q20 -20 48 -20 Z" /><glyph glyph-name="H" unicode="H" d="M455 707 q-17 0 -29.5 -12.5 q-12.5 -12.5 -12.5 -29.5 l0 -195 q0 -14 -14 -14 l-245 0 q-13 0 -13 14 l0 195 q0 18 -12.5 30 q-12.5 12 -29.5 12 q-18 0 -30 -12 q-12 -12 -12 -30 l0 -593 q0 -17 12 -29.5 q12 -12.5 30 -12.5 q17 0 29.5 12.5 q12.5 12.5 12.5 29.5 l0 291 q0 13 13 13 l245 0 q14 0 14 -13 l0 -291 q0 -17 12.5 -29.5 q12.5 -12.5 29.5 -12.5 q18 0 30 12.5 q12 12.5 12 29.5 l0 593 q0 17 -12 29.5 q-12 12.5 -30 12.5 Z" /><glyph glyph-name="I" unicode="I" d="M141 73 l0 591 q0 18 -12.5 30.5 q-12.5 12.5 -30.5 12.5 q-17 0 -29.5 -12.5 q-12.5 -12.5 -12.5 -30.5 l0 -591 q0 -18 12.5 -30.5 q12.5 -12.5 29.5 -12.5 q18 0 30.5 12.5 q12.5 12.5 12.5 30.5 Z" /><glyph glyph-name="J" unicode="J" d="M363 30 q28 0 48 20 q20 20 20 49 l0 539 q0 29 -20 49 q-20 20 -48 20 l-173 0 q-16 0 -27.5 -12 q-11.5 -12 -11.5 -28 q0 -16 11.5 -28 q11.5 -12 27.5 -12 l142 0 q14 0 14 -13 l0 -491 q0 -14 -14 -14 l-207 0 q-14 0 -14 14 l0 55 q0 17 -12.5 29.5 q-12.5 12.5 -29.5 12.5 q-17 0 -29 -12.5 q-12 -12.5 -12 -29.5 l0 -79 q0 -28 20 -48.5 q20 -20.5 48 -20.5 l267 0 Z" /><glyph glyph-name="K" unicode="K" d="M259 443 q-6 11 3 24 l156 196 q10 13 2.5 28 q-7.5 15 -23.5 15 q-52 0 -85 -41 l-128 -160 q-8 -11 -22 -11 l-6 0 q-14 0 -14 12 l0 158 q0 18 -12.5 30.5 q-12.5 12.5 -30.5 12.5 q-18 0 -30 -12.5 q-12 -12.5 -12 -30.5 l0 -591 q0 -18 12 -30.5 q12 -12.5 30 -12.5 q18 0 30.5 12.5 q12.5 12.5 12.5 30.5 l0 328 q0 13 14 13 l7 0 q14 0 20 -13 l169 -329 q9 -19 28 -30.5 q19 -11.5 40 -11.5 q16 0 25 14.5 q9 14.5 2 29.5 l-188 369 Z" /><glyph glyph-name="L" unicode="L" d="M347 30 q17 0 28.5 12 q11.5 12 11.5 28 q0 16 -11.5 28 q-11.5 12 -28.5 12 l-192 0 q-13 0 -13 13 l0 541 q0 18 -12.5 30.5 q-12.5 12.5 -30.5 12.5 q-18 0 -30.5 -12.5 q-12.5 -12.5 -12.5 -30.5 l0 -565 q0 -29 20 -49 q20 -20 49 -20 l222 0 Z" /><glyph glyph-name="M" unicode="M" d="M528 707 q-51 0 -73 -45 l-137 -268 q-2 -3 -5 -3 q-3 0 -5 3 l-144 275 q-20 38 -64 38 q-17 0 -30 -13 q-13 -13 -13 -31 l0 -592 q0 -17 11.5 -29 q11.5 -12 28.5 -12 q17 0 29.5 12 q12.5 12 12.5 29 l0 458 q0 2 1 2 q1 0 2 -1 l92 -174 q19 -39 61 -54 q28 -10 56 7 q28 17 43 47 l96 190 q1 1 2 1 q1 0 1 -2 l0 -472 q0 -18 12.5 -30.5 q12.5 -12.5 30.5 -12.5 q17 0 29.5 12.5 q12.5 12.5 12.5 30.5 l0 583 q0 21 -15 36 q-15 15 -35 15 Z" /><glyph glyph-name="N" unicode="N" d="M116 707 q-25 0 -42 -17.5 q-17 -17.5 -17 -42.5 l0 -576 q0 -17 12 -29 q12 -12 29 -12 q17 0 29 12 q12 12 12 29 l0 543 q0 4 3 5 q3 1 5 -1 l256 -251 q11 -13 11 -25 l0 -270 q0 -17 12.5 -29.5 q12.5 -12.5 29.5 -12.5 q17 0 29.5 12.5 q12.5 12.5 12.5 29.5 l0 593 q0 17 -12.5 29.5 q-12.5 12.5 -29.5 12.5 q-17 0 -29.5 -12.5 q-12.5 -12.5 -12.5 -29.5 l0 -180 q0 -4 -3 -5 q-3 -1 -6 1 l-189 185 q-39 41 -100 41 Z" /><glyph glyph-name="O" unicode="O" d="M420 30 q28 0 48 20 q20 20 20 49 l0 540 q0 29 -20 48.5 q-20 19.5 -48 19.5 l-295 0 q-28 0 -48 -20 q-20 -20 -20 -49 l0 -539 q0 -29 20 -49 q20 -20 48 -20 l295 0 ZM154 110 q-14 0 -14 13 l0 491 q0 13 14 13 l235 0 q14 0 14 -13 l0 -491 q0 -13 -14 -13 l-235 0 Z" /><glyph glyph-name="P" unicode="P" d="M124 707 q-28 0 -47.5 -20 q-19.5 -20 -19.5 -48 l0 -566 q0 -18 12 -30.5 q12 -12.5 30 -12.5 q17 0 30 12.5 q13 12.5 13 30.5 l0 290 q0 13 13 13 l248 0 q28 0 48 20 q20 20 20 49 l0 194 q0 29 -19.5 48.5 q-19.5 19.5 -48.5 19.5 l-279 0 ZM155 456 q-13 0 -13 13 l0 145 q0 14 13 14 l220 0 q13 0 13 -14 l0 -145 q0 -13 -13 -13 l-220 0 Z" /><glyph glyph-name="Q" unicode="Q" d="M308 30 q15 0 21 -12 l11 -18 q26 -42 74 -42 q16 0 24.5 15 q8.5 15 0.5 29 l-12 20 q-6 8 4 8 q24 0 40.5 17 q16.5 17 16.5 41 l0 551 q0 29 -20 48.5 q-20 19.5 -48 19.5 l-295 0 q-29 0 -48.5 -19.5 q-19.5 -19.5 -19.5 -48.5 l0 -540 q0 -29 20 -49 q20 -20 48 -20 l183 0 ZM140 614 q0 14 14 14 l235 0 q14 0 14 -14 l0 -491 q0 -13 -14 -13 l-235 0 q-14 0 -14 13 l0 491 Z" /><glyph glyph-name="R" unicode="R" d="M402 376 q28 0 48 20 q20 20 20 49 l0 194 q0 29 -20 48.5 q-20 19.5 -48 19.5 l-278 0 q-28 0 -47.5 -20 q-19.5 -20 -19.5 -48 l0 -567 q0 -17 12 -29.5 q12 -12.5 29 -12.5 q17 0 29.5 12.5 q12.5 12.5 12.5 29.5 l0 291 q0 13 13 13 l72 0 q15 0 19 -13 l122 -292 q8 -18 25 -29.5 q17 -11.5 37 -11.5 q16 0 25 14 q9 14 4 29 l-123 292 q-2 4 0.5 7.5 q2.5 3.5 7.5 3.5 l60 0 ZM140 614 q0 14 13 14 l221 0 q14 0 14 -14 l0 -145 q0 -13 -14 -13 l-221 0 q-13 0 -13 13 l0 145 Z" /><glyph glyph-name="S" unicode="S" d="M86 30 l280 0 q28 0 48 20 q20 20 20 49 l0 288 q0 29 -20 49 q-20 20 -48 20 l-216 0 q-13 0 -13 13 l0 145 q0 14 13 14 l251 0 q16 0 27 11.5 q11 11.5 11 28.5 q0 16 -11 27.5 q-11 11.5 -27 11.5 l-280 0 q-28 0 -47.5 -20 q-19.5 -20 -19.5 -48 l0 -194 q0 -29 19.5 -49 q19.5 -20 47.5 -20 l216 0 q14 0 14 -13 l0 -240 q0 -13 -14 -13 l-251 0 q-16 0 -27.5 -11.5 q-11.5 -11.5 -11.5 -28.5 q0 -17 11.5 -28.5 q11.5 -11.5 27.5 -11.5 Z" /><glyph glyph-name="T" unicode="T" d="M380 637.5 q12 11.5 12 28.5 q0 17 -12 29 q-12 12 -29 12 l-310 0 q-17 0 -29 -12 q-12 -12 -12 -29 q0 -16 12 -28 q12 -12 29 -12 l100 0 q12 0 12 -14 l0 -539 q0 -17 13 -30 q13 -13 30 -13 q18 0 30.5 13 q12.5 13 12.5 30 l0 539 q0 14 13 14 l99 0 q17 0 29 11.5 Z" /><glyph glyph-name="U" unicode="U" d="M125 30 l300 0 q28 0 48 20 q20 20 20 49 l0 565 q0 18 -12.5 30.5 q-12.5 12.5 -30.5 12.5 q-18 0 -30.5 -12.5 q-12.5 -12.5 -12.5 -30.5 l0 -541 q0 -13 -14 -13 l-237 0 q-14 0 -14 13 l0 541 q0 18 -12.5 30.5 q-12.5 12.5 -30.5 12.5 q-17 0 -29.5 -12.5 q-12.5 -12.5 -12.5 -30.5 l0 -565 q0 -29 20 -49 q20 -20 48 -20 Z" /><glyph glyph-name="V" unicode="V" d="M507 666 q5 15 -4.5 28 q-9.5 13 -25.5 13 q-18 0 -33.5 -11 q-15.5 -11 -20.5 -28 l-138 -472 q-2 -3 -5 1 l-135 472 q-5 17 -20 27.5 q-15 10.5 -33 10.5 q-15 0 -24 -12.5 q-9 -12.5 -5 -27.5 l172 -601 q5 -16 18 -26 q13 -10 30 -10 q17 0 30.5 10 q13.5 10 18.5 26 l175 600 Z" /><glyph glyph-name="W" unicode="W" d="M57 666 l0 -597 q0 -16 11.5 -27.5 q11.5 -11.5 26.5 -11.5 q37 0 57 34 l154 293 q2 4 5 4 q3 0 5 -4 l145 -286 q22 -41 69 -41 q19 0 32.5 14 q13.5 14 13.5 34 l0 586 q0 18 -12.5 30.5 q-12.5 12.5 -29.5 12.5 q-18 0 -30.5 -12.5 q-12.5 -12.5 -12.5 -30.5 l0 -458 q-1 -1 -3 0 l-105 207 q-10 20 -29.5 31.5 q-19.5 11.5 -41.5 11.5 q-50 0 -72 -43 l-98 -187 q-1 -1 -2 -1 q-1 0 -1 2 l0 439 q0 17 -12.5 29 q-12.5 12 -29.5 12 q-17 0 -28.5 -12 q-11.5 -12 -11.5 -29 Z" /><glyph glyph-name="X" unicode="X" d="M346 440 q-6 13 2 26 l112 197 q7 15 -1 29.5 q-8 14.5 -24 14.5 q-49 0 -73 -42 l-89 -157 q-6 -12 -21 -12 l-8 0 q-15 0 -21 11 l-93 159 q-26 41 -72 41 q-16 0 -24 -14.5 q-8 -14.5 -1 -28.5 l119 -200 q7 -12 2 -26 l-145 -364 q-7 -16 2.5 -30 q9.5 -14 26.5 -14 q20 0 37 11.5 q17 11.5 25 30.5 l130 327 q6 13 20 13 l3 0 q13 0 20 -13 l137 -328 q8 -18 25 -29.5 q17 -11.5 36 -11.5 q16 0 25.5 14 q9.5 14 3.5 29 l-154 367 Z" /><glyph glyph-name="Y" unicode="Y" d="M445 664 q10 13 2.5 27.5 q-7.5 14.5 -23.5 14.5 q-51 0 -80 -40 l-107 -145 q-7 -9 -15 0 l-109 146 q-31 39 -80 39 q-16 0 -23 -14.5 q-7 -14.5 2 -26.5 l165 -220 q9 -12 9 -27 l0 -346 q0 -17 12.5 -29.5 q12.5 -12.5 29.5 -12.5 q18 0 30 12.5 q12 12.5 12 29.5 l0 357 l-1 0 l2 0 l174 235 Z" /><glyph glyph-name="Z" unicode="Z" d="M86 707 q-16 0 -27.5 -11.5 q-11.5 -11.5 -11.5 -28.5 q0 -17 11.5 -28.5 q11.5 -11.5 27.5 -11.5 l216 0 q5 0 7 -3 q2 -3 -1 -7 l-262 -474 q-18 -31 -18 -73 q0 -16 11.5 -28 q11.5 -12 27.5 -12 l302 0 q16 0 27.5 12 q11.5 12 11.5 28 q0 16 -11.5 28 q-11.5 12 -27.5 12 l-237 0 q-4 0 -6 3 q-2 3 0 7 l262 473 q19 32 19 73 q0 17 -11.5 29 q-11.5 12 -28.5 12 l-281 0 Z" /><glyph glyph-name="bracketleft" unicode="[" d="M316 -42.5 q15 14.5 15 35.5 q0 21 -15 35.5 q-15 14.5 -36 14.5 l-60 0 q-19 0 -32 13 l-19 18 q-13 13 -13 32 l0 548 q0 19 13 32 l19 18 q12 13 32 13 l60 0 q21 0 36 14.5 q15 14.5 15 35.5 q0 21 -15 35.5 q-15 14.5 -36 14.5 l-50 0 q-68 0 -120 -50 l-4 -4 q-49 -47 -49 -119 l0 -528 q0 -72 49 -119 l4 -4 q52 -50 120 -50 l50 0 q21 0 36 14.5 Z" /><glyph glyph-name="bracketright" unicode="]" d="M23.5 802.5 q-14.5 -14.5 -14.5 -35.5 q0 -21 14.5 -35.5 q14.5 -14.5 34.5 -14.5 l62 0 q19 0 31 -14 l18 -17 q14 -14 14 -32 l0 -548 q0 -18 -14 -32 l-18 -17 q-12 -14 -31 -14 l-62 0 q-20 0 -34.5 -14.5 q-14.5 -14.5 -14.5 -35.5 q0 -21 14.5 -35.5 q14.5 -14.5 34.5 -14.5 l50 0 q70 0 120 50 l4 4 q51 48 51 119 l0 528 q0 71 -51 119 l-4 4 q-50 50 -120 50 l-50 0 q-20 0 -34.5 -14.5 Z" /><glyph glyph-name="asciicircum" unicode="^" d="M256 666 l114 -258 q6 -14 20 -23 q14 -9 29 -9 q13 0 20.5 12 q7.5 12 2.5 24 l-139 313 q-5 14 -19 22.5 q-14 8.5 -31 8.5 q-40 0 -51 -31 l-139 -313 q-5 -12 3 -24 q8 -12 21 -12 q15 0 28.5 9 q13.5 9 19.5 23 l114 258 q1 3 3.5 3 q2.5 0 3.5 -3 Z" /><glyph glyph-name="underscore" unicode="_" d="M45 -120 q-19 0 -32 13 q-13 13 -13 32 q0 19 13 32 q13 13 32 13 l410 0 q19 0 32 -13 q13 -13 13 -32 q0 -19 -13 -32 q-13 -13 -32 -13 l-410 0 Z" /><glyph glyph-name="grave" unicode="`" d="M90 746 q-15 0 -22.5 -15 q-7.5 -15 1.5 -28 l55 -68 q24 -29 57 -29 q13 0 20 12 q7 12 1 23 l-38 63 q-25 42 -74 42 Z" /><glyph glyph-name="a" unicode="a" d="M394 121 l0 335 q0 28 -20 48 q-20 20 -48 20 l-222 0 q-16 0 -27.5 -11.5 q-11.5 -11.5 -11.5 -26.5 q0 -16 11.5 -27 q11.5 -11 27.5 -11 l193 0 q13 0 13 -14 l0 -67 q0 -14 -13 -14 l-172 0 q-28 0 -48.5 -20 q-20.5 -20 -20.5 -48 l0 -186 q0 -29 20 -49 q20 -20 49 -20 l182 0 q36 2 61.5 28 q25.5 26 25.5 63 ZM137 262 q0 14 13 14 l147 0 q13 0 13 -14 l0 -143 q0 -14 -13 -14 l-147 0 q-13 0 -13 14 l0 143 Z" /><glyph glyph-name="b" unicode="b" d="M396 121 l0 335 q0 28 -20 48 q-20 20 -49 20 l-173 0 q-5 0 -9.5 4 q-4.5 4 -4.5 10 l0 114 q0 17 -12.5 29.5 q-12.5 12.5 -29.5 12.5 q-17 0 -29 -12.5 q-12 -12.5 -12 -29.5 l0 -553 q0 -29 20 -49 q20 -20 48 -20 l184 0 q36 2 61.5 28 q25.5 26 25.5 63 ZM140 434 q0 14 14 14 l147 0 q13 0 13 -14 l0 -315 q0 -14 -13 -14 l-147 0 q-14 0 -14 14 l0 315 Z" /><glyph glyph-name="c" unicode="c" d="M56 121 q0 -37 26 -63.5 q26 -26.5 63 -27.5 l205 0 q15 0 25.5 11 q10.5 11 10.5 27 q0 15 -10.5 26 q-10.5 11 -25.5 11 l-196 0 q-14 0 -14 14 l0 315 q0 14 14 14 l195 0 q16 0 26.5 11 q10.5 11 10.5 27 q0 15 -11 26.5 q-11 11.5 -26 11.5 l-224 0 q-29 0 -49 -20 q-20 -20 -20 -48 l0 -335 Z" /><glyph glyph-name="d" unicode="d" d="M305 30 q37 0 64 27 q27 27 27 64 l0 530 q0 18 -12.5 30 q-12.5 12 -29.5 12 q-17 0 -29.5 -12 q-12.5 -12 -12.5 -30 l0 -113 q0 -14 -14 -14 l-173 0 q-29 0 -48.5 -20 q-19.5 -20 -19.5 -48 l0 -357 q0 -29 20 -49 q20 -20 48 -20 l180 0 ZM138 434 q0 14 13 14 l147 0 q14 0 14 -14 l0 -315 q0 -14 -14 -14 l-147 0 q-13 0 -13 14 l0 315 Z" /><glyph glyph-name="e" unicode="e" d="M146 30 l209 0 q15 0 25.5 11 q10.5 11 10.5 27 q0 15 -10.5 26 q-10.5 11 -25.5 11 l-202 0 q-5 0 -9.5 4 q-4.5 4 -4.5 10 l0 142 q0 6 4.5 10 q4.5 4 9.5 4 l168 0 q28 0 47.5 20 q19.5 20 19.5 49 l0 112 q0 28 -19.5 48 q-19.5 20 -47.5 20 l-197 0 q-28 0 -48 -20 q-20 -20 -20 -48 l0 -335 q0 -38 26.5 -64.5 q26.5 -26.5 63.5 -26.5 ZM139 434 q0 6 4.5 10 q4.5 4 9.5 4 l140 0 q5 0 9.5 -4 q4.5 -4 4.5 -10 l0 -68 q0 -6 -4.5 -10 q-4.5 -4 -9.5 -4 l-140 0 q-5 0 -9.5 4 q-4.5 4 -4.5 10 l0 68 Z" /><glyph glyph-name="f" unicode="f" d="M251 630 q14 0 25 11 q11 11 11 26 q0 16 -11 27 q-11 11 -25 11 l-100 0 q-37 0 -63.5 -27 q-26.5 -27 -26.5 -64 l0 -82 q0 -8 -8 -8 l-7 0 q-15 0 -26 -11.5 q-11 -11.5 -11 -26.5 q0 -16 11 -27 q11 -11 26 -11 l7 0 q8 0 8 -8 l0 -368 q0 -17 12.5 -29.5 q12.5 -12.5 29.5 -12.5 q17 0 29 12.5 q12 12.5 12 29.5 l0 362 q0 14 13 14 l92 0 q15 0 26.5 11 q11.5 11 11.5 27 q0 15 -11.5 26.5 q-11.5 11.5 -26.5 11.5 l-92 0 q-13 0 -13 14 l0 78 q0 14 13 14 l94 0 Z" /><glyph glyph-name="g" unicode="g" d="M305 -147 q37 0 64 26.5 q27 26.5 27 64.5 l0 514 q0 28 -20 48 q-20 20 -49 20 l-202 0 q-29 0 -48.5 -20 q-19.5 -20 -19.5 -48 l0 -357 q0 -29 20 -49 q20 -20 48 -20 l173 0 q14 0 14 -14 l0 -74 q0 -5 -4 -9.5 q-4 -4.5 -10 -4.5 l-201 0 q-16 0 -27 -11 q-11 -11 -11 -27 q0 -16 11 -27.5 q11 -11.5 27 -11.5 l208 0 ZM152 107 q-14 0 -14 14 l0 315 q0 5 4 9.5 q4 4.5 10 4.5 l146 0 q6 0 10 -4.5 q4 -4.5 4 -9.5 l0 -315 q0 -14 -14 -14 l-146 0 Z" /><glyph glyph-name="h" unicode="h" d="M394 71 l0 363 q0 38 -26 64 q-26 26 -64 26 l-151 0 q-13 0 -13 14 l0 113 q0 18 -12.5 30 q-12.5 12 -29.5 12 q-17 0 -29.5 -12 q-12.5 -12 -12.5 -29 l0 -580 q0 -17 12.5 -29.5 q12.5 -12.5 29.5 -12.5 q17 0 29.5 12.5 q12.5 12.5 12.5 29.5 l0 362 q0 14 13 14 l147 0 q13 0 13 -14 l0 -363 q0 -17 12 -29 q12 -12 29 -12 q17 0 28.5 12 q11.5 12 11.5 29 Z" /><glyph glyph-name="i" unicode="i" d="M138 483 q0 17 -12 29 q-12 12 -29 12 q-17 0 -29 -12 q-12 -12 -12 -29 l0 -411 q0 -17 12 -29.5 q12 -12.5 29 -12.5 q17 0 29 12.5 q12 12.5 12 29.5 l0 411 ZM138 607 q0 16 -11 27.5 q-11 11.5 -27 11.5 l-6 0 q-16 0 -27 -11.5 q-11 -11.5 -11 -27.5 q0 -17 11 -28.5 q11 -11.5 27 -11.5 l6 0 q16 0 27 11.5 q11 11.5 11 28.5 Z" /><glyph glyph-name="j" unicode="j" d="M129.5 580.5 q11.5 11.5 11.5 27.5 q0 16 -11.5 27.5 q-11.5 11.5 -27.5 11.5 l-5 0 q-16 0 -27.5 -11.5 q-11.5 -11.5 -11.5 -27.5 q0 -16 11.5 -27.5 q11.5 -11.5 27.5 -11.5 l5 0 q16 0 27.5 11.5 ZM-22 -146 q-14 0 -23.5 10 q-9.5 10 -9.5 24 q0 14 9.5 23.5 q9.5 9.5 23.5 9.5 l67 0 q7 0 12 5 q5 5 5 12 l0 545 q0 16 11 27 q11 11 27 11 q16 0 26.5 -11 q10.5 -11 10.5 -27 l0 -543 q0 -35 -25 -60.5 q-25 -25.5 -61 -25.5 l-73 0 Z" /><glyph glyph-name="k" unicode="k" d="M300 305 q-6 12 2 26 l85 151 q8 14 -0.5 28 q-8.5 14 -24.5 14 q-43 0 -71 -40 l-67 -119 q-6 -12 -21 -12 l-49 0 q-14 0 -14 13 l0 285 q0 18 -12.5 30 q-12.5 12 -29.5 12 q-17 0 -29.5 -12 q-12.5 -12 -12.5 -30 l0 -579 q0 -17 12.5 -29.5 q12.5 -12.5 29.5 -12.5 q17 0 29.5 12.5 q12.5 12.5 12.5 29.5 l0 190 q0 13 14 13 l53 0 q14 0 20 -13 l84 -190 q8 -19 26 -30.5 q18 -11.5 38 -11.5 q17 0 26 14 q9 14 2 30 l-103 231 Z" /><glyph glyph-name="l" unicode="l" d="M68 42.5 q12 -12.5 29 -12.5 q17 0 29 12.5 q12 12.5 12 29.5 l0 579 q0 17 -12 29.5 q-12 12.5 -29 12.5 q-17 0 -29 -12.5 q-12 -12.5 -12 -29.5 l0 -579 q0 -17 12 -29.5 Z" /><glyph glyph-name="m" unicode="m" d="M591 70 l0 364 q0 38 -26.5 64 q-26.5 26 -63.5 26 l-377 0 q-28 0 -47.5 -20 q-19.5 -20 -19.5 -48 l0 -386 q0 -16 11.5 -28 q11.5 -12 26.5 -12 q17 0 28.5 12 q11.5 12 11.5 28 l0 362 q0 5 4 9.5 q4 4.5 10 4.5 l121 0 q5 0 9 -4.5 q4 -4.5 4 -9.5 l0 -349 q0 -16 11.5 -27.5 q11.5 -11.5 27.5 -11.5 q16 0 27.5 11.5 q11.5 11.5 11.5 27.5 l0 349 q0 14 13 14 l125 0 q5 0 9 -4.5 q4 -4.5 4 -9.5 l0 -362 q0 -16 12 -27 q12 -11 28 -13 q16 -1 27.5 11 q11.5 12 11.5 29 Z" /><glyph glyph-name="n" unicode="n" d="M337.5 42 q11.5 -12 27.5 -12 q16 0 27.5 11.5 q11.5 11.5 11.5 28.5 l0 364 q0 38 -26 64 q-26 26 -64 26 l-189 0 q-29 0 -48.5 -20 q-19.5 -20 -19.5 -48 l0 -388 q0 -16 11 -27 q11 -11 27 -11 q16 0 27.5 11 q11.5 11 11.5 27 l0 364 q0 5 4 9.5 q4 4.5 9 4.5 l165 0 q6 0 10 -4.5 q4 -4.5 4 -9.5 l0 -362 q0 -16 11.5 -28 Z" /><glyph glyph-name="o" unicode="o" d="M314 30 q37 0 63.5 26.5 q26.5 26.5 26.5 64.5 l0 335 q0 26 -17.5 41 q-17.5 15 -49.5 27 l-212 0 q-29 0 -48.5 -20 q-19.5 -20 -19.5 -48 l0 -357 q0 -29 20 -49 q20 -20 48 -20 l189 0 ZM134 432 q0 5 4 9.5 q4 4.5 9 4.5 l165 0 q6 0 10 -4.5 q4 -4.5 4 -9.5 l0 -309 q0 -13 -14 -13 l-165 0 q-13 0 -13 13 l0 309 Z" /><glyph glyph-name="p" unicode="p" d="M305 32 q37 0 64 27 q27 27 27 64 l0 335 q0 28 -20 48 q-20 20 -49 20 l-202 0 q-29 0 -48.5 -20 q-19.5 -20 -19.5 -48 l0 -562 q0 -17 12 -29.5 q12 -12.5 29 -12.5 q18 0 30 12.5 q12 12.5 12 29.5 l0 122 q0 14 14 14 l151 0 ZM140 436 q0 14 14 14 l147 0 q13 0 13 -14 l0 -315 q0 -14 -13 -14 l-147 0 q-14 0 -14 14 l0 315 Z" /><glyph glyph-name="q" unicode="q" d="M57 122 q0 -38 26.5 -64.5 q26.5 -26.5 63.5 -26.5 l151 0 q14 0 14 -13 l0 -122 q0 -17 12.5 -29.5 q12.5 -12.5 29.5 -12.5 q17 0 29.5 12.5 q12.5 12.5 12.5 29.5 l0 562 q0 28 -20 47.5 q-20 19.5 -49 19.5 l-202 0 q-29 0 -48.5 -19.5 q-19.5 -19.5 -19.5 -47.5 l0 -336 ZM152 107 q-14 0 -14 13 l0 316 q0 13 14 13 l146 0 q14 0 14 -13 l0 -316 q0 -13 -14 -13 l-146 0 Z" /><glyph glyph-name="r" unicode="r" d="M56 72 q0 -17 12 -29.5 q12 -12.5 30 -12.5 q17 0 29 12.5 q12 12.5 12 29.5 l0 362 q0 14 13 14 l128 0 q16 0 27 11 q11 11 11 27 q0 15 -11 26.5 q-11 11.5 -27 11.5 l-157 0 q-28 0 -47.5 -20 q-19.5 -20 -19.5 -48 l0 -384 Z" /><glyph glyph-name="s" unicode="s" d="M95 30 l217 0 q38 0 64.5 27 q26.5 27 26.5 64 l0 164 q0 28 -20 48 q-20 20 -49 20 l-175 0 q-13 0 -13 14 l0 67 q0 14 13 14 l207 0 q16 0 27 11 q11 11 11 27 q0 15 -11 26.5 q-11 11.5 -27 11.5 l-236 0 q-28 0 -48 -20 q-20 -20 -20 -48 l0 -121 q0 -29 20 -49 q20 -20 48 -20 l175 0 q14 0 14 -12 l0 -133 q0 -14 -14 -14 l-210 0 q-16 0 -27 -11 q-11 -11 -11 -27 q0 -17 11 -28 q11 -11 27 -11 Z" /><glyph glyph-name="t" unicode="t" d="M71 440 l0 -319 q0 -38 26.5 -64.5 q26.5 -26.5 63.5 -26.5 l75 0 q14 0 25 11 q11 11 11 27 q0 15 -11 26 q-11 11 -25 11 l-68 0 q-14 0 -14 14 l0 315 q0 14 14 14 l52 0 q15 0 26.5 11 q11.5 11 11.5 27 q0 15 -11.5 26.5 q-11.5 11.5 -26.5 11.5 l-52 0 q-14 0 -14 14 l0 113 q0 17 -12.5 29.5 q-12.5 12.5 -29.5 12.5 q-17 0 -29 -12.5 q-12 -12.5 -12 -29.5 l0 -119 q0 -8 -8 -8 l-6 0 q-16 0 -27 -11.5 q-11 -11.5 -11 -26.5 q0 -16 11 -27 q11 -11 27 -11 l6 0 q8 0 8 -8 Z" /><glyph glyph-name="u" unicode="u" d="M124 30 l189 0 q37 0 63.5 26.5 q26.5 26.5 26.5 64.5 l0 364 q0 16 -11 27.5 q-11 11.5 -27 11.5 q-16 0 -28 -11.5 q-12 -11.5 -12 -27.5 l0 -362 q0 -13 -14 -13 l-165 0 q-13 0 -13 13 l0 363 q0 16 -11.5 27 q-11.5 11 -27.5 11 q-16 0 -26.5 -11 q-10.5 -11 -10.5 -27 l0 -387 q0 -29 19.5 -49 q19.5 -20 47.5 -20 Z" /><glyph glyph-name="v" unicode="v" d="M375 484 q5 15 -4 27.5 q-9 12.5 -25 12.5 q-18 0 -33 -10.5 q-15 -10.5 -21 -27.5 l-101 -305 q-1 -3 -3 -3 q-2 0 -3 3 l-101 307 q-5 16 -19 26 q-14 10 -31 10 q-14 0 -23 -12 q-9 -12 -5 -26 l138 -424 q5 -14 17.5 -23 q12.5 -9 27.5 -9 q16 0 28.5 9 q12.5 9 17.5 23 l140 422 Z" /><glyph glyph-name="w" unicode="w" d="M95 524 q-15 -2 -26.5 -13 q-11.5 -11 -11.5 -26 l0 -364 q0 -38 26 -64.5 q26 -26.5 63 -26.5 l377 0 q28 0 48 20 q20 20 20 49 l0 386 q0 16 -11.5 27.5 q-11.5 11.5 -27.5 11.5 q-16 0 -28 -11.5 q-12 -11.5 -12 -27.5 l0 -362 q0 -13 -13 -13 l-125 0 q-14 0 -14 13 l0 348 q0 16 -11 26.5 q-11 10.5 -27 10.5 q-17 0 -28 -10.5 q-11 -10.5 -11 -26.5 l0 -348 q0 -13 -14 -13 l-120 0 q-14 0 -14 13 l0 362 q0 16 -12 27.5 q-12 11.5 -28 11.5 Z" /><glyph glyph-name="x" unicode="x" d="M34 34 q19 0 36 11 q17 11 24 28 l90 193 q4 12 18 12 q12 0 18 -12 l86 -194 q8 -17 23.5 -27.5 q15.5 -10.5 33.5 -10.5 q15 0 23.5 13 q8.5 13 2.5 27 l-104 234 q-7 13 1 27 l70 149 q7 14 -1.5 27 q-8.5 13 -22.5 13 q-43 0 -62 -38 l-57 -120 q-6 -10 -15 -10 q-12 0 -16 10 l-61 121 q-19 37 -61 37 q-14 0 -22 -13 q-8 -13 -2 -26 l78 -154 q7 -14 0 -26 l-106 -230 q-6 -14 2.5 -27.5 q8.5 -13.5 23.5 -13.5 Z" /><glyph glyph-name="y" unicode="y" d="M97 -149 q-16 0 -27 11.5 q-11 11.5 -11 27.5 q0 16 11.5 27 q11.5 11 26.5 11 l201 0 q13 0 13 13 l0 94 q0 14 -13 14 l-173 0 q-29 0 -48.5 19.5 q-19.5 19.5 -19.5 48.5 l0 367 q0 16 12 28 q12 12 28 12 q17 0 29 -12 q12 -12 12 -28 l0 -347 q0 -13 14 -13 l146 0 q13 0 13 13 l0 346 q0 16 13 28.5 q13 12.5 30 12.5 q17 0 29.5 -12 q12.5 -12 12.5 -29 l0 -542 q0 -37 -27 -63.5 q-27 -26.5 -64 -26.5 l-208 0 Z" /><glyph glyph-name="z" unicode="z" d="M57 162 q-27 -38 -27 -84 q0 -20 13.5 -34 q13.5 -14 33.5 -14 l260 0 q15 0 26.5 11.5 q11.5 11.5 11.5 27.5 q0 16 -11.5 27 q-11.5 11 -26.5 11 l-205 0 q-4 0 -5.5 3 q-1.5 3 1.5 7 l216 284 q25 34 25 79 q0 18 -12.5 31 q-12.5 13 -31.5 13 l-259 0 q-16 0 -27 -11 q-11 -11 -11 -27 q0 -16 11 -27 q11 -11 27 -11 l196 0 q4 0 5.5 -3.5 q1.5 -3.5 -1.5 -6.5 l-209 -276 Z" /><glyph glyph-name="braceleft" unicode="{" d="M266 -17 l0 5 q0 17 -12 29.5 q-12 12.5 -28 12.5 q-7 0 -7 7 l-24 179 q-13 79 -40 131 l-11 18 q-8 15 0 30 l11 18 q28 54 40 131 l24 179 q0 7 7 7 q16 0 28 12.5 q12 12.5 12 29.5 l0 5 q0 20 -14 34.5 q-14 14.5 -33 14.5 l-9 0 q-23 0 -41.5 -16 q-18.5 -16 -22.5 -39 l-31 -245 q-1 -12 -11 -32 l-28 -51 q-31 -63 0 -126 l28 -51 q10 -20 11 -32 l31 -245 q4 -23 22.5 -39 q18.5 -16 41.5 -16 l9 0 q19 0 33 14.5 q14 14.5 14 34.5 Z" /><glyph glyph-name="bar" unicode="|" d="M174 458 l0 291 q0 14 -10.5 24 q-10.5 10 -24.5 10 q-14 0 -24.5 -10 q-10.5 -10 -10.5 -24 l0 -291 q0 -14 10.5 -24.5 q10.5 -10.5 24.5 -10.5 q14 0 24.5 10.5 q10.5 10.5 10.5 24.5 ZM174 11 l0 291 q0 14 -10.5 24 q-10.5 10 -24.5 10 q-14 0 -24.5 -10 q-10.5 -10 -10.5 -24 l0 -291 q0 -14 10.5 -24 q10.5 -10 24.5 -10 q14 0 24.5 10 q10.5 10 10.5 24 Z" /><glyph glyph-name="braceright" unicode="}" d="M57 758 l0 -5 q0 -16 12 -28 q12 -12 27 -12 q6 0 6 -6 l23 -171 q10 -72 39 -125 l9 -17 q8 -14 0 -28 l-9 -17 q-29 -53 -39 -125 l-23 -171 q0 -6 -6 -6 q-15 0 -27 -12 q-12 -12 -12 -28 l0 -5 q0 -20 13 -33.5 q13 -13.5 32 -13.5 l9 0 q22 0 40 15.5 q18 15.5 21 38.5 l29 232 q1 12 11 30 l26 49 q29 60 0 120 l-26 49 q-10 18 -11 30 l-29 232 q-3 23 -21 38.5 q-18 15.5 -40 15.5 l-9 0 q-19 0 -32 -13.5 q-13 -13.5 -13 -33.5 Z" /><glyph glyph-name="asciitilde" unicode="~" d="M318.5 684.5 q-8.5 8.5 -19.5 8.5 q-11 0 -19.5 -7.5 q-8.5 -7.5 -10.5 -17.5 q-6 -22 -22 -22 q-11 0 -45 19 q-48 24 -70 24 q-30 0 -50 -24 q-20 -24 -24 -66 q-1 -11 7.5 -19.5 q8.5 -8.5 19.5 -8.5 q25 0 33 26 q6 24 19 24 q9 0 47 -21 q40 -22 68 -22 q68 0 74 87 q1 11 -7.5 19.5 Z" /><glyph glyph-name="backslash" unicode="\" d="M64 738 q-16 0 -24 -13.5 q-8 -13.5 -2 -27.5 l286 -635 q18 -40 62 -40 q16 0 24 13 q8 13 2 27 l-286 635 q-18 41 -62 41 Z" /><glyph glyph-name="copyright" unicode="©" d="M661 57 l75 75 q47 47 47 114 l0 266 q0 67 -47 114 l-75 76 q-47 47 -114 47 l-267 0 q-66 0 -113 -47 l-75 -76 q-47 -47 -47 -114 l0 -266 q0 -67 47 -114 l74 -75 q49 -47 114 -47 l267 0 q67 0 114 47 ZM228 83 l-110 111 q-11 11 -11 27 l0 316 q0 16 11 27 l111 112 q11 11 26 11 l317 0 q15 0 26 -11 l113 -112 q11 -11 11 -27 l0 -316 q0 -15 -12 -27 l-112 -111 q-11 -11 -26 -11 l-317 0 q-14 0 -27 11 ZM510 155 q46 0 77 29 q33 31 33 79 l0 20 q0 15 -10.5 26 q-10.5 11 -26.5 11 q-16 0 -26.5 -11 q-10.5 -11 -10.5 -26 l0 -20 q0 -34 -36 -34 l-197 0 q-29 0 -29 36 l0 231 q0 35 29 35 l197 0 q36 0 36 -33 l0 -16 q0 -15 10.5 -26 q10.5 -11 26.5 -11 q16 0 26.5 11 q10.5 11 10.5 26 l0 16 q0 48 -33 79 q-32 29 -77 29 l-197 0 q-46 0 -75 -31 q-29 -29 -29 -79 l0 -231 q0 -51 29 -80 q30 -30 75 -30 l197 0 Z" /><glyph glyph-name="Japan1.331" unicode="&#xff65;" d="M57 419 q0 -15 10.5 -25.5 q10.5 -10.5 26.5 -10.5 q16 0 26.5 10.5 q10.5 10.5 10.5 25.5 q0 16 -10.5 26.5 q-10.5 10.5 -26.5 10.5 q-16 0 -26.5 -10.5 q-10.5 -10.5 -10.5 -26.5 ZM57 342 q0 -15 10.5 -25.5 q10.5 -10.5 26.5 -10.5 q16 0 26.5 10.5 q10.5 10.5 10.5 25.5 q0 16 -10.5 26.5 q-10.5 10.5 -26.5 10.5 q-16 0 -26.5 -10.5 q-10.5 -10.5 -10.5 -26.5 ZM135 419 q0 -15 10.5 -25.5 q10.5 -10.5 26.5 -10.5 q16 0 26.5 10.5 q10.5 10.5 10.5 25.5 q0 16 -10.5 26.5 q-10.5 10.5 -26.5 10.5 q-16 0 -26.5 -10.5 q-10.5 -10.5 -10.5 -26.5 ZM135 342 q0 -15 10.5 -25.5 q10.5 -10.5 26.5 -10.5 q16 0 26.5 10.5 q10.5 10.5 10.5 25.5 q0 16 -10.5 26.5 q-10.5 10.5 -26.5 10.5 q-16 0 -26.5 -10.5 q-10.5 -10.5 -10.5 -26.5 Z" /><glyph glyph-name="Japan1.634" unicode="&#x3001;" d="M319 12 l-73 79 q-46 48 -112 48 l-15 0 q-19 0 -27 -17.5 q-8 -17.5 5 -30.5 l74 -79 q44 -49 112 -49 l14 0 q19 0 27 17.5 q8 17.5 -5 31.5 Z" /><glyph glyph-name="Japan1.635" unicode="&#x3002;" d="M108 -18.5 q38 -37.5 91 -37.5 q53 0 91 37.5 q38 37.5 38 90.5 q0 53 -38 90 q-38 37 -91 37 q-53 0 -91 -37 q-38 -37 -38 -90 q0 -53 38 -90.5 ZM199 122 q21 0 36 -14.5 q15 -14.5 15 -35.5 q0 -20 -15.5 -34.5 q-15.5 -14.5 -35.5 -14.5 q-20 0 -35 14.5 q-15 14.5 -15 34.5 q0 21 15 35.5 q15 14.5 35 14.5 Z" /><glyph glyph-name="Japan1.636" unicode="&#xff0c;" d="M209 21 l0 52 q0 28 -19.5 47.5 q-19.5 19.5 -47.5 19.5 l-21 0 q-23 0 -39.5 -16.5 q-16.5 -16.5 -16.5 -39.5 l0 -10 q0 -19 13 -32 q13 -13 32 -13 q11 0 11 -11 q0 -12 -7 -20 l-39 -48 q-11 -13 -3.5 -28.5 q7.5 -15.5 24.5 -15.5 l12 0 q44 0 73 35 q28 34 28 80 Z" /><glyph glyph-name="Japan1.638" unicode="&#x30fb;" d="M414 424 q0 -17 12.5 -29.5 q12.5 -12.5 30.5 -12.5 q17 0 29.5 12.5 q12.5 12.5 12.5 29.5 q0 18 -12.5 30.5 q-12.5 12.5 -29.5 12.5 q-18 0 -30.5 -12.5 q-12.5 -12.5 -12.5 -30.5 ZM414 336 q0 -18 12.5 -30.5 q12.5 -12.5 30.5 -12.5 q17 0 29.5 12.5 q12.5 12.5 12.5 30.5 q0 17 -12.5 29.5 q-12.5 12.5 -29.5 12.5 q-18 0 -30.5 -12.5 q-12.5 -12.5 -12.5 -29.5 ZM503 424 q0 -17 12.5 -29.5 q12.5 -12.5 30.5 -12.5 q17 0 29.5 12.5 q12.5 12.5 12.5 29.5 q0 18 -12.5 30.5 q-12.5 12.5 -29.5 12.5 q-18 0 -30.5 -12.5 q-12.5 -12.5 -12.5 -30.5 ZM503 336 q0 -18 12.5 -30.5 q12.5 -12.5 30.5 -12.5 q17 0 29.5 12.5 q12.5 12.5 12.5 30.5 q0 17 -12.5 29.5 q-12.5 12.5 -29.5 12.5 q-18 0 -30.5 -12.5 q-12.5 -12.5 -12.5 -29.5 Z" /><glyph glyph-name="Japan1.639" unicode="&#xff1a;" d="M565 566 q0 24 -17 41 q-17 17 -41 17 l-14 0 q-24 0 -41 -17 q-17 -17 -17 -41 q0 -23 17 -40 q17 -17 41 -17 l14 0 q24 0 41 17 q17 17 17 40 ZM548 161 q17 17 17 41 q0 24 -17 41 q-17 17 -41 17 l-14 0 q-24 0 -41 -17 q-17 -17 -17 -41 q0 -24 17 -41 q17 -17 41 -17 l14 0 q24 0 41 17 Z" /><glyph glyph-name="Japan1.640" unicode="&#xff1b;" d="M566 562 q0 24 -17 41 q-17 17 -40 17 l-16 0 q-23 0 -40 -17 q-17 -17 -17 -41 q0 -23 17 -40 q17 -17 40 -17 l16 0 q23 0 40 17 q17 17 17 40 ZM501 268 l-18 0 q-19 0 -33 -14 q-14 -14 -14 -33 l0 -10 q0 -15 11 -26 q11 -11 26 -11 l6 0 q3 0 3 -4 q0 -4 -3 -5 l-6 -5 q-37 -29 -37 -75 l0 -13 q0 -17 16 -24.5 q16 -7.5 30 3.5 l32 27 q52 41 52 109 l0 16 q0 27 -19 46 q-19 19 -46 19 Z" /><glyph glyph-name="Japan1.641" unicode="&#xff1f;" d="M743 759 l-498 0 q-16 0 -28 -12.5 q-12 -12.5 -12 -29.5 l0 -107 q0 -16 12 -28.5 q12 -12.5 28 -12.5 q17 0 29 12.5 q12 12.5 12 28.5 l0 52 q0 15 14 15 l388 0 q15 0 15 -15 l0 -79 q0 -13 -13 -23 l-245 -177 q-17 -12 -17 -33 l0 -122 q0 -16 12 -28.5 q12 -12.5 29 -12.5 q16 0 28 12.5 q12 12.5 12 28.5 l0 86 q0 14 13 24 l245 177 q16 11 16 33 l0 169 q0 17 -12 29.5 q-12 12.5 -28 12.5 ZM519.5 93.5 q-20.5 20.5 -48.5 20.5 q-28 0 -48 -20.5 q-20 -20.5 -20 -48.5 q0 -28 20 -47.5 q20 -19.5 48 -19.5 q28 0 48.5 19.5 q20.5 19.5 20.5 47.5 q0 28 -20.5 48.5 Z" /><glyph glyph-name="Japan1.642" unicode="&#xff01;" d="M750 722 q-14 10 -31 7 q-17 -3 -27 -17 l-313 -439 q-10 -14 -7 -31 q3 -17 16 -27 q14 -10 30.5 -7.5 q16.5 2.5 26.5 16.5 l313 441 q10 14 7.5 31 q-2.5 17 -15.5 26 ZM337.5 121.5 q-17.5 17.5 -42.5 17.5 q-25 0 -42.5 -17.5 q-17.5 -17.5 -17.5 -41.5 q0 -25 17.5 -43 q17.5 -18 42.5 -18 q25 0 42.5 18 q17.5 18 17.5 43 q0 24 -17.5 41.5 Z" /><glyph glyph-name="Japan1.657" unicode="&#x3005;" d="M410 677 q-2 -6 -12.5 -38.5 q-10.5 -32.5 -19.5 -57 q-9 -24.5 -25 -60.5 q-16 -36 -34 -64 q-32 -51 -131 -167 q-2 -2 -9.5 -10 q-7.5 -8 -10.5 -13 q-3 -5 -4 -10 q-4 -21 14 -38 q9 -10 26.5 -9.5 q17.5 0.5 26.5 13.5 q6 6 31 35.5 q25 29.5 62.5 77 q37.5 47.5 58.5 81.5 q2 3 7 9.5 q5 6.5 7 9.5 q8 22 37 24 l252 6 q20 2 24 -14 q4 -7 0 -17.5 q-4 -10.5 -10 -16.5 q-36 -43 -162 -144 q-22 -12 -44 0 q-10 8 -21 16 q-11 8 -22.5 15.5 q-11.5 7.5 -15.5 10.5 q-3 2 -10 7.5 q-7 5.5 -12.5 8.5 q-5.5 3 -11.5 3 q-22 1 -37 -19 q-9 -13 -5.5 -28.5 q3.5 -15.5 15.5 -24.5 q5 -2 41 -26.5 q36 -24.5 90.5 -70.5 q54.5 -46 85.5 -87 q8 -11 24 -14.5 q16 -3.5 29 6.5 q32 26 7 56 q-25 35 -54 62 q-6 9 -5.5 20.5 q0.5 11.5 7.5 16.5 q129 102 165 143 q25 27 30 60.5 q5 33.5 -11 61.5 q-14 26 -42 41 q-28 15 -58 14 l-210 -5 q-10 -1 -15 7.5 q-5 8.5 -3 16.5 q22 55 30 86 q6 15 -1.5 29.5 q-7.5 14.5 -22.5 20.5 q-16 4 -30.5 -2.5 q-14.5 -6.5 -20.5 -21.5 Z" /><glyph glyph-name="Japan1.659" unicode="&#x3007;" d="M661 23 l63 37 q56 31 91 90 l37 63 q33 59 33 126 l0 70 q0 67 -33 126 l-37 64 q-34 56 -90 90 l-64 37 q-58 33 -126 33 l-70 0 q-67 0 -126 -33 l-64 -37 q-59 -35 -90 -90 l-37 -64 q-33 -59 -33 -126 l0 -70 q0 -68 33 -126 l37 -62 q32 -58 90 -91 l64 -37 q59 -33 126 -33 l70 0 q67 0 126 33 ZM401 66 l-120 68 q-12 8 -21 20 l-69 123 q-8 11 -8 28 l0 139 q0 17 8 28 l69 122 q8 12 20 21 l121 68 q14 8 29 8 l140 0 q16 0 29 -8 l120 -68 q13 -8 21 -22 l69 -121 q8 -11 8 -28 l0 -139 q0 -16 -8 -29 l-69 -121 q-8 -12 -20 -21 l-122 -68 q-11 -8 -28 -8 l-140 0 q-15 0 -29 8 Z" /><glyph glyph-name="Japan1.660" unicode="&#x30fc;" d="M249 424 q-10 12 -24.5 11 q-14.5 -1 -25.5 -12 q-10 -9 -12 -24 q-2 -15 10 -34 q23 -24 59 -31.5 q36 -7.5 107 -1.5 q70 6 204 6.5 q134 0.5 194 -2.5 q24 -1 34 12.5 q10 13.5 10 29.5 q0 39 -49 45 q-27 4 -165.5 -1 q-138.5 -5 -231.5 -12 q-71 -4 -86 -2 q-15 2 -24 16 Z" /><glyph glyph-name="Japan1.661" unicode="&#x2015;" d="M959.5 352 q11.5 12 11.5 28 q0 16 -11.5 27.5 q-11.5 11.5 -27.5 11.5 l-863 0 q-16 0 -28 -11.5 q-12 -11.5 -12 -27.5 q0 -16 12 -28 q12 -12 28 -12 l863 0 q16 0 27.5 12 Z" /><glyph glyph-name="Japan1.663" unicode="&#xff0f;" d="M737 695 l-589 -631 q-11 -12 -4 -28 q7 -16 23 -16 q59 0 96 42 l589 631 q11 12 4 28 q-7 16 -23 16 q-59 0 -96 -42 Z" /><glyph glyph-name="ellipsis" unicode="&#x2026;" d="M257 397 l-39 41 q-18 13 -35 0 l-41 -41 q-12 -17 0 -34 l41 -41 q18 -13 35 0 l39 41 q12 17 0 34 ZM558 397 l-41 41 q-18 13 -35 0 l-41 -41 q-12 -17 0 -34 l41 -41 q17 -13 35 0 l41 41 q12 17 0 34 ZM858 397 l-41 41 q-17 12 -34 0 l-40 -41 q-12 -17 0 -34 l40 -41 q17 -12 34 0 l41 41 q12 17 0 34 Z" /><glyph glyph-name="quoteleft" unicode="&#x2018;" d="M832 714 l0 -71 q0 -26 18 -44 q18 -18 44 -18 l3 0 q24 0 41.5 17 q17.5 17 17.5 42 l0 22 q0 16 -11 26.5 q-11 10.5 -26 10.5 q-8 0 -8 9 l0 23 q0 9 7 14 q32 21 32 59 l0 9 q0 15 -13.5 22 q-13.5 7 -25.5 -1 l-24 -16 q-55 -37 -55 -104 Z" /><glyph glyph-name="quoteright" unicode="&#x2019;" d="M168 721 l0 72 q0 26 -18 44 q-18 18 -44 18 l-3 0 q-24 0 -41.5 -17 q-17.5 -17 -17.5 -42 l0 -23 q0 -15 11 -25.5 q11 -10.5 26 -10.5 q8 0 8 -9 l0 -23 q0 -10 -7 -14 q-32 -22 -32 -61 l0 -8 q0 -15 13.5 -21.5 q13.5 -6.5 25.5 1.5 l24 15 q55 37 55 104 Z" /><glyph glyph-name="quotedblleft" unicode="&#x201c;" d="M664 714 l0 -72 q0 -25 18 -43 q18 -18 43 -18 l3 0 q24 0 41.5 17 q17.5 17 17.5 42 l0 22 q0 16 -11 26.5 q-11 10.5 -26 10.5 q-8 0 -8 9 l0 23 q0 9 7 14 q33 20 33 60 l0 8 q0 15 -13.5 22 q-13.5 7 -25.5 -1 l-24 -16 q-55 -37 -55 -104 ZM832 714 l0 -71 q0 -26 18 -44 q18 -18 44 -18 l3 0 q24 0 41.5 17 q17.5 17 17.5 42 l0 22 q0 16 -11 26.5 q-11 10.5 -26 10.5 q-8 0 -8 9 l0 23 q0 9 7 14 q32 21 32 59 l0 9 q0 15 -13.5 22 q-13.5 7 -25.5 -1 l-24 -16 q-55 -37 -55 -104 Z" /><glyph glyph-name="quotedblright" unicode="&#x201d;" d="M168 721 l0 72 q0 26 -18 44 q-18 18 -44 18 l-3 0 q-24 0 -41.5 -17 q-17.5 -17 -17.5 -42 l0 -23 q0 -15 11 -25.5 q11 -10.5 26 -10.5 q8 0 8 -9 l0 -23 q0 -10 -7 -14 q-32 -22 -32 -61 l0 -8 q0 -15 13.5 -21.5 q13.5 -6.5 25.5 1.5 l24 15 q55 37 55 104 ZM336 721 l0 73 q0 25 -18 43 q-18 18 -43 18 l-3 0 q-24 0 -41.5 -17 q-17.5 -17 -17.5 -42 l0 -23 q0 -15 11 -25.5 q11 -10.5 26 -10.5 q8 0 8 -9 l0 -23 q0 -10 -7 -14 q-33 -23 -33 -61 l0 -8 q0 -15 13 -21.5 q13 -6.5 26 1.5 l24 15 q55 37 55 104 Z" /><glyph glyph-name="Japan1.674" unicode="&#xff08;" d="M848 650 l85 106 q10 11 3.5 24.5 q-6.5 13.5 -21.5 13.5 q-51 0 -85 -42 l-18 -23 q-42 -55 -67 -121 l-10 -28 q-21 -73 -21 -137 l0 -126 q0 -64 21 -137 l10 -28 q24 -65 67 -122 l18 -23 q34 -42 85 -42 q15 0 21.5 13.5 q6.5 13.5 -3.5 24.5 l-85 107 q-11 18 -15 33 l-32 104 q-5 17 -5 32 l0 201 q0 15 5 32 l32 105 q5 18 15 33 Z" /><glyph glyph-name="Japan1.675" unicode="&#xff09;" d="M167 617 l32 -105 q5 -12 5 -32 l0 -201 q0 -19 -5 -32 l-31 -104 q-9 -25 -16 -33 l-85 -107 q-10 -11 -3 -24.5 q7 -13.5 22 -13.5 q51 0 85 42 l18 23 q46 61 66 122 l10 28 q21 71 21 137 l0 126 q0 64 -21 138 l-10 26 q-20 63 -66 122 l-18 23 q-34 42 -85 42 q-15 0 -22 -13.5 q-7 -13.5 3 -24.5 l85 -106 q9 -10 15 -33 Z" /><glyph glyph-name="Japan1.678" unicode="&#xff3b;" d="M939 -12 q0 19 -12 31.5 q-12 12.5 -30 12.5 l-66 0 q-19 0 -30 11 l-24 24 q-12 12 -12 30 l0 565 q0 19 12 31 l24 24 q11 11 30 11 l66 0 q18 0 30 12 q12 12 12 31 q0 19 -12 31 q-12 12 -30 12 l-48 0 q-67 0 -120 -50 l-1 -1 q-50 -48 -50 -117 l0 -532 q0 -69 50 -117 l1 -1 q53 -50 120 -50 l48 0 q18 0 30 12 q12 12 12 30 Z" /><glyph glyph-name="Japan1.679" unicode="&#xff3d;" d="M73 802 q-12 -12 -12 -31 q0 -19 12 -31 q12 -12 30 -12 l66 0 q19 0 30 -11 l25 -24 q11 -13 11 -31 l0 -565 q0 -17 -11 -30 l-25 -24 q-11 -11 -30 -11 l-66 0 q-18 0 -30 -12.5 q-12 -12.5 -12 -31.5 q0 -18 12 -30 q12 -12 30 -12 l49 0 q66 0 120 48 l0 1 q50 52 50 119 l0 532 q0 67 -50 119 l0 1 q-54 48 -120 48 l-49 0 q-18 0 -30 -12 Z" /><glyph glyph-name="Japan1.682" unicode="&#x3008;" d="M912 731 q-48 0 -76 -43 l-143 -249 q-17 -27 -17 -59 q0 -32 17 -61 l143 -246 q28 -44 76 -44 q16 0 24 14.5 q8 14.5 0 28.5 l-167 293 q-6 15 0 30 l167 293 q8 15 0 29 q-8 14 -24 14 Z" /><glyph glyph-name="Japan1.683" unicode="&#x3009;" d="M88 29 q49 0 76 42 l143 250 q17 27 17 59 q0 32 -17 61 l-143 246 q-26 44 -76 44 q-16 0 -24 -14 q-8 -14 0 -29 l167 -293 q6 -15 0 -30 l-167 -295 q-8 -13 0 -27 q8 -14 24 -14 Z" /><glyph glyph-name="Japan1.684" unicode="&#x300a;" d="M755 765 q-46 0 -64 -38 l-142 -284 q-30 -63 0 -126 l142 -284 q18 -38 64 -38 q15 0 22.5 12 q7.5 12 0.5 26 l-164 332 q-8 15 0 30 l164 332 q7 14 -0.5 26 q-7.5 12 -22.5 12 ZM917 765 q-43 0 -63 -39 l-142 -283 q-32 -63 0 -126 l142 -283 q20 -39 63 -39 q14 0 22 12.5 q8 12.5 2 26.5 l-164 331 q-7 15 0 30 l164 331 q6 14 -2 26.5 q-8 12.5 -22 12.5 Z" /><glyph glyph-name="Japan1.685" unicode="&#x300b;" d="M83 -5 q43 0 64 39 l142 283 q30 63 0 126 l-142 283 q-21 39 -64 39 q-14 0 -22 -12.5 q-8 -12.5 -2 -26.5 l164 -331 q7 -15 0 -30 l-164 -331 q-6 -14 2 -26.5 q8 -12.5 22 -12.5 ZM245 -5 q46 0 64 38 l142 284 q30 63 0 126 l-142 284 q-18 38 -64 38 q-15 0 -22.5 -12 q-7.5 -12 -0.5 -26 l164 -332 q8 -15 0 -30 l-164 -332 q-7 -14 0.5 -26 q7.5 -12 22.5 -12 Z" /><glyph glyph-name="Japan1.686" unicode="&#x300c;" d="M711 270 l0 436 q0 20 11 29 l22 22 q15 12 33 12 l122 0 q19 0 30 11.5 q11 11.5 11 29.5 q0 18 -11.5 29.5 q-11.5 11.5 -29.5 11.5 l-107 0 q-66 0 -114 -48 q-47 -47 -47 -114 l0 -419 q0 -18 11.5 -29 q11.5 -11 28.5 -11 q17 0 28.5 11 q11.5 11 11.5 29 Z" /><glyph glyph-name="Japan1.687" unicode="&#x300d;" d="M289 490 l0 -436 q0 -19 -12 -29 l-21 -22 q-14 -12 -32 -12 l-123 0 q-18 0 -29.5 -11.5 q-11.5 -11.5 -11.5 -29.5 q0 -17 11.5 -29 q11.5 -12 29.5 -12 l107 0 q66 0 114 48 q47 49 47 113 l0 420 q0 18 -11 29 q-11 11 -29 11 q-18 0 -29 -11 q-11 -11 -11 -29 Z" /><glyph glyph-name="Japan1.688" unicode="&#x300e;" d="M648 802 l-12 -12 q-49 -47 -49 -118 l0 -425 q0 -29 19.5 -48 q19.5 -19 48.5 -19 l42 0 q29 0 49 19 q20 19 20 48 l0 409 q0 7 6 12.5 q6 5.5 13 5.5 l89 0 q29 0 48.5 19.5 q19.5 19.5 19.5 48.5 l0 42 q0 29 -19.5 48.5 q-19.5 19.5 -48.5 19.5 l-107 0 q-69 0 -119 -50 ZM885 713 l-109 0 q-22 0 -36 -15 q-15 -14 -15 -33 l0 -428 q0 -7 -5.5 -12.5 q-5.5 -5.5 -12.5 -5.5 l-62 0 q-7 0 -12.5 5.5 q-5.5 5.5 -5.5 12.5 l0 471 q0 19 11 30 l61 61 q10 13 30 13 l156 0 q6 0 11.5 -6 q5.5 -6 5.5 -13 l0 -62 q0 -7 -5.5 -12.5 q-5.5 -5.5 -11.5 -5.5 Z" /><glyph glyph-name="Japan1.689" unicode="&#x300f;" d="M353 -42 l11 12 q50 48 50 118 l0 425 q0 29 -20 48 q-20 19 -49 19 l-42 0 q-29 0 -49 -19 q-20 -19 -20 -48 l0 -409 q0 -7 -6 -12.5 q-6 -5.5 -13 -5.5 l-89 0 q-29 0 -48 -19.5 q-19 -19.5 -19 -48.5 l0 -42 q0 -29 19 -48.5 q19 -19.5 48 -19.5 l107 0 q68 0 120 50 ZM115 47 l110 0 q22 0 34 14 q15 15 15 34 l0 428 q0 7 5.5 12.5 q5.5 5.5 12.5 5.5 l63 0 q7 0 12.5 -5.5 q5.5 -5.5 5.5 -12.5 l0 -472 q0 -19 -11 -30 l-61 -61 q-11 -12 -30 -12 l-156 0 q-6 0 -11.5 6 q-5.5 6 -5.5 13 l0 62 q0 6 5.5 12 q5.5 6 11.5 6 Z" /><glyph glyph-name="Japan1.690" unicode="&#x3010;" d="M947 761 l0 29 q0 20 -12.5 33 q-12.5 13 -31.5 13 l-64 0 q-76 0 -126 -53 l-1 -1 q-54 -51 -54 -123 l0 -558 q0 -72 54 -123 l1 -1 q50 -53 126 -53 l64 0 q19 0 31.5 12.5 q12.5 12.5 12.5 31.5 l0 31 q0 16 -16 16 q-7 0 -8 3 l-37 34 q-13 15 -13 31 l0 593 q0 17 13 32 l37 34 q1 3 8 3 q16 0 16 16 Z" /><glyph glyph-name="Japan1.691" unicode="&#x3011;" d="M53 -1 l0 -31 q0 -19 13 -31.5 q13 -12.5 32 -12.5 l63 0 q76 0 126 53 l1 1 q54 49 54 123 l0 558 q0 74 -54 123 l-1 1 q-50 53 -126 53 l-63 0 q-20 0 -32.5 -13 q-12.5 -13 -12.5 -33 l0 -29 q0 -16 16 -16 q7 0 9 -3 l36 -34 q13 -13 13 -32 l0 -593 q0 -18 -13 -31 l-36 -34 q-2 -3 -9 -3 q-16 0 -16 -16 Z" /><glyph glyph-name="Japan1.692" unicode="&#xff0b;" d="M755 422 l-199 0 q-13 0 -13 13 l0 206 q0 17 -13 29.5 q-13 12.5 -30 12.5 q-16 0 -29 -12.5 q-13 -12.5 -13 -29.5 l0 -206 q0 -13 -13 -13 l-200 0 q-17 0 -29.5 -13 q-12.5 -13 -12.5 -29 q0 -16 12.5 -29 q12.5 -13 29.5 -13 l200 0 q13 0 13 -14 l0 -205 q0 -17 13 -29.5 q13 -12.5 29 -12.5 q17 0 30 12.5 q13 12.5 13 29.5 l0 205 q0 14 13 14 l199 0 q17 0 29.5 13 q12.5 13 12.5 29 q0 16 -12.5 29 q-12.5 13 -29.5 13 Z" /><glyph glyph-name="minus" unicode="&#x2212;" d="M784.5 351 q12.5 13 12.5 29 q0 16 -12.5 29 q-12.5 13 -29.5 13 l-509 0 q-17 0 -30 -12.5 q-13 -12.5 -13 -29.5 q0 -17 13 -29.5 q13 -12.5 30 -12.5 l509 0 q17 0 29.5 13 Z" /><glyph glyph-name="multiply" unicode="×" d="M651 591 l-142 -142 q-3 -5 -9 -5 q-6 0 -9 5 l-147 148 q-13 11 -30 11 q-17 0 -30 -11 q-12 -13 -12 -30 q0 -17 11 -30 l147 -148 q4 -3 4 -9 q0 -6 -4 -9 l-143 -143 q-11 -13 -11 -30 q0 -17 11 -31 q13 -11 31 -11 q18 0 31 11 l142 143 q3 4 9 4 q6 0 9 -4 l147 -147 q13 -11 30.5 -11 q17.5 0 30.5 11 q11 13 11 30.5 q0 17.5 -12 30.5 l-147 147 q-5 3 -5 9 q0 6 5 9 l143 141 q11 14 11 31 q0 17 -11 30 q-14 12 -31 12 q-17 0 -30 -12 Z" /><glyph glyph-name="Japan1.697" unicode="&#xff1d;" d="M772 512 q0 16 -12.5 29 q-12.5 13 -27.5 13 l-464 0 q-15 0 -28 -13 q-13 -13 -13 -29 q0 -17 13 -30 q13 -13 28 -13 l464 0 q15 0 27.5 13 q12.5 13 12.5 30 ZM772 248 q0 17 -12.5 30 q-12.5 13 -27.5 13 l-464 0 q-15 0 -28 -13 q-13 -13 -13 -30 q0 -16 13 -29 q13 -13 28 -13 l464 0 q15 0 27.5 13 q12.5 13 12.5 29 Z" /><glyph glyph-name="Japan1.699" unicode="&#xff1c;" d="M349 355 l-13 15 q-10 10 0 20 l13 15 q9 12 23 20 l340 197 q17 8 27.5 26 q10.5 18 10.5 38 q0 16 -13.5 23.5 q-13.5 7.5 -25.5 -0.5 l-350 -198 q-56 -30 -92 -80 l-1 0 q-16 -23 -16 -51 q0 -28 16 -50 q38 -49 93 -80 l348 -199 q13 -8 27 -0.5 q14 7.5 14 23.5 q0 45 -38 65 l-341 197 q-15 9 -22 19 Z" /><glyph glyph-name="Japan1.700" unicode="&#xff1e;" d="M619 328 l-342 -196 q-36 -18 -36 -65 q0 -15 12.5 -23 q12.5 -8 24.5 -1 l352 200 q56 33 91 80 q17 23 17 50.5 q0 27.5 -17 50.5 q-41 52 -94 80 l-349 198 q-13 7 -25 -0.5 q-12 -7.5 -12 -23.5 q0 -43 35 -63 l341 -197 q12 -8 23 -20 l12 -15 q4 -4 4 -10 q0 -6 -4 -10 l-12 -15 q-8 -9 -21 -20 Z" /><glyph glyph-name="Japan1.715" unicode="&#xff05;" d="M425 495 l0 213 q0 30 -22 52.5 q-22 22.5 -52 22.5 l-145 0 q-30 0 -52.5 -22.5 q-22.5 -22.5 -22.5 -52.5 l0 -213 q0 -31 22.5 -53 q22.5 -22 52.5 -22 l145 0 q30 0 52 22 q22 22 22 53 ZM683 721 l-486 -686 q-9 -13 -1.5 -28.5 q7.5 -15.5 24.5 -15.5 q48 0 77 40 l486 686 q9 14 1.5 29 q-7.5 15 -24.5 15 q-48 0 -77 -40 ZM210 517 l0 170 q0 18 17 18 l100 0 q17 0 17 -18 l0 -170 q0 -17 -17 -17 l-100 0 q-17 0 -17 17 ZM875 67 l0 214 q0 30 -22.5 52 q-22.5 22 -52.5 22 l-145 0 q-30 0 -52 -22 q-22 -22 -22 -52 l0 -214 q0 -30 22 -52.5 q22 -22.5 52 -22.5 l145 0 q30 0 52.5 22.5 q22.5 22.5 22.5 52.5 ZM662 88 l0 171 q0 17 17 17 l100 0 q18 0 18 -17 l0 -171 q0 -17 -18 -17 l-100 0 q-17 0 -17 17 Z" /><glyph glyph-name="Japan1.717" unicode="&#xff06;" d="M693 193 l-4 -3 q-4 -5 -10.5 -4.5 q-6.5 0.5 -10.5 5.5 l-171 189 q-5 4 -4 10 q1 6 7 10 l163 104 q18 10 18 36 l0 214 q0 17 -12 29 q-12 12 -30 12 l-336 0 q-17 0 -29 -12 q-12 -12 -12 -29 l0 -223 l0 -1 q1 -20 29 -50 l53 -58 q5 -5 4 -11 q-1 -6 -7 -10 l-172 -114 q-20 -7 -20 -36 l0 -220 q0 -17 12.5 -29.5 q12.5 -12.5 29.5 -12.5 l380 0 q16 0 30 11 l58 50 q5 5 12 4.5 q7 -0.5 12 -6.5 l41 -46 q13 -13 31 -13 l90 0 q16 0 28.5 13 q12.5 13 12.5 29 q0 16 -12.5 28.5 q-12.5 12.5 -28.5 12.5 l-54 0 q-15 0 -30 15 l-15 19 q-13 11 2 23 l68 61 q11 10 4.5 27 q-6.5 17 -21.5 17 q-60 0 -106 -41 ZM537 72 l-288 0 q-17 0 -17 18 l0 120 q0 18 16 28 l152 99 q13 10 25 -4 l177 -197 q13 -11 -1 -21 l-33 -30 q-15 -13 -31 -13 ZM346 566 l0 128 q0 18 17 18 l216 0 q18 0 18 -18 l0 -113 q0 -17 -17 -28 l-137 -89 q-12 -11 -25 4 l-59 66 q-13 14 -13 32 Z" /><glyph glyph-name="Japan1.763" unicode="&#x226a;" d="M208 351 l-9 14 q-11 15 0 29 l9 13 q10 16 27 28 l257 188 q38 24 38 74 q0 16 -14 23.5 q-14 7.5 -28 -1.5 l-282 -201 q-50 -36 -81 -86 q-32 -52 0 -105 q33 -52 80 -87 l282 -216 q13 -9 28 -2 q15 7 15 23 q0 52 -39 80 l-257 198 q-17 13 -26 28 ZM507 351 l-10 15 q-11 13 0 28 l9 13 q10 16 27 28 l258 188 q38 24 38 74 q0 16 -14.5 23.5 q-14.5 7.5 -27.5 -1.5 l-282 -201 q-50 -36 -81 -86 q-32 -52 0 -105 q33 -52 80 -87 l282 -216 q14 -9 28.5 -2 q14.5 7 14.5 23 q0 52 -39 80 l-257 198 q-17 13 -26 28 Z" /><glyph glyph-name="Japan1.764" unicode="&#x226b;" d="M463 323 l-257 -198 q-39 -29 -39 -80 q0 -16 14.5 -23 q14.5 -7 28.5 2 l282 216 q46 34 81 87 q32 53 0 105 q-33 51 -82 86 l-281 201 q-14 9 -28.5 1.5 q-14.5 -7.5 -14.5 -23.5 q0 -49 38 -74 l259 -188 q17 -13 26 -28 l9 -13 q13 -15 0 -28 l-10 -15 q-9 -15 -26 -28 ZM762 323 l-257 -198 q-39 -29 -39 -80 q0 -16 15 -23 q15 -7 28 2 l282 216 q47 35 80 87 q32 53 0 105 q-31 50 -81 86 l-282 201 q-14 9 -28 1.5 q-14 -7.5 -14 -23.5 q0 -49 38 -74 l257 -188 q17 -12 27 -28 l9 -13 q13 -14 0 -29 l-9 -14 q-9 -15 -26 -28 Z" /><glyph glyph-name="Japan1.770" unicode="&#x222c;" d="M460 796 l-25 0 q-49 0 -82 -46 q-26 -37 -31 -87 l-36 -563 q-2 -25 -13 -41.5 q-11 -16.5 -21 -16.5 l-7 0 q-19 0 -32 12 l-30 25 q-8 6 -9 15 q-4 17 -17.5 27 q-13.5 10 -30.5 10 l-4 0 q-16 0 -27 -12.5 q-11 -12.5 -7 -28.5 l1 -5 q10 -46 45 -77 l13 -11 q56 -46 112 -40 q46 3 78 45 q30 38 35 90 l0 1 l36 563 q1 23 10 38.5 q9 15.5 17 15.5 l27 0 q17 0 29 -15 l15 -18 q5 -5 5 -13 q0 -13 10 -23 q10 -10 23 -10 l15 0 q14 0 24.5 11 q10.5 11 10.5 25 q0 32 -20 61 l-16 21 q-37 47 -98 47 ZM783 796 l-24 0 q-21 0 -43 -12.5 q-22 -12.5 -36 -33.5 q-28 -39 -31 -87 l-37 -563 q-2 -25 -13 -41.5 q-11 -16.5 -21 -16.5 l-10 0 q-17 0 -32 13 l-29 24 q-7 6 -10 15 q-3 17 -16.5 27 q-13.5 10 -30.5 10 l-4 0 q-16 0 -27 -12.5 q-11 -12.5 -7 -28.5 l1 -5 q10 -46 45 -77 l12 -11 q53 -44 113 -40 q48 2 80 45 q30 36 35 90 l0 1 l35 563 q2 23 10.5 38.5 q8.5 15.5 15.5 15.5 l26 0 q17 0 29 -15 l15 -18 q6 -6 6 -13 q0 -13 9.5 -23 q9.5 -10 22.5 -10 l17 0 q14 0 24.5 11 q10.5 11 10.5 25 q0 32 -20 61 l-17 21 q-37 47 -99 47 Z" /><glyph glyph-name="Japan1.774" unicode="&#x266d;" d="M438 -26 q8 14 13 20 q12 19 36 41 q62 66 159 122 l2 2 q53 33 77 96 q2 2 2 4 q15 35 15 104 q0 53 -41 86 l-7 5 q-46 38 -108 38 l-4 0 q-65 0 -118 -39 l-26 -20 q-5 -4 -10.5 -1 q-5.5 3 -5.5 9 l0 315 q0 17 -12 29 q-12 12 -29 12 q-17 0 -29.5 -12 q-12.5 -12 -12.5 -29 l0 -746 q0 -20 13.5 -33.5 q13.5 -13.5 33.5 -13.5 l34 0 q12 0 18 11 ZM438 331 l90 69 q17 12 35 12 l35 0 q18 0 35 -12 l12 -10 q15 -13 15 -32 l0 -40 q-1 -9 -4.5 -22 q-3.5 -13 -17.5 -34.5 q-14 -21.5 -35 -35.5 q-96 -56 -167 -125 q-4 -4 -9 -2 q-5 2 -5 7 l0 194 q0 18 16 31 Z" /><glyph glyph-name="Japan1.775" unicode="&#x266a;" d="M603 648 q-43 17 -43 80 l0 23 q0 15 -10.5 26 q-10.5 11 -26.5 11 q-15 0 -25.5 -11 q-10.5 -11 -10.5 -26 l0 -535 q0 -8 -6 -13.5 q-6 -5.5 -14 -5.5 l-117 0 q-50 0 -93 -29 q-42 -29 -42 -80 l0 -19 q0 -52 42 -86 q42 -33 94 -33 l57 0 q67 0 114 55 q38 44 38 95 l0 478 q0 9 8 5 l18 -6 q54 -23 91 -62.5 q37 -39.5 37 -96.5 q0 -62 -53 -200 q-5 -13 3 -25 q8 -12 22 -12 q39 0 53 38 q4 10 6 16 q42 124 42 183 q0 76 -47.5 135 q-47.5 59 -136.5 95 Z" /><glyph glyph-name="Japan1.780" unicode="&#xff10;" d="M818 723 l-636 0 q-16 0 -27.5 -11.5 q-11.5 -11.5 -11.5 -28.5 l0 -606 q0 -17 11.5 -28.5 q11.5 -11.5 27.5 -11.5 l636 0 q16 0 27.5 11.5 q11.5 11.5 11.5 28.5 l0 606 q0 17 -11.5 28.5 q-11.5 11.5 -27.5 11.5 ZM706 632 l-471 -451 q-4 -3 -8.5 -1 q-4.5 2 -4.5 7 l0 439 q0 8 5 13 q5 5 13 5 l461 0 q5 0 7 -4.5 q2 -4.5 -2 -7.5 ZM294 128 l471 451 q4 3 8.5 1 q4.5 -2 4.5 -7 l0 -439 q0 -8 -5 -13 q-5 -5 -13 -5 l-461 0 q-5 0 -7 4.5 q-2 4.5 2 7.5 Z" /><glyph glyph-name="Japan1.781" unicode="&#xff11;" d="M555 75 l0 540 q0 45 -31.5 76.5 q-31.5 31.5 -76.5 31.5 l-68 0 q-17 0 -28.5 -11.5 q-11.5 -11.5 -11.5 -28.5 q0 -16 12 -27.5 q12 -11.5 28 -11.5 l91 0 q6 0 6 -6 l0 -563 q0 -16 12 -27.5 q12 -11.5 28 -11.5 q16 0 27.5 11.5 q11.5 11.5 11.5 27.5 Z" /><glyph glyph-name="Japan1.782" unicode="&#xff12;" d="M759 528 l-572 -351 q-44 -28 -44 -79 q0 -22 15 -37 q15 -15 37 -15 l643 0 q16 0 27.5 11.5 q11.5 11.5 11.5 27.5 q0 16 -11.5 28 q-11.5 12 -27.5 12 l-566 0 q-4 0 -5 3.5 q-1 3.5 2 5.5 l565 347 q19 9 19 34 l0 151 q0 17 -11.5 28.5 q-11.5 11.5 -27.5 11.5 l-631 0 q-17 0 -28.5 -12 q-11.5 -12 -11.5 -28 l0 -92 q0 -16 11.5 -27.5 q11.5 -11.5 27.5 -11.5 q16 0 28 11.5 q12 11.5 12 27.5 l0 48 q0 4 4 4 l530 0 q8 0 13 -5 q5 -5 5 -13 l0 -53 q0 -19 -15 -27 Z" /><glyph glyph-name="Japan1.783" unicode="&#xff13;" d="M838 694 q-14 12 -29 12 l-631 0 q-16 0 -27.5 -11.5 q-11.5 -11.5 -11.5 -28.5 l0 -36 q0 -16 11.5 -28 q11.5 -12 28.5 -12 l5 0 q14 0 24 10 q10 10 10 24 q0 2 2 2 l532 0 q8 0 13 -5 q5 -5 5 -13 l0 -184 q0 -8 -5 -13 q-5 -5 -13 -5 l-492 0 q-16 0 -27.5 -12 q-11.5 -12 -11.5 -28 q0 -16 11.5 -27.5 q11.5 -11.5 27.5 -11.5 l492 0 q8 0 13 -5.5 q5 -5.5 5 -12.5 l0 -175 q0 -8 -5 -13 q-5 -5 -13 -5 l-531 0 q-3 0 -3 3 l0 15 q0 16 -11.5 28 q-11.5 12 -27.5 12 q-17 0 -28.5 -12 q-11.5 -12 -11.5 -28 l0 -58 q0 -17 11.5 -28.5 q11.5 -11.5 27.5 -11.5 l631 0 q17 0 28.5 12 q11.5 12 11.5 28 l0 590 q0 15 -11 28 Z" /><glyph glyph-name="Japan1.785" unicode="&#xff15;" d="M834 34 q17 0 28.5 11.5 q11.5 11.5 11.5 27.5 l0 312 q0 17 -12 28.5 q-12 11.5 -28 11.5 l-597 0 q-7 0 -12.5 5.5 q-5.5 5.5 -5.5 12.5 l0 186 q0 7 5.5 12.5 q5.5 5.5 12.5 5.5 l555 0 q16 0 28 11.5 q12 11.5 12 28.5 q0 16 -12 27.5 q-12 11.5 -28 11.5 l-612 0 q-17 0 -28.5 -11.5 q-11.5 -11.5 -11.5 -27.5 l0 -302 q0 -16 11.5 -27.5 q11.5 -11.5 28.5 -11.5 l596 0 q8 0 13 -5 q5 -5 5 -13 l0 -197 q0 -7 -5 -12.5 q-5 -5.5 -13 -5.5 l-580 0 q-16 0 -27.5 -12 q-11.5 -12 -11.5 -28 q0 -16 11.5 -27.5 q11.5 -11.5 27.5 -11.5 l638 0 Z" /><glyph glyph-name="Japan1.786" unicode="&#xff16;" d="M829 34 q17 0 28.5 12 q11.5 12 11.5 28 l0 303 q0 16 -11.5 27.5 q-11.5 11.5 -28.5 11.5 l-601 0 q-8 0 -13 5 q-5 5 -5 13 l0 195 q0 7 5 12.5 q5 5.5 13 5.5 l551 0 q5 0 5 -5 l0 -61 q0 -16 11.5 -27.5 q11.5 -11.5 27.5 -11.5 q16 0 28 11.5 q12 11.5 12 27.5 l0 105 q0 17 -11.5 28.5 q-11.5 11.5 -27.5 11.5 l-654 0 q-16 0 -27.5 -11.5 q-11.5 -11.5 -11.5 -28.5 l0 -612 q0 -17 11.5 -28.5 q11.5 -11.5 27.5 -11.5 l659 0 ZM210 131 l0 188 q0 7 5 12.5 q5 5.5 13 5.5 l544 0 q8 0 13 -5.5 q5 -5.5 5 -12.5 l0 -188 q0 -7 -5 -12.5 q-5 -5.5 -13 -5.5 l-544 0 q-8 0 -13 5.5 q-5 5.5 -5 12.5 Z" /><glyph glyph-name="Japan1.787" unicode="&#xff17;" d="M864 71 l0 610 q0 17 -11 28 q-11 11 -28 11 l-655 0 q-16 0 -27.5 -11 q-11.5 -11 -11.5 -28 l0 -161 q0 -16 11.5 -28 q11.5 -12 28.5 -12 q16 0 27.5 12 q11.5 12 11.5 28 l0 113 q0 8 8 8 l549 0 q7 0 12.5 -5.5 q5.5 -5.5 5.5 -12.5 l0 -552 q0 -16 11.5 -27.5 q11.5 -11.5 27.5 -11.5 q16 0 28 11.5 q12 11.5 12 27.5 Z" /><glyph glyph-name="Japan1.788" unicode="&#xff18;" d="M818 723 l-636 0 q-16 0 -27.5 -11.5 q-11.5 -11.5 -11.5 -28.5 l0 -606 q0 -17 11.5 -28.5 q11.5 -11.5 27.5 -11.5 l636 0 q16 0 27.5 11.5 q11.5 11.5 11.5 28.5 l0 606 q0 17 -11.5 28.5 q-11.5 11.5 -27.5 11.5 ZM778 626 l0 -188 q0 -8 -5 -13 q-5 -5 -13 -5 l-520 0 q-8 0 -13 5 q-5 5 -5 13 l0 188 q0 8 5 13 q5 5 13 5 l520 0 q8 0 13 -5 q5 -5 5 -13 ZM222 134 l0 188 q0 8 5 13 q5 5 13 5 l520 0 q8 0 13 -5 q5 -5 5 -13 l0 -188 q0 -8 -5 -13 q-5 -5 -13 -5 l-520 0 q-8 0 -13 5 q-5 5 -5 13 Z" /><glyph glyph-name="Japan1.790" unicode="&#xff21;" d="M644 880 q148 0 252 -104 q104 -104 104 -252 l0 -289 q0 -147 -104 -251 q-104 -104 -252 -104 l-289 0 q-147 0 -251 104 q-104 104 -104 251 l0 289 q0 148 104 252 q104 104 251 104 l289 0 ZM277 90 l0 49 q0 7 -5.5 12.5 q-5.5 5.5 -12.5 5.5 l-49 0 q-8 0 -13 -5.5 q-5 -5.5 -5 -12.5 l0 -49 q0 -8 5 -13 q5 -5 13 -5 l49 0 q7 0 12.5 5 q5.5 5 5.5 13 ZM366 179 l0 49 q0 8 -5 13 q-5 5 -13 5 l-49 0 q-7 0 -12.5 -5 q-5.5 -5 -5.5 -13 l0 -49 q0 -7 5.5 -12.5 q5.5 -5.5 12.5 -5.5 l49 0 q8 0 13 5.5 q5 5.5 5 12.5 ZM366 268 l0 48 q0 8 -5 13 q-5 5 -13 5 l-49 0 q-7 0 -12.5 -5 q-5.5 -5 -5.5 -13 l0 -48 q0 -8 5.5 -13 q5.5 -5 12.5 -5 l49 0 q8 0 13 5 q5 5 5 13 ZM366 356 l0 48 q0 8 -5 13 q-5 5 -13 5 l-49 0 q-7 0 -12.5 -5 q-5.5 -5 -5.5 -13 l0 -48 q0 -8 5.5 -13 q5.5 -5 12.5 -5 l49 0 q8 0 13 5 q5 5 5 13 ZM366 444 l0 48 q0 8 -5 13 q-5 5 -13 5 l-49 0 q-7 0 -12.5 -5 q-5.5 -5 -5.5 -13 l0 -48 q0 -8 5.5 -13 q5.5 -5 12.5 -5 l49 0 q8 0 13 5 q5 5 5 13 ZM454 268 l0 48 q0 8 -5 13 q-5 5 -13 5 l-48 0 q-8 0 -13 -5 q-5 -5 -5 -13 l0 -48 q0 -8 5 -13 q5 -5 13 -5 l48 0 q8 0 13 5 q5 5 5 13 ZM454 532 l0 49 q0 7 -5 12.5 q-5 5.5 -13 5.5 l-48 0 q-8 0 -13 -5.5 q-5 -5.5 -5 -12.5 l0 -49 q0 -8 5 -13 q5 -5 13 -5 l48 0 q8 0 13 5 q5 5 5 13 ZM542 268 l0 48 q0 8 -5 13 q-5 5 -13 5 l-48 0 q-8 0 -13 -5 q-5 -5 -5 -13 l0 -48 q0 -8 5 -13 q5 -5 13 -5 l48 0 q8 0 13 5 q5 5 5 13 ZM542 621 l0 49 q0 8 -5 13 q-5 5 -13 5 l-48 0 q-8 0 -13 -5 q-5 -5 -5 -13 l0 -49 q0 -7 5 -12.5 q5 -5.5 13 -5.5 l48 0 q8 0 13 5.5 q5 5.5 5 12.5 ZM630 268 l0 48 q0 8 -5 13 q-5 5 -13 5 l-48 0 q-8 0 -13 -5 q-5 -5 -5 -13 l0 -48 q0 -8 5 -13 q5 -5 13 -5 l48 0 q8 0 13 5 q5 5 5 13 ZM630 532 l0 49 q0 7 -5 12.5 q-5 5.5 -13 5.5 l-48 0 q-8 0 -13 -5.5 q-5 -5.5 -5 -12.5 l0 -49 q0 -8 5 -13 q5 -5 13 -5 l48 0 q8 0 13 5 q5 5 5 13 ZM719 179 l0 49 q0 8 -5.5 13 q-5.5 5 -12.5 5 l-49 0 q-8 0 -13 -5 q-5 -5 -5 -13 l0 -49 q0 -7 5 -12.5 q5 -5.5 13 -5.5 l49 0 q7 0 12.5 5.5 q5.5 5.5 5.5 12.5 ZM719 268 l0 48 q0 8 -5.5 13 q-5.5 5 -12.5 5 l-49 0 q-8 0 -13 -5 q-5 -5 -5 -13 l0 -48 q0 -8 5 -13 q5 -5 13 -5 l49 0 q7 0 12.5 5 q5.5 5 5.5 13 ZM719 356 l0 48 q0 8 -5.5 13 q-5.5 5 -12.5 5 l-49 0 q-8 0 -13 -5 q-5 -5 -5 -13 l0 -48 q0 -8 5 -13 q5 -5 13 -5 l49 0 q7 0 12.5 5 q5.5 5 5.5 13 ZM719 444 l0 48 q0 8 -5.5 13 q-5.5 5 -12.5 5 l-49 0 q-8 0 -13 -5 q-5 -5 -5 -13 l0 -48 q0 -8 5 -13 q5 -5 13 -5 l49 0 q7 0 12.5 5 q5.5 5 5.5 13 ZM808 90 l0 49 q0 7 -5 12.5 q-5 5.5 -13 5.5 l-49 0 q-7 0 -12.5 -5.5 q-5.5 -5.5 -5.5 -12.5 l0 -49 q0 -8 5.5 -13 q5.5 -5 12.5 -5 l49 0 q8 0 13 5 q5 5 5 13 Z" /><glyph glyph-name="Japan1.793" unicode="&#xff24;" d="M355 -120 q-147 0 -251 104 q-104 104 -104 251 l0 289 q0 148 104 252 q104 104 251 104 l289 0 q148 0 252 -104 q104 -104 104 -252 l0 -289 q0 -147 -104 -251 q-104 -104 -252 -104 l-289 0 ZM281 532 q0 -8 5.5 -13 q5.5 -5 12.5 -5 l49 0 q8 0 13 5 q5 5 5 13 l0 49 q0 7 -5 12.5 q-5 5.5 -13 5.5 l-49 0 q-7 0 -12.5 -5.5 q-5.5 -5.5 -5.5 -12.5 l0 -49 ZM281 444 q0 -8 5.5 -13 q5.5 -5 12.5 -5 l49 0 q8 0 13 5 q5 5 5 13 l0 48 q0 8 -5 13 q-5 5 -13 5 l-49 0 q-7 0 -12.5 -5 q-5.5 -5 -5.5 -13 l0 -48 ZM281 356 q0 -8 5.5 -13 q5.5 -5 12.5 -5 l49 0 q8 0 13 5 q5 5 5 13 l0 48 q0 8 -5 13 q-5 5 -13 5 l-49 0 q-7 0 -12.5 -5 q-5.5 -5 -5.5 -13 l0 -48 ZM281 268 q0 -8 5.5 -13 q5.5 -5 12.5 -5 l49 0 q8 0 13 5 q5 5 5 13 l0 48 q0 8 -5 13 q-5 5 -13 5 l-49 0 q-7 0 -12.5 -5 q-5.5 -5 -5.5 -13 l0 -48 ZM281 179 q0 -7 5.5 -12.5 q5.5 -5.5 12.5 -5.5 l49 0 q8 0 13 5.5 q5 5.5 5 12.5 l0 49 q0 8 -5 13 q-5 5 -13 5 l-49 0 q-7 0 -12.5 -5 q-5.5 -5 -5.5 -13 l0 -49 ZM281 90 q0 -8 5.5 -13 q5.5 -5 12.5 -5 l49 0 q8 0 13 5 q5 5 5 13 l0 49 q0 7 -5 12.5 q-5 5.5 -13 5.5 l-49 0 q-7 0 -12.5 -5.5 q-5.5 -5.5 -5.5 -12.5 l0 -49 ZM370 621 q0 -7 5 -12.5 q5 -5.5 13 -5.5 l48 0 q8 0 13 5.5 q5 5.5 5 12.5 l0 49 q0 8 -5 13 q-5 5 -13 5 l-48 0 q-8 0 -13 -5 q-5 -5 -5 -13 l0 -49 ZM370 90 q0 -8 5 -13 q5 -5 13 -5 l48 0 q8 0 13 5 q5 5 5 13 l0 49 q0 7 -5 12.5 q-5 5.5 -13 5.5 l-48 0 q-8 0 -13 -5.5 q-5 -5.5 -5 -12.5 l0 -49 ZM458 621 q0 -7 5 -12.5 q5 -5.5 13 -5.5 l48 0 q8 0 13 5.5 q5 5.5 5 12.5 l0 49 q0 8 -5 13 q-5 5 -13 5 l-48 0 q-8 0 -13 -5 q-5 -5 -5 -13 l0 -49 ZM458 90 q0 -8 5 -13 q5 -5 13 -5 l48 0 q8 0 13 5 q5 5 5 13 l0 49 q0 7 -5 12.5 q-5 5.5 -13 5.5 l-48 0 q-8 0 -13 -5.5 q-5 -5.5 -5 -12.5 l0 -49 ZM546 532 q0 -8 5 -13 q5 -5 13 -5 l48 0 q8 0 13 5 q5 5 5 13 l0 49 q0 7 -5 12.5 q-5 5.5 -13 5.5 l-48 0 q-8 0 -13 -5.5 q-5 -5.5 -5 -12.5 l0 -49 ZM546 179 q0 -7 5 -12.5 q5 -5.5 13 -5.5 l48 0 q8 0 13 5.5 q5 5.5 5 12.5 l0 49 q0 8 -5 13 q-5 5 -13 5 l-48 0 q-8 0 -13 -5 q-5 -5 -5 -13 l0 -49 ZM634 444 q0 -8 5 -13 q5 -5 13 -5 l49 0 q7 0 12.5 5 q5.5 5 5.5 13 l0 48 q0 8 -5.5 13 q-5.5 5 -12.5 5 l-49 0 q-8 0 -13 -5 q-5 -5 -5 -13 l0 -48 ZM634 356 q0 -8 5 -13 q5 -5 13 -5 l49 0 q7 0 12.5 5 q5.5 5 5.5 13 l0 48 q0 8 -5.5 13 q-5.5 5 -12.5 5 l-49 0 q-8 0 -13 -5 q-5 -5 -5 -13 l0 -48 ZM634 268 q0 -8 5 -13 q5 -5 13 -5 l49 0 q7 0 12.5 5 q5.5 5 5.5 13 l0 48 q0 8 -5.5 13 q-5.5 5 -12.5 5 l-49 0 q-8 0 -13 -5 q-5 -5 -5 -13 l0 -48 Z" /><glyph glyph-name="Japan1.794" unicode="&#xff25;" d="M356 -120 q-148 0 -252 104 q-104 104 -104 251 l0 289 q0 148 104 252 q104 104 252 104 l289 0 q147 0 251 -104 q104 -104 104 -252 l0 -289 q0 -147 -104 -251 q-104 -104 -251 -104 l-289 0 ZM325 532 q0 -8 5.5 -13 q5.5 -5 12.5 -5 l48 0 q7 0 12.5 5 q5.5 5 5.5 13 l0 49 q0 7 -5.5 12.5 q-5.5 5.5 -12.5 5.5 l-48 0 q-7 0 -12.5 -5.5 q-5.5 -5.5 -5.5 -12.5 l0 -49 ZM325 444 q0 -8 5.5 -13 q5.5 -5 12.5 -5 l48 0 q7 0 12.5 5 q5.5 5 5.5 13 l0 48 q0 8 -5.5 13 q-5.5 5 -12.5 5 l-48 0 q-7 0 -12.5 -5 q-5.5 -5 -5.5 -13 l0 -48 ZM325 356 q0 -8 5.5 -13 q5.5 -5 12.5 -5 l48 0 q7 0 12.5 5 q5.5 5 5.5 13 l0 48 q0 8 -5.5 13 q-5.5 5 -12.5 5 l-48 0 q-7 0 -12.5 -5 q-5.5 -5 -5.5 -13 l0 -48 ZM325 268 q0 -8 5.5 -13 q5.5 -5 12.5 -5 l48 0 q7 0 12.5 5 q5.5 5 5.5 13 l0 48 q0 8 -5.5 13 q-5.5 5 -12.5 5 l-48 0 q-7 0 -12.5 -5 q-5.5 -5 -5.5 -13 l0 -48 ZM325 179 q0 -7 5.5 -12.5 q5.5 -5.5 12.5 -5.5 l48 0 q7 0 12.5 5.5 q5.5 5.5 5.5 12.5 l0 49 q0 8 -5.5 13 q-5.5 5 -12.5 5 l-48 0 q-7 0 -12.5 -5 q-5.5 -5 -5.5 -13 l0 -49 ZM413 621 q0 -7 5.5 -12.5 q5.5 -5.5 12.5 -5.5 l49 0 q8 0 13 5.5 q5 5.5 5 12.5 l0 49 q0 8 -5 13 q-5 5 -13 5 l-49 0 q-7 0 -12.5 -5 q-5.5 -5 -5.5 -13 l0 -49 ZM431 422 q-7 0 -12.5 -5 q-5.5 -5 -5.5 -13 l0 -48 q0 -8 5.5 -13 q5.5 -5 12.5 -5 l49 0 q8 0 13 5 q5 5 5 13 l0 48 q0 8 -5 13 q-5 5 -13 5 l-49 0 ZM413 90 q0 -8 5.5 -13 q5.5 -5 12.5 -5 l49 0 q8 0 13 5 q5 5 5 13 l0 49 q0 7 -5 12.5 q-5 5.5 -13 5.5 l-49 0 q-7 0 -12.5 -5.5 q-5.5 -5.5 -5.5 -12.5 l0 -49 ZM502 621 q0 -7 5 -12.5 q5 -5.5 13 -5.5 l49 0 q7 0 12.5 5.5 q5.5 5.5 5.5 12.5 l0 49 q0 8 -5.5 13 q-5.5 5 -12.5 5 l-49 0 q-8 0 -13 -5 q-5 -5 -5 -13 l0 -49 ZM520 422 q-8 0 -13 -5 q-5 -5 -5 -13 l0 -48 q0 -8 5 -13 q5 -5 13 -5 l49 0 q7 0 12.5 5 q5.5 5 5.5 13 l0 48 q0 8 -5.5 13 q-5.5 5 -12.5 5 l-49 0 ZM502 90 q0 -8 5 -13 q5 -5 13 -5 l49 0 q7 0 12.5 5 q5.5 5 5.5 13 l0 49 q0 7 -5.5 12.5 q-5.5 5.5 -12.5 5.5 l-49 0 q-8 0 -13 -5.5 q-5 -5.5 -5 -12.5 l0 -49 ZM591 621 q0 -7 5.5 -12.5 q5.5 -5.5 12.5 -5.5 l48 0 q7 0 12.5 5.5 q5.5 5.5 5.5 12.5 l0 49 q0 8 -5.5 13 q-5.5 5 -12.5 5 l-48 0 q-7 0 -12.5 -5 q-5.5 -5 -5.5 -13 l0 -49 ZM609 422 q-7 0 -12.5 -5 q-5.5 -5 -5.5 -13 l0 -48 q0 -8 5.5 -13 q5.5 -5 12.5 -5 l48 0 q7 0 12.5 5 q5.5 5 5.5 13 l0 48 q0 8 -5.5 13 q-5.5 5 -12.5 5 l-48 0 ZM591 90 q0 -8 5.5 -13 q5.5 -5 12.5 -5 l48 0 q7 0 12.5 5 q5.5 5 5.5 13 l0 49 q0 7 -5.5 12.5 q-5.5 5.5 -12.5 5.5 l-48 0 q-7 0 -12.5 -5.5 q-5.5 -5.5 -5.5 -12.5 l0 -49 Z" /><glyph glyph-name="Japan1.802" unicode="&#xff2d;" d="M356 -120 q-148 0 -252 104 q-104 104 -104 252 l0 288 q0 148 104 252 q104 104 252 104 l287 0 q148 0 252 -104 q104 -104 104 -252 l0 -288 q0 -148 -104 -252 q-104 -104 -252 -104 l-287 0 ZM281 532 q0 -8 5.5 -13 q5.5 -5 12.5 -5 l49 0 q8 0 13 5 q5 5 5 13 l0 49 q0 7 -5 12.5 q-5 5.5 -13 5.5 l-49 0 q-7 0 -12.5 -5.5 q-5.5 -5.5 -5.5 -12.5 l0 -49 ZM281 444 q0 -8 5.5 -13 q5.5 -5 12.5 -5 l49 0 q8 0 13 5 q5 5 5 13 l0 48 q0 8 -5 13 q-5 5 -13 5 l-49 0 q-7 0 -12.5 -5 q-5.5 -5 -5.5 -13 l0 -48 ZM281 356 q0 -8 5.5 -13 q5.5 -5 12.5 -5 l49 0 q8 0 13 5 q5 5 5 13 l0 48 q0 8 -5 13 q-5 5 -13 5 l-49 0 q-7 0 -12.5 -5 q-5.5 -5 -5.5 -13 l0 -48 ZM281 268 q0 -8 5.5 -13 q5.5 -5 12.5 -5 l49 0 q8 0 13 5 q5 5 5 13 l0 48 q0 8 -5 13 q-5 5 -13 5 l-49 0 q-7 0 -12.5 -5 q-5.5 -5 -5.5 -13 l0 -48 ZM281 179 q0 -7 5.5 -12.5 q5.5 -5.5 12.5 -5.5 l49 0 q8 0 13 5.5 q5 5.5 5 12.5 l0 49 q0 8 -5 13 q-5 5 -13 5 l-49 0 q-7 0 -12.5 -5 q-5.5 -5 -5.5 -13 l0 -49 ZM281 90 q0 -8 5.5 -13 q5.5 -5 12.5 -5 l49 0 q8 0 13 5 q5 5 5 13 l0 49 q0 7 -5 12.5 q-5 5.5 -13 5.5 l-49 0 q-7 0 -12.5 -5.5 q-5.5 -5.5 -5.5 -12.5 l0 -49 ZM370 621 q0 -7 5 -12.5 q5 -5.5 13 -5.5 l48 0 q8 0 13 5.5 q5 5.5 5 12.5 l0 49 q0 8 -5 13 q-5 5 -13 5 l-48 0 q-8 0 -13 -5 q-5 -5 -5 -13 l0 -49 ZM458 621 q0 -7 5 -12.5 q5 -5.5 13 -5.5 l48 0 q8 0 13 5.5 q5 5.5 5 12.5 l0 49 q0 8 -5 13 q-5 5 -13 5 l-48 0 q-8 0 -13 -5 q-5 -5 -5 -13 l0 -49 ZM458 532 q0 -8 5 -13 q5 -5 13 -5 l48 0 q8 0 13 5 q5 5 5 13 l0 49 q0 7 -5 12.5 q-5 5.5 -13 5.5 l-48 0 q-8 0 -13 -5.5 q-5 -5.5 -5 -12.5 l0 -49 ZM458 444 q0 -8 5 -13 q5 -5 13 -5 l48 0 q8 0 13 5 q5 5 5 13 l0 48 q0 8 -5 13 q-5 5 -13 5 l-48 0 q-8 0 -13 -5 q-5 -5 -5 -13 l0 -48 ZM458 356 q0 -8 5 -13 q5 -5 13 -5 l48 0 q8 0 13 5 q5 5 5 13 l0 48 q0 8 -5 13 q-5 5 -13 5 l-48 0 q-8 0 -13 -5 q-5 -5 -5 -13 l0 -48 ZM458 268 q0 -8 5 -13 q5 -5 13 -5 l48 0 q8 0 13 5 q5 5 5 13 l0 48 q0 8 -5 13 q-5 5 -13 5 l-48 0 q-8 0 -13 -5 q-5 -5 -5 -13 l0 -48 ZM546 621 q0 -7 5 -12.5 q5 -5.5 13 -5.5 l48 0 q8 0 13 5.5 q5 5.5 5 12.5 l0 49 q0 8 -5 13 q-5 5 -13 5 l-48 0 q-8 0 -13 -5 q-5 -5 -5 -13 l0 -49 ZM634 532 q0 -8 5 -13 q5 -5 13 -5 l49 0 q7 0 12.5 5 q5.5 5 5.5 13 l0 49 q0 7 -5.5 12.5 q-5.5 5.5 -12.5 5.5 l-49 0 q-8 0 -13 -5.5 q-5 -5.5 -5 -12.5 l0 -49 ZM634 444 q0 -8 5 -13 q5 -5 13 -5 l49 0 q7 0 12.5 5 q5.5 5 5.5 13 l0 48 q0 8 -5.5 13 q-5.5 5 -12.5 5 l-49 0 q-8 0 -13 -5 q-5 -5 -5 -13 l0 -48 ZM634 356 q0 -8 5 -13 q5 -5 13 -5 l49 0 q7 0 12.5 5 q5.5 5 5.5 13 l0 48 q0 8 -5.5 13 q-5.5 5 -12.5 5 l-49 0 q-8 0 -13 -5 q-5 -5 -5 -13 l0 -48 ZM634 268 q0 -8 5 -13 q5 -5 13 -5 l49 0 q7 0 12.5 5 q5.5 5 5.5 13 l0 48 q0 8 -5.5 13 q-5.5 5 -12.5 5 l-49 0 q-8 0 -13 -5 q-5 -5 -5 -13 l0 -48 ZM634 179 q0 -7 5 -12.5 q5 -5.5 13 -5.5 l49 0 q7 0 12.5 5.5 q5.5 5.5 5.5 12.5 l0 49 q0 8 -5.5 13 q-5.5 5 -12.5 5 l-49 0 q-8 0 -13 -5 q-5 -5 -5 -13 l0 -49 ZM634 90 q0 -8 5 -13 q5 -5 13 -5 l49 0 q7 0 12.5 5 q5.5 5 5.5 13 l0 49 q0 7 -5.5 12.5 q-5.5 5.5 -12.5 5.5 l-49 0 q-8 0 -13 -5.5 q-5 -5.5 -5 -12.5 l0 -49 Z" /><glyph glyph-name="Japan1.808" unicode="&#xff33;" d="M356 -120 q-148 0 -252 104 q-104 104 -104 252 l0 288 q0 148 104 252 q104 104 252 104 l288 0 q148 0 252 -104 q104 -104 104 -252 l0 -288 q0 -148 -104 -252 q-104 -104 -252 -104 l-288 0 ZM281 532 q0 -8 5.5 -13 q5.5 -5 12.5 -5 l48 0 q7 0 12.5 5 q5.5 5 5.5 13 l0 49 q0 7 -5.5 12.5 q-5.5 5.5 -12.5 5.5 l-48 0 q-7 0 -12.5 -5.5 q-5.5 -5.5 -5.5 -12.5 l0 -49 ZM281 444 q0 -8 5.5 -13 q5.5 -5 12.5 -5 l48 0 q7 0 12.5 5 q5.5 5 5.5 13 l0 48 q0 8 -5.5 13 q-5.5 5 -12.5 5 l-48 0 q-7 0 -12.5 -5 q-5.5 -5 -5.5 -13 l0 -48 ZM281 179 q0 -7 5.5 -12.5 q5.5 -5.5 12.5 -5.5 l48 0 q7 0 12.5 5.5 q5.5 5.5 5.5 12.5 l0 49 q0 8 -5.5 13 q-5.5 5 -12.5 5 l-48 0 q-7 0 -12.5 -5 q-5.5 -5 -5.5 -13 l0 -49 ZM369 621 q0 -7 5.5 -12.5 q5.5 -5.5 12.5 -5.5 l48 0 q7 0 12.5 5.5 q5.5 5.5 5.5 12.5 l0 49 q0 8 -5.5 13 q-5.5 5 -12.5 5 l-48 0 q-7 0 -12.5 -5 q-5.5 -5 -5.5 -13 l0 -49 ZM369 356 q0 -8 5.5 -13 q5.5 -5 12.5 -5 l48 0 q7 0 12.5 5 q5.5 5 5.5 13 l0 48 q0 8 -5.5 13 q-5.5 5 -12.5 5 l-48 0 q-7 0 -12.5 -5 q-5.5 -5 -5.5 -13 l0 -48 ZM369 90 q0 -8 5.5 -13 q5.5 -5 12.5 -5 l48 0 q7 0 12.5 5 q5.5 5 5.5 13 l0 49 q0 7 -5.5 12.5 q-5.5 5.5 -12.5 5.5 l-48 0 q-7 0 -12.5 -5.5 q-5.5 -5.5 -5.5 -12.5 l0 -49 ZM457 621 q0 -7 5.5 -12.5 q5.5 -5.5 12.5 -5.5 l49 0 q8 0 13 5.5 q5 5.5 5 12.5 l0 49 q0 8 -5 13 q-5 5 -13 5 l-49 0 q-7 0 -12.5 -5 q-5.5 -5 -5.5 -13 l0 -49 ZM457 356 q0 -8 5.5 -13 q5.5 -5 12.5 -5 l49 0 q8 0 13 5 q5 5 5 13 l0 48 q0 8 -5 13 q-5 5 -13 5 l-49 0 q-7 0 -12.5 -5 q-5.5 -5 -5.5 -13 l0 -48 ZM457 90 q0 -8 5.5 -13 q5.5 -5 12.5 -5 l49 0 q8 0 13 5 q5 5 5 13 l0 49 q0 7 -5 12.5 q-5 5.5 -13 5.5 l-49 0 q-7 0 -12.5 -5.5 q-5.5 -5.5 -5.5 -12.5 l0 -49 ZM546 621 q0 -7 5 -12.5 q5 -5.5 13 -5.5 l48 0 q8 0 13 5.5 q5 5.5 5 12.5 l0 49 q0 8 -5 13 q-5 5 -13 5 l-48 0 q-8 0 -13 -5 q-5 -5 -5 -13 l0 -49 ZM546 356 q0 -8 5 -13 q5 -5 13 -5 l48 0 q8 0 13 5 q5 5 5 13 l0 48 q0 8 -5 13 q-5 5 -13 5 l-48 0 q-8 0 -13 -5 q-5 -5 -5 -13 l0 -48 ZM546 90 q0 -8 5 -13 q5 -5 13 -5 l48 0 q8 0 13 5 q5 5 5 13 l0 49 q0 7 -5 12.5 q-5 5.5 -13 5.5 l-48 0 q-8 0 -13 -5.5 q-5 -5.5 -5 -12.5 l0 -49 ZM634 532 q0 -8 5 -13 q5 -5 13 -5 l49 0 q7 0 12.5 5 q5.5 5 5.5 13 l0 49 q0 7 -5.5 12.5 q-5.5 5.5 -12.5 5.5 l-49 0 q-8 0 -13 -5.5 q-5 -5.5 -5 -12.5 l0 -49 ZM634 268 q0 -8 5 -13 q5 -5 13 -5 l49 0 q7 0 12.5 5 q5.5 5 5.5 13 l0 48 q0 8 -5.5 13 q-5.5 5 -12.5 5 l-49 0 q-8 0 -13 -5 q-5 -5 -5 -13 l0 -48 ZM634 179 q0 -7 5 -12.5 q5 -5.5 13 -5.5 l49 0 q7 0 12.5 5.5 q5.5 5.5 5.5 12.5 l0 49 q0 8 -5.5 13 q-5.5 5 -12.5 5 l-49 0 q-8 0 -13 -5 q-5 -5 -5 -13 l0 -49 Z" /><glyph glyph-name="Japan1.809" unicode="&#xff34;" d="M356 -120 q-148 0 -252 104 q-104 104 -104 252 l0 288 q0 148 104 252 q104 104 252 104 l288 0 q148 0 252 -104 q104 -104 104 -252 l0 -288 q0 -148 -104 -252 q-104 -104 -252 -104 l-288 0 ZM281 621 q0 -7 5.5 -12.5 q5.5 -5.5 12.5 -5.5 l49 0 q8 0 13 5.5 q5 5.5 5 12.5 l0 49 q0 8 -5 13 q-5 5 -13 5 l-49 0 q-7 0 -12.5 -5 q-5.5 -5 -5.5 -13 l0 -49 ZM370 621 q0 -7 5 -12.5 q5 -5.5 13 -5.5 l47 0 q7 0 12.5 5.5 q5.5 5.5 5.5 12.5 l0 49 q0 8 -5.5 13 q-5.5 5 -12.5 5 l-47 0 q-8 0 -13 -5 q-5 -5 -5 -13 l0 -49 ZM457 621 q0 -7 5.5 -12.5 q5.5 -5.5 12.5 -5.5 l49 0 q8 0 13 5.5 q5 5.5 5 12.5 l0 49 q0 8 -5 13 q-5 5 -13 5 l-49 0 q-7 0 -12.5 -5 q-5.5 -5 -5.5 -13 l0 -49 ZM457 532 q0 -8 5.5 -13 q5.5 -5 12.5 -5 l49 0 q8 0 13 5 q5 5 5 13 l0 49 q0 7 -5 12.5 q-5 5.5 -13 5.5 l-49 0 q-7 0 -12.5 -5.5 q-5.5 -5.5 -5.5 -12.5 l0 -49 ZM457 444 q0 -8 5.5 -13 q5.5 -5 12.5 -5 l49 0 q8 0 13 5 q5 5 5 13 l0 48 q0 8 -5 13 q-5 5 -13 5 l-49 0 q-7 0 -12.5 -5 q-5.5 -5 -5.5 -13 l0 -48 ZM457 356 q0 -8 5.5 -13 q5.5 -5 12.5 -5 l49 0 q8 0 13 5 q5 5 5 13 l0 48 q0 8 -5 13 q-5 5 -13 5 l-49 0 q-7 0 -12.5 -5 q-5.5 -5 -5.5 -13 l0 -48 ZM457 268 q0 -8 5.5 -13 q5.5 -5 12.5 -5 l49 0 q8 0 13 5 q5 5 5 13 l0 48 q0 8 -5 13 q-5 5 -13 5 l-49 0 q-7 0 -12.5 -5 q-5.5 -5 -5.5 -13 l0 -48 ZM457 179 q0 -7 5.5 -12.5 q5.5 -5.5 12.5 -5.5 l49 0 q8 0 13 5.5 q5 5.5 5 12.5 l0 49 q0 8 -5 13 q-5 5 -13 5 l-49 0 q-7 0 -12.5 -5 q-5.5 -5 -5.5 -13 l0 -49 ZM457 90 q0 -8 5.5 -13 q5.5 -5 12.5 -5 l49 0 q8 0 13 5 q5 5 5 13 l0 49 q0 7 -5 12.5 q-5 5.5 -13 5.5 l-49 0 q-7 0 -12.5 -5.5 q-5.5 -5.5 -5.5 -12.5 l0 -49 ZM546 621 q0 -7 5 -12.5 q5 -5.5 13 -5.5 l48 0 q8 0 13 5.5 q5 5.5 5 12.5 l0 49 q0 8 -5 13 q-5 5 -13 5 l-48 0 q-8 0 -13 -5 q-5 -5 -5 -13 l0 -49 ZM634 621 q0 -7 5 -12.5 q5 -5.5 13 -5.5 l49 0 q7 0 12.5 5.5 q5.5 5.5 5.5 12.5 l0 49 q0 8 -5.5 13 q-5.5 5 -12.5 5 l-49 0 q-8 0 -13 -5 q-5 -5 -5 -13 l0 -49 Z" /><glyph glyph-name="Japan1.843" unicode="&#x3042;" d="M164 119 q-16 50 12.5 119 q28.5 69 93.5 129 q43 41 110 73 q11 7 9 19 q0 5 -0.5 23 q-0.5 18 -0.5 29 q0 6 -3 9.5 q-3 3.5 -9 2.5 q-128 -7 -182 4 q-35 7 -28 42 q2 12 12.5 21.5 q10.5 9.5 26.5 8.5 q8 0 73 -3.5 q65 -3.5 102 -1.5 q12 0 14 14 q14 99 46 158 q7 12 22 15 q15 3 29 -5 q12 -8 15.5 -24.5 q3.5 -16.5 -5.5 -30.5 q-20 -28 -30 -100 q-1 -6 2.5 -8.5 q3.5 -2.5 9.5 -1.5 q76 14 155 50 q14 7 26 3.5 q12 -3.5 20 -12.5 q22 -31 -23 -58 q-73 -41 -184 -62 q-13 -2 -13 -15 q-1 -9 -1 -31 q0 -11 12 -9 q25 7 55.5 11.5 q30.5 4.5 76.5 6 q46 1.5 94 -14.5 q48 -16 85 -48 q30 -27 49 -67 q19 -40 23 -93 q4 -53 -18 -110 q-21 -43 -56.5 -75 q-35.5 -32 -80 -50 q-44.5 -18 -76.5 -26.5 q-32 -8.5 -73 -15.5 q-45 -6 -50 30 q-2 17 8 29.5 q10 12.5 26 14.5 q41 8 72 16.5 q31 8.5 65.5 24 q34.5 15.5 56 35.5 q21.5 20 35.5 51 q14 31 13 69 q-5 87 -74 126 q-11 6 -21 -6 q-4 -4 -29.5 -34 q-25.5 -30 -45.5 -52.5 q-20 -22.5 -52 -58 q-32 -35.5 -57 -61.5 q-25 -26 -52.5 -51.5 q-27.5 -25.5 -46.5 -38.5 q-73 -51 -144 -39.5 q-71 11.5 -94 69.5 ZM356 148 q14 10 59 55 q11 11 8 23 q-15 49 -26 127 q-1 4 -4.5 5.5 q-3.5 1.5 -5.5 -0.5 q-59 -34 -95 -75.5 q-36 -41.5 -45 -68.5 q-28 -64 4 -83 q38 -28 105 17 ZM487 289 q0 -2 3.5 -3 q3.5 -1 5.5 2 q64 71 105 122 q3 2 1.5 5 q-1.5 3 -4.5 3 q-62 2 -118 -18 q-12 -5 -11 -18 q6 -38 18 -93 Z" /><glyph glyph-name="Japan1.845" unicode="&#x3044;" d="M402 204 q-24 -68 -41 -69 q-14 0 -44 27 q-50 50 -74 121.5 q-24 71.5 -21 131 q3 59.5 14 113.5 q3 9 14 33.5 q11 24.5 12 38.5 q1 25 -22 37 q-35 18 -56 -16 q-39 -63 -42 -177 q-3 -108 30 -203 q48 -129 148 -177 q42 -20 80 -3 q38 17 62 69 q8 22 14 33 q10 27 6 42 q-5 24 -29 30 q-21 5 -35 -6.5 q-14 -11.5 -16 -24.5 ZM825 248 q25 -1 37.5 17.5 q12.5 18.5 11.5 44.5 q-8 89 -63 158 q-44 54 -117 92 q-62 30 -81 -1 q-10 -15 -3 -35.5 q7 -20.5 32 -29.5 q43 -16 81.5 -54 q38.5 -38 52.5 -90 q1 -14 1.5 -31 q0.5 -17 1.5 -31.5 q1 -14.5 12.5 -26 q11.5 -11.5 33.5 -13.5 Z" /><glyph glyph-name="Japan1.847" unicode="&#x3046;" d="M348 379 q109 121 240 94 q32 -10 49.5 -48 q17.5 -38 10 -97 q-7.5 -59 -45.5 -119 q-24 -33 -51 -58 q-27 -25 -45.5 -36.5 q-18.5 -11.5 -46.5 -26.5 q-20 -10 -40 -18.5 q-20 -8.5 -30 -11.5 l-10 -4 q-16 -4 -25 -19 q-9 -15 -6 -31 q5 -18 20 -25.5 q15 -7.5 31 -4.5 q62 15 146.5 69 q84.5 54 128.5 123 q44 72 55 151 q8 57 -6 111 q-14 54 -52 90 q-28 27 -65 36 q-75 17 -178 -21 q-89 -37 -143 -95 q-11 -11 -10.5 -29 q0.5 -18 13.5 -30 q11 -12 29.5 -12 q18.5 0 30.5 12 ZM619 637 q20 0 32 17 q10 13 7 30 q-3 17 -16 27 q-42 29 -117 48.5 q-75 19.5 -134 12.5 q-16 -2 -26.5 -16 q-10.5 -14 -8.5 -29 q3 -16 16.5 -27 q13.5 -11 28.5 -9 q46 6 105.5 -10 q59.5 -16 88.5 -36 q11 -8 24 -8 Z" /><glyph glyph-name="Japan1.849" unicode="&#x3048;" d="M168 -4 q15 -10 31 -8 q16 2 27 14 q12 16 166 188 q40 51 83 48 q21 -2 24.5 -13.5 q3.5 -11.5 -11.5 -51.5 q-7 -20 -10.5 -40 q-3.5 -20 3 -49.5 q6.5 -29.5 28 -50 q21.5 -20.5 74 -32 q52.5 -11.5 131.5 -3.5 q90 15 148 69 q11 10 12.5 26 q1.5 16 -8.5 33 q-25 29 -59 4 q-70 -54 -157 -54 q-86 0 -99 46 q-4 7 0 21.5 q4 14.5 6.5 21 q2.5 6.5 9.5 21.5 q7 15 10 22 q18 47 -7.5 74 q-25.5 27 -59.5 32 q-7 2 -3 7 q79 93 85 101 q56 63 18 106 q-31 32 -77 4 q-39 -27 -135.5 -57.5 q-96.5 -30.5 -161.5 -37.5 q-17 -1 -28.5 -14.5 q-11.5 -13.5 -9.5 -29.5 q1 -16 12.5 -27 q11.5 -11 27.5 -11 q102 7 233 57 q1 1 2 0 q1 -1 0 -3 q-40 -46 -118 -134.5 q-78 -88.5 -134.5 -152.5 q-56.5 -64 -57.5 -65 q-11 -12 -10 -31.5 q1 -19.5 15 -29.5 ZM564 619 q8 -7 24.5 -3.5 q16.5 3.5 26.5 19.5 q7 14 2 30.5 q-5 16.5 -20 21.5 q-78 39 -189 39 q-33 0 -47 -1 q-15 -1 -26 -13 q-11 -12 -10 -27 q1 -15 12 -26 q11 -11 25 -11 q138 8 202 -29 Z" /><glyph glyph-name="Japan1.851" unicode="&#x304a;" d="M431 572 q-2 45 -12 75 q-10 30 -33 75 q-23 46 -61 26 q-35 -22 -5 -86 q13 -27 18 -39 q5 -12 9.5 -33.5 q4.5 -21.5 4.5 -51.5 q0 -15 -13 -17 q-67 -15 -133 -8 q-14 4 -33.5 3 q-19.5 -1 -26.5 -16 q-9 -21 5.5 -37.5 q14.5 -16.5 41.5 -20.5 q76 -6 146 7 q5 1 9 -1.5 q4 -2.5 4 -7.5 l0 -85 q0 -13 -13 -20 q-95 -51 -148 -113 q-30 -36 -28 -77.5 q2 -41.5 36 -61.5 q90 -49 139 -50 q39 0 62 20.5 q23 20.5 28 75.5 q3 40 3 160 q0 14 12 18 q86 32 182 24 q71 -6 106.5 -42.5 q35.5 -36.5 33.5 -84.5 q-2 -38 -29.5 -61.5 q-27.5 -23.5 -87.5 -18.5 q-63 6 -81 31 q-7 7 -1 24 q16 51 -19 66 q-29 9 -54.5 -22.5 q-25.5 -31.5 -12.5 -82.5 q10 -36 60.5 -66 q50.5 -30 126.5 -27 q83 4 131.5 49 q48.5 45 49.5 116 q2 76 -64 133.5 q-66 57.5 -185 61.5 q-76 1 -158 -27 q-10 -3 -10 8 l0 73 q0 13 12 18 q89 30 119 62 q39 49 -3 71 q-28 13 -66 -28 q-23 -20 -52 -30 q-10 -5 -10 7 l0 11 ZM351 168 q-2 -46 -16 -51 q-20 -9 -60 10 q-20 10 -25 15 q-13 17 2 38 q22 29 90 73 q10 5 10 -5 q-1 -39 -1 -80 ZM860 460 q7 26 -15 55 q-52 58 -160 75 q-42 7 -56 -18 q-7 -19 4.5 -34 q11.5 -15 34.5 -21 q4 -1 20 -4.5 q16 -3.5 24 -6.5 q8 -3 22.5 -9.5 q14.5 -6.5 26.5 -15.5 q6 -4 24.5 -20.5 q18.5 -16.5 30.5 -21.5 q18 -5 29.5 3 q11.5 8 14.5 18 Z" /><glyph glyph-name="Japan1.852" unicode="&#x304b;" d="M578 530 q-30 27 -79 30 q-35 1 -71 -7 l-2 -1 l-2 0 q-4 -1 -7 2 q-3 3 -2 8 l17 67 q8 34 9 53 q2 38 -16 64 q-8 11 -23.5 14 q-15.5 3 -27.5 -5 q-13 -8 -16.5 -24 q-3.5 -16 4.5 -30 q4 -5 -5 -59 q-2 -12 -23 -94 q-3 -13 -16 -15 q-94 -13 -130 -2 q-17 4 -32 -3.5 q-15 -7.5 -20 -22.5 q-4 -14 4 -29.5 q8 -15.5 23 -20.5 q46 -13 133 -4 q4 1 6.5 -2.5 q2.5 -3.5 1.5 -7.5 q-76 -255 -143 -363 q-9 -11 -8 -29.5 q1 -18.5 16 -26.5 q31 -18 58 14 q67 115 136 341 q12 35 21 75 q5 14 17 15 q5 1 19.5 3.5 q14.5 2.5 22.5 4.5 q62 13 80 -3 q13 -13 6 -64 q-34 -197 -39 -238 q-5 -36 -15 -46 q-10 -10 -26 -7 q-39 9 -75 18 q-21 7 -34 -10.5 q-13 -17.5 -11 -39 q2 -21.5 19 -25.5 q5 -1 31.5 -9.5 q26.5 -8.5 35 -10.5 q8.5 -2 30.5 -5.5 q22 -3.5 34 -0.5 q12 3 28 10 q16 7 29 21 q27 32 47.5 151.5 q20.5 119.5 24.5 178.5 q8 46 0 78 q-5 31 -30 57 ZM816 459 q-27 32 -49 48 q-13 10 -25 15 q-24 10 -43 -9 q-11 -10 -11 -26.5 q0 -16.5 11 -27.5 q84 -81 110 -139 q5 -14 -8 -18 q-22 -15 -18 -40 q1 -14 15 -26 q10 -9 23 -9 q11 0 20 6 q3 2 8.5 5.5 q5.5 3.5 8.5 5 q3 1.5 7.5 5 q4.5 3.5 7.5 5.5 q3 2 6.5 5.5 q3.5 3.5 5.5 7 q2 3.5 4.5 7.5 q2.5 4 3.5 9 q15 66 -77 176 Z" /><glyph glyph-name="Japan1.853" unicode="&#x304c;" d="M876 721 q-10 9 -23.5 16 q-13.5 7 -30.5 9 q-17 2 -26 -11 q-15 -22 17 -46 q28 -19 43 -49 q18 -36 49 -23 q32 16 13 51 q-12 28 -42 53 ZM791 671 q-12 10 -25 16.5 q-13 6.5 -30.5 9.5 q-17.5 3 -25.5 -12 q-14 -22 17 -45 q24 -17 43 -50 q8 -15 22 -22 q14 -7 29 -1 q29 16 14 52 q-16 30 -44 52 ZM575 530 q-30 27 -79 30 q-34 1 -73 -7 q-1 -1 -2 -1 q-5 -1 -8 2 q-3 3 -2 8 l17 66 q9 30 10 54 q2 38 -16 64 q-8 11 -24 14 q-16 3 -28 -5 q-13 -8 -16.5 -24 q-3.5 -16 5.5 -30 q5 -6 -6 -59 q-5 -29 -23 -94 q-3 -13 -16 -15 q-92 -13 -130 -2 q-17 4 -31.5 -3.5 q-14.5 -7.5 -19.5 -22.5 q-5 -14 3 -29.5 q8 -15.5 23 -20.5 q48 -13 133 -4 q5 1 7.5 -2.5 q2.5 -3.5 1.5 -7.5 q-76 -256 -144 -363 q-9 -11 -7.5 -29.5 q1.5 -18.5 16.5 -26.5 q31 -18 57 14 q67 113 137 341 q12 35 21 75 q5 14 17 15 q5 1 19.5 3.5 q14.5 2.5 22.5 4.5 q63 13 79 -3 q15 -13 7 -64 q-34 -197 -39 -238 q-5 -36 -15.5 -46 q-10.5 -10 -26.5 -7 q-5 1 -17 4 q-12 3 -29 7 q-17 4 -29 7 q-20 7 -33.5 -10.5 q-13.5 -17.5 -11 -39 q2.5 -21.5 19.5 -25.5 q3 -1 31 -10 q28 -9 35 -10.5 q7 -1.5 30.5 -5 q23.5 -3.5 34.5 -0.5 q11 3 27.5 10 q16.5 7 29.5 21 q42 50 72 330 q8 46 0 78 q-7 33 -30 57 ZM813 459 q-27 32 -49 48 q-10 7 -25 15 q-25 10 -43 -9 q-10 -10 -10 -26.5 q0 -16.5 10 -27.5 q84 -81 109 -139 q6 -13 -7 -18 q-22 -14 -18 -40 q2 -16 15 -26 q11 -9 23 -9 q11 0 20 6 q3 2 11 7 q8 5 11 7 q3 2 9 6.5 q6 4.5 9 8.5 q3 4 6.5 9.5 q3.5 5.5 5.5 11.5 q14 67 -77 176 Z" /><glyph glyph-name="Japan1.854" unicode="&#x304d;" d="M826.5 501 q3.5 16 -4.5 30 q-8 14 -25 18 q-17 4 -31 -4 q-43 -26 -141 -56 q-12 -5 -17 9 q-5 17 -15 43 q-6 19 -7 24 q-6 12 8 15 q6 2 27 8 q52 19 61 22 q14 5 22 20.5 q8 15.5 4 30.5 q-5 14 -19.5 21.5 q-14.5 7.5 -30.5 3.5 q-14 -5 -87 -32 q-12 -4 -15 8 q-15 58 -15 75 q0 16 -12 27.5 q-12 11.5 -28 11.5 q-16 0 -27.5 -11.5 q-11.5 -11.5 -11.5 -27.5 q0 -25 18 -94 q3 -10 -9 -14 q-96 -21 -178 -18 q-41 0 -44 -33 q-4 -35 25 -44 q5 -5 72.5 -1.5 q67.5 3.5 144.5 19.5 q13 3 17 -9 q1 -4 4.5 -13.5 q3.5 -9.5 5.5 -15.5 q1 -4 5 -16 q4 -12 7 -19 q4 -11 -7 -13 q-133 -24 -281 -24 q-16 0 -28 -13 q-12 -13 -11 -29 q0 -16 12 -28 q12 -12 28 -12 q117 0 272 20 q7 2 21.5 4 q14.5 2 15.5 2 q12 3 18 -10 q3 -6 12.5 -25.5 q9.5 -19.5 14.5 -29.5 q5 -9 -5 -9 q-42 6 -76 7 q-68 3 -121 -6 q-67 -12 -107 -42 q-49 -37 -54 -100 q-4 -58 49 -101 q58 -51 173 -65 q35 -5 79 -5 q69 0 131 15 q16 4 25 18.5 q9 14.5 6 30.5 q-4 16 -19 24.5 q-15 8.5 -32 6.5 q-76 -22 -178 -10 q-23 3 -38 7 q-67 13 -96 39.5 q-29 26.5 -24.5 49 q4.5 22.5 25.5 33.5 q97 64 298 12 q9 -2 29.5 -10 q20.5 -8 34.5 -7.5 q14 0.5 27 13.5 q22 28 0 57 q-1 2 -14 15 q-13 13 -22 29 q-26 45 -39 73 q-6 12 8 15 q6 2 8 2 q73 23 145 63 q13 9 16.5 25 Z" /><glyph glyph-name="Japan1.855" unicode="&#x304e;" d="M870 757 q-12 10 -25 16.5 q-13 6.5 -30.5 9.5 q-17.5 3 -25.5 -12 q-14 -23 18 -45 q32 -24 42 -49 q19 -34 50 -23 q31 17 13 51 q-11 27 -42 52 ZM785 708 q-12 10 -25 16.5 q-13 6.5 -30.5 9.5 q-17.5 3 -25.5 -12 q-15 -22 17 -45 q21 -14 43 -49 q7 -16 21 -23 q14 -7 29 0 q29 14 15 51 q-15 29 -44 52 ZM805 532 q-9 14 -25.5 18 q-16.5 4 -30.5 -5 q-59 -34 -140 -57 q-14 -3 -18 10 q-3 7 -8 22 q-5 15 -7 22 q-6 16 -8 23 q-5 12 9 15 q9 4 26 9 q40 14 62 22 q14 5 22 20 q8 15 4 30 q-5 14 -19.5 21.5 q-14.5 7.5 -30.5 3.5 q-15 -5 -44.5 -16 q-29.5 -11 -42.5 -15 q-12 -3 -15 8 q-15 50 -15 73 q0 16 -12 28 q-12 12 -28 12 q-16 0 -27.5 -11.5 q-11.5 -11.5 -11.5 -28.5 q0 -26 18 -91 q3 -12 -9 -15 q-96 -21 -178 -18 q-41 0 -44 -33 q-2 -15 5 -27.5 q7 -12.5 21 -16.5 q3 -5 71 -1.5 q68 3.5 145 19.5 q12 3 17 -10 q1 -3 4.5 -12.5 q3.5 -9.5 5.5 -15.5 q5 -20 12 -35 q3 -11 -7 -13 q-133 -24 -282 -24 q-16 0 -28 -13 q-12 -13 -11 -29 q0 -16 12 -28 q12 -12 28 -12 q130 0 273 20 q7 2 21.5 4 q14.5 2 15.5 2 q12 1 18 -11 q11 -25 27 -55 q3 -8 -5 -8 q-31 4 -76 6 q-67 3 -121 -5 q-68 -13 -107 -41 q-49 -40 -54 -101 q-4 -61 49 -101 q60 -51 173 -65 q35 -5 79 -5 q70 0 132 15 q15 5 24 19.5 q9 14.5 5 30.5 q-4 15 -18.5 23.5 q-14.5 8.5 -31.5 5.5 q-77 -21 -179 -9 q-36 6 -38 6 q-66 13 -95 39.5 q-29 26.5 -24.5 49.5 q4.5 23 25.5 34 q95 63 299 11 q8 -2 28.5 -10 q20.5 -8 34 -7.5 q13.5 0.5 27.5 13.5 q22 28 0 58 q-3 4 -9.5 10 q-6.5 6 -13 14 q-6.5 8 -13.5 20 q-26 45 -39 72 q-5 12 7 15 q6 2 9 2 q77 24 144 64 q13 7 17 24 q4 17 -4 31 Z" /><glyph glyph-name="Japan1.856" unicode="&#x304f;" d="M547 751 q-53 -124 -191 -274 q-33 -38 -34 -70 q-5 -45 32 -84 q154 -182 217 -330 q11 -24 40 -24 q7 0 16 3 q15 7 21.5 23.5 q6.5 16.5 1.5 32.5 q-41 96 -112.5 197.5 q-71.5 101.5 -118.5 153.5 q-8 10 -8 19 q0 9 3 14 q3 5 13 18 q158 177 200 291 q7 16 -0.5 32 q-7.5 16 -22.5 22 q-17 6 -34 -1.5 q-17 -7.5 -23 -22.5 Z" /><glyph glyph-name="Japan1.857" unicode="&#x3050;" d="M828 659 q-12 10 -25 16.5 q-13 6.5 -30.5 9.5 q-17.5 3 -25.5 -12 q-15 -22 17 -45 q30 -22 43 -50 q7 -15 20.5 -22 q13.5 -7 29.5 -1 q29 17 14 52 q-14 30 -43 52 ZM742 610 q-12 10 -25 16.5 q-13 6.5 -30.5 9.5 q-17.5 3 -25.5 -12 q-14 -22 18 -46 q25 -18 42 -49 q8 -15 22 -22 q14 -7 29 -1 q29 15 14 51 q-15 31 -44 53 ZM537 751 q-53 -124 -191 -274 q-33 -38 -34 -70 q-5 -45 33 -84 q42 -48 110.5 -145 q68.5 -97 105.5 -185 q10 -24 40 -24 q7 0 17 3 q15 7 21 23.5 q6 16.5 1 32.5 q-41 96 -112.5 197.5 q-71.5 101.5 -118.5 153.5 q-8 10 -8 19 q0 9 3 14 q3 5 13 18 q158 177 201 291 q6 16 -1.5 32 q-7.5 16 -22.5 22 q-17 6 -33.5 -1.5 q-16.5 -7.5 -23.5 -22.5 Z" /><glyph glyph-name="Japan1.858" unicode="&#x3051;" d="M288 733 q-16 5 -32.5 -2 q-16.5 -7 -22.5 -23 q-42 -109 -56 -244 q-19 -192 46 -387 q5 -15 20.5 -21.5 q15.5 -6.5 33.5 -2.5 q15 5 22 20.5 q7 15.5 2 31.5 q-27 77 -37.5 157 q-10.5 80 -10 133.5 q0.5 53.5 13 120.5 q12.5 67 19 89 q6.5 22 21.5 66 q2 7 3 10 q6 15 -1 30 q-7 15 -21 22 ZM881 529 q-2 15 -14.5 24.5 q-12.5 9.5 -28.5 6.5 q-50 -10 -122 -17 q-5 -1 -9.5 2.5 q-4.5 3.5 -4.5 8.5 q-8 124 -16 152 q-5 15 -19.5 23 q-14.5 8 -30.5 4 q-15 -5 -23.5 -20.5 q-8.5 -15.5 -3.5 -30.5 q8 -20 14 -133 q1 -6 -3.5 -11 q-4.5 -5 -9.5 -5 q-136 -6 -234 6 q-15 2 -29 -7.5 q-14 -9.5 -15 -23.5 q-2 -15 8 -28.5 q10 -13.5 25 -15.5 q70 -9 151 -9 q50 0 95 3 q14 0 14 -13 q2 -164 -10 -208 q-24 -102 -177 -158 q-15 -6 -22 -21.5 q-7 -15.5 -2 -30.5 q11 -25 39 -25 q32 4 81.5 31 q49.5 27 81.5 56 q59 55 77 131 q15 57 12 231 q0 14 13 16 q83 8 135 19 q14 2 22.5 15 q8.5 13 5.5 28 Z" /><glyph glyph-name="Japan1.859" unicode="&#x3052;" d="M886 758 q-11 9 -24 16.5 q-13 7.5 -30 10 q-17 2.5 -26 -12.5 q-14 -22 17 -45 q28 -19 43 -49 q7 -15 20.5 -22 q13.5 -7 29.5 -1 q30 16 13 51 q-14 30 -43 52 ZM802 709 q-12 10 -25 16.5 q-13 6.5 -30.5 9.5 q-17.5 3 -25.5 -12 q-15 -22 17 -45 q21 -14 43 -49 q7 -15 21 -22 q14 -7 29 -1 q29 16 14 52 q-13 28 -43 51 ZM281 734 q-16 5 -32.5 -2 q-16.5 -7 -21.5 -23 q-44 -111 -56 -243 q-19 -192 45 -386 q14 -33 55 -25 q33 13 24 52 q-28 80 -38.5 163 q-10.5 83 -9.5 138 q1 55 15 122.5 q14 67.5 20.5 88 q6.5 20.5 20.5 62.5 q6 14 -1 30 q-7 16 -21 23 ZM875 530 q-2 15 -14.5 24.5 q-12.5 9.5 -28.5 7.5 q-66 -13 -123 -17 q-5 -1 -9.5 2.5 q-4.5 3.5 -4.5 8.5 q-6 119 -16 151 q-5 15 -19 23 q-14 8 -30 4 q-15 -5 -24 -20.5 q-9 -15.5 -3 -30.5 q8 -20 13 -133 q1 -5 -3 -10 q-4 -5 -10 -5 q-134 -8 -233 6 q-16 2 -29 -8 q-13 -10 -15 -24 q-2 -15 7.5 -28.5 q9.5 -13.5 25.5 -14.5 q71 -9 151 -9 q50 0 95 3 q14 0 14 -13 q2 -157 -10 -208 q-24 -102 -178 -158 q-15 -6 -22 -21 q-7 -15 -2 -30 q12 -26 39 -26 q32 4 82 31 q50 27 82 55 q57 53 77 132 q14 59 11 230 q0 14 13 16 q50 5 135 18 q14 2 23 15.5 q9 13.5 6 28.5 Z" /><glyph glyph-name="Japan1.860" unicode="&#x3053;" d="M231 256 q-22 16 -39.5 13.5 q-17.5 -2.5 -27.5 -15.5 q-10 -13 -8.5 -32 q1.5 -19 14.5 -32 q55 -48 124 -81 q87 -40 190 -44 q170 0 324 45 q56 12 44 59 q-10 26 -26.5 30 q-16.5 4 -34.5 -3 q-157 -41 -295 -41 q-92 2 -148 26 q-56 24 -117 75 ZM754 598 q-8 40 -49 35 q-129 -14 -241 -14 q-40 1 -79 4.5 q-39 3.5 -66 7 q-27 3.5 -32 3.5 q-15 1 -26.5 -8.5 q-11.5 -9.5 -13.5 -24.5 q-9 -40 27 -50 q67 -15 189 -15 q103 0 254 14 q42 5 37 48 Z" /><glyph glyph-name="Japan1.861" unicode="&#x3054;" d="M876 744 q-11 9 -24 16.5 q-13 7.5 -30 10 q-17 2.5 -26 -12.5 q-15 -22 17 -45 q30 -20 43 -49 q17 -35 49 -23 q31 17 14 51 q-14 30 -43 52 ZM791 695 q-12 10 -25 16.5 q-13 6.5 -30.5 9.5 q-17.5 3 -25.5 -12 q-13 -21 17 -45 q26 -18 43 -49 q8 -15 22 -22 q14 -7 29 -1 q29 16 14 52 q-16 31 -44 51 ZM209 257 q-22 16 -39.5 13.5 q-17.5 -2.5 -27.5 -16.5 q-10 -13 -8.5 -32.5 q1.5 -19.5 14.5 -31.5 q54 -47 125 -81 q84 -39 190 -43 q172 0 323 44 q24 5 37.5 20 q13.5 15 6.5 39 q-10 26 -26.5 30 q-16.5 4 -34.5 -3 q-157 -41 -295 -41 q-92 2 -148 26.5 q-56 24.5 -117 75.5 ZM732 598 q-7 40 -49 35 q-129 -14 -240 -14 q-40 1 -79.5 4.5 q-39.5 3.5 -66.5 7 q-27 3.5 -32 3.5 q-15 1 -26 -8.5 q-11 -9.5 -14 -24.5 q-10 -40 29 -50 q65 -15 188 -15 q106 0 253 14 q42 5 37 48 Z" /><glyph glyph-name="Japan1.862" unicode="&#x3055;" d="M616 361 q-97 22 -169.5 8.5 q-72.5 -13.5 -117.5 -51 q-45 -37.5 -62.5 -88 q-17.5 -50.5 -5.5 -101.5 q20 -63 85 -97.5 q65 -34.5 160 -39.5 q54 -4 107.5 2.5 q53.5 6.5 79.5 15.5 l26 8 q38 15 27 55 q-7 16 -22.5 23.5 q-15.5 7.5 -32.5 2.5 q-104 -34 -179.5 -30.5 q-75.5 3.5 -118 27.5 q-42.5 24 -50.5 61 q-13 71 41 109 q64 40 151 35.5 q87 -4.5 184 -46.5 q1 0 11.5 -4.5 q10.5 -4.5 16.5 -5.5 q27 -5 40 14 q10 12 9 29.5 q-1 17.5 -13 28.5 q-102 95 -178 201 q-7 10 5 14 q77 27 133 71 q13 8 14.5 25 q1.5 17 -8.5 30 q-9 13 -25.5 14.5 q-16.5 1.5 -29.5 -7.5 q-47 -38 -127 -62 q-12 -3 -19 8 q-34 67 -36 105 q-1 17 -14 29 q-13 12 -31 11 q-17 -1 -28.5 -13.5 q-11.5 -12.5 -11.5 -29.5 q1 -52 37 -123 q3 -4 1.5 -8 q-1.5 -4 -6.5 -5 q-124 -25 -238 -25 q-17 0 -28.5 -12 q-11.5 -12 -11.5 -27 q0 -15 11.5 -27 q11.5 -12 28.5 -12 q133 1 278 30 q15 2 21 -9 q66 -90 100 -130 q2 -2 0.5 -3.5 q-1.5 -1.5 -4.5 -0.5 Z" /><glyph glyph-name="Japan1.863" unicode="&#x3056;" d="M893 769 q-11 10 -24.5 17 q-13.5 7 -30 9.5 q-16.5 2.5 -25.5 -11.5 q-14 -23 17 -46 q28 -19 43 -49 q7 -14 21 -21 q14 -7 29 -1 q31 16 13 50 q-14 29 -43 52 ZM809 720 q-12 10 -25 16.5 q-13 6.5 -30.5 9.5 q-17.5 3 -25.5 -12 q-15 -22 17 -45 q24 -16 43 -49 q7 -15 21 -22 q14 -7 29 -1 q29 16 14 52 q-14 29 -43 51 ZM601 362 q-98 23 -170.5 9.5 q-72.5 -13.5 -117.5 -51 q-45 -37.5 -62.5 -88.5 q-17.5 -51 -5.5 -102 q20 -62 85.5 -96.5 q65.5 -34.5 159.5 -40.5 q55 -3 108 4 q53 7 79 15 l26 9 q18 7 25 22 q7 15 2 32 q-7 16 -22 23.5 q-15 7.5 -32 2.5 q-105 -34 -180.5 -30.5 q-75.5 3.5 -118 27.5 q-42.5 24 -50.5 61 q-12 70 42 110 q63 40 150 35 q87 -5 184 -47 q4 -1 13.5 -5.5 q9.5 -4.5 15.5 -5.5 q24 -5 40 15 q10 12 8.5 29 q-1.5 17 -13.5 28 q-104 96 -178 202 q-6 10 5 14 q80 28 133 70 q13 8 15 25 q2 17 -8 30 q-21 28 -56 7 q-48 -38 -126 -62 q-13 -3 -20 9 q-35 69 -36 103 q-1 17 -14 29.5 q-13 12.5 -30 11.5 q-16 -1 -28 -14 q-12 -13 -12 -30 q0 -47 37 -121 q6 -11 -6 -13 q-124 -25 -237 -25 q-17 0 -28.5 -12 q-11.5 -12 -11.5 -27 q0 -17 11.5 -28 q11.5 -11 28.5 -11 q145 2 277 28 q13 3 22 -8 q67 -90 99 -129 q1 -4 -3 -5 Z" /><glyph glyph-name="Japan1.864" unicode="&#x3057;" d="M356 287 q-2 70 8.5 166.5 q10.5 96.5 11.5 115.5 q3 64 -7 96 q-17 36 -51 56 q-14 9 -29.5 4.5 q-15.5 -4.5 -25.5 -18.5 q-8 -12 -4 -28.5 q4 -16.5 18 -24.5 q22 -13 20 -64 l-4 -62 q-18 -134 -17 -244 q6 -175 82 -239 q53 -46 133 -46 q50 0 108 19 q114 37 231 151 q29 25 4 56 q-11 13 -26 14 q-15 1 -31 -12 q-106 -98 -206 -134 q-104 -36 -164 14 q-46 39 -51 180 Z" /><glyph glyph-name="Japan1.865" unicode="&#x3058;" d="M747 662 q-56 47 -81 15 q-15 -23 17 -46 q30 -21 42 -49 q19 -36 51 -23 q32 16 13 51 q-11 27 -42 52 ZM661 613 q-12 10 -24.5 16.5 q-12.5 6.5 -30 9.5 q-17.5 3 -25.5 -12 q-14 -22 17 -46 q22 -15 42 -49 q7 -15 21 -21.5 q14 -6.5 29 -1.5 q28 16 15 52 q-16 30 -44 52 ZM352 287 q-1 53 2.5 99 q3.5 46 10 97.5 q6.5 51.5 8.5 85.5 q3 65 -8 96 q-17 36 -51 56 q-14 9 -29.5 4.5 q-15.5 -4.5 -25.5 -18.5 q-8 -12 -4 -28.5 q4 -16.5 18 -24.5 q22 -13 20 -64 l-4 -62 q-18 -134 -17 -244 q6 -175 82 -239 q53 -46 133 -46 q50 0 108 19 q114 37 231 151 q29 25 4 56 q-11 13 -26 14 q-15 1 -31 -12 q-106 -98 -206 -134 q-104 -36 -164 14 q-46 39 -51 180 Z" /><glyph glyph-name="Japan1.866" unicode="&#x3059;" d="M525 254 q0 -55 -43 -106 q-50 -54 -138 -59 q-16 -2 -26 -12.5 q-10 -10.5 -9 -26.5 q0 -15 9.5 -25 q9.5 -10 26.5 -10 q107 0 192 88 q59 67 59 154 q0 69 -21 113 q-7 14 -7 26 q1 28 1 112 q0 12 13 12 q172 9 242 -2 q12 -4 24 4.5 q12 8.5 14 21.5 q2 14 -6.5 26 q-8.5 12 -21.5 14 q-56 7 -252 3 q-13 -2 -13 11 q-1 56 -1 123 q0 15 -11 25.5 q-11 10.5 -27 10.5 q-14 0 -24.5 -11 q-10.5 -11 -9.5 -26 q0 -17 0.5 -58.5 q0.5 -41.5 0.5 -65.5 q0 -11 -11 -13 q-34 -2 -52 -3 q-225 -10 -256 -4 q-13 2 -24.5 -6 q-11.5 -8 -15.5 -21 q-3 -14 5.5 -25 q8.5 -11 22.5 -16 q21 -3 65 -3 q82 0 207 7 q8 0 24.5 1 q16.5 1 24.5 2 q4 1 7.5 -2.5 q3.5 -3.5 3.5 -7.5 l0 -47 q0 -4 -3 -6 q-3 -2 -6 0 q-35 10 -69 10 q-65 -1 -97.5 -40 q-32.5 -39 -30.5 -93 q2 -56 33 -90.5 q31 -34.5 96 -33.5 q60 3 100 50 q4 6 4 -1 ZM418 277 q-48 1 -55 47 q-4 29 11.5 48.5 q15.5 19.5 43.5 21.5 q38 0 69 -21 q8 -10 5 -22 q-14 -72 -74 -74 Z" /><glyph glyph-name="Japan1.867" unicode="&#x305a;" d="M345 5 l0 0 ZM834 780 q-11 9 -24.5 16 q-13.5 7 -30.5 9.5 q-17 2.5 -26 -11.5 q-14 -23 17 -46 q28 -19 43 -49 q19 -35 51 -22 q29 14 12 50 q-12 28 -42 53 ZM749 730 q-12 10 -25 16.5 q-13 6.5 -30.5 9.5 q-17.5 3 -25.5 -12 q-15 -22 17 -45 q25 -18 43 -49 q7 -15 21 -22 q14 -7 29 -1 q29 16 14 52 q-14 29 -43 51 ZM515 249 q0 -59 -46 -113 q-52 -55 -145 -61 q-17 -2 -27.5 -13.5 q-10.5 -11.5 -9.5 -27.5 q1 -16 11 -26 q10 -10 27 -10 q114 0 202 91 q62 72 62 163 q0 77 -22 118 q-6 18 -6 27 q1 30 1 118 q0 14 13 14 q184 7 254 -3 q13 -4 25.5 5 q12.5 9 14.5 22 q2 15 -6.5 27.5 q-8.5 12.5 -21.5 14.5 q-66 9 -266 3 q-13 -2 -13 12 q-1 59 -1 130 q0 15 -11.5 26 q-11.5 11 -28.5 11 q-15 0 -26 -11.5 q-11 -11.5 -11 -26.5 q0 -19 0.5 -63 q0.5 -44 0.5 -68 q0 -12 -12 -14 l-21 -1 q-22 -1 -33 -2 q-237 -10 -270 -4 q-14 3 -25.5 -6 q-11.5 -9 -15.5 -23 q-2 -14 6 -25.5 q8 -11.5 21 -16.5 q27 -5 70 -5 q50 0 219 9 q9 0 25.5 1 q16.5 1 24.5 2 q5 1 8.5 -2.5 q3.5 -3.5 3.5 -8.5 l0 -49 q0 -10 -10 -7 q-35 11 -71 11 q-69 -1 -103 -42.5 q-34 -41.5 -32 -97.5 q2 -58 35 -95 q33 -37 101 -36 q65 5 104 54 q3 3 5 -1 ZM403 273 q-51 1 -59 50 q-4 29 12.5 49.5 q16.5 20.5 46.5 22.5 q41 2 71 -22 q10 -9 7 -23 q-19 -75 -78 -77 Z" /><glyph glyph-name="Japan1.868" unicode="&#x305b;" d="M397 423 q27 6 189 35 q5 0 9.5 -4 q4.5 -4 4.5 -9 q2 -80 2 -93 q0 -37 -14 -47 q-19 -13 -82 1 q-39 6 -52 -30 q-4 -16 5 -30 q9 -14 25 -19 q98 -25 152 16 q46 37 46 109 q0 15 -2 107 q0 13 14 15 q100 10 153 10 q18 0 29.5 12 q11.5 12 11.5 29 q0 16 -11.5 28 q-11.5 12 -29.5 12 q-73 0 -155 -10 q-5 -1 -9.5 3 q-4.5 4 -4.5 9 q-4 97 -4 147 q-1 16 -13.5 27.5 q-12.5 11.5 -28.5 11.5 q-16 -1 -27.5 -13 q-11.5 -12 -10.5 -28 q0 -50 4 -158 q0 -14 -14 -17 q-35 -6 -104.5 -19 q-69.5 -13 -82.5 -15 q-5 -1 -9 3 q-4 4 -4 9 l0 178 q0 17 -11 28 q-11 11 -27 11 q-19 0 -30.5 -10.5 q-11.5 -10.5 -11.5 -28.5 l0 -191 q0 -13 -14 -15 q-75 -9 -143 -8 l-1 0 q-17 0 -28.5 -11 q-11.5 -11 -12.5 -28 q-1 -17 10.5 -29.5 q11.5 -12.5 30.5 -12.5 q70 0 144 8 q5 1 9.5 -3 q4.5 -4 4.5 -9 l0 -194 q0 -77 47 -122 q43 -45 132 -45 q132 1 272 19 q16 2 26.5 15 q10.5 13 9.5 30 q-2 16 -15.5 27 q-13.5 11 -30.5 9 l-8 -1 q-8 -1 -22 -2.5 q-14 -1.5 -33 -3.5 q-19 -2 -42 -4.5 q-23 -2.5 -47.5 -4 q-24.5 -1.5 -52.5 -2.5 q-28 -1 -54 -1 q-58 0 -80 22.5 q-22 22.5 -22 63.5 l0 207 q0 14 13 16 Z" /><glyph glyph-name="Japan1.869" unicode="&#x305c;" d="M876 755 q-11 9 -24 16.5 q-13 7.5 -30 10 q-17 2.5 -26 -12.5 q-14 -21 17 -46 q27 -18 43 -48 q17 -35 49 -23 q30 17 14 51 q-14 30 -43 52 ZM791 706 q-11 9 -24.5 16 q-13.5 7 -30.5 9.5 q-17 2.5 -26 -11.5 q-14 -22 17 -45 q26 -18 43 -49 q8 -16 22 -23 q14 -7 29 0 q29 15 14 51 q-15 28 -44 52 ZM387 421 q62 11 189 34 q5 1 9.5 -3.5 q4.5 -4.5 4.5 -9.5 q2 -78 2 -93 q0 -35 -15 -47 q-18 -13 -82 1 q-39 7 -52 -29 q-6 -35 30 -50 q39 -12 80 -9.5 q41 2.5 72 25.5 q47 39 47 109 q0 15 -2 107 q0 14 13 15 q75 9 154 9 q18 0 29.5 12 q11.5 12 11.5 30 q0 16 -11.5 28 q-11.5 12 -29.5 12 q-74 0 -156 -10 q-5 -1 -9.5 3 q-4.5 4 -4.5 9 q-4 97 -4 146 q-1 16 -13 27.5 q-12 11.5 -28 11.5 q-16 -1 -28 -13 q-12 -12 -11 -28 q0 -49 4 -157 q0 -13 -13 -16 q-33 -6 -101.5 -19 q-68.5 -13 -85.5 -16 q-5 -1 -9 3 q-4 4 -4 9 l0 177 q0 17 -11.5 28 q-11.5 11 -27.5 11 q-19 0 -30.5 -10.5 q-11.5 -10.5 -11.5 -28.5 l0 -191 q0 -13 -14 -15 q-94 -8 -142 -7 l-1 0 q-17 0 -29 -10.5 q-12 -10.5 -13 -28.5 q-1 -17 10.5 -29.5 q11.5 -12.5 31.5 -12.5 q71 0 143 8 q5 1 9.5 -3 q4.5 -4 4.5 -9 l0 -194 q0 -76 47 -121 q45 -45 132 -45 q109 1 273 19 q16 2 26.5 15 q10.5 13 8.5 29 q-2 16 -15.5 27 q-13.5 11 -30.5 9 l-8 -1 q-8 -1 -22 -2.5 q-14 -1.5 -33 -4 q-19 -2.5 -42 -4.5 q-23 -2 -47.5 -3.5 q-24.5 -1.5 -52.5 -2.5 q-28 -1 -54 -1 q-58 0 -79.5 22 q-21.5 22 -21.5 64 l0 207 q0 16 13 17 Z" /><glyph glyph-name="Japan1.870" unicode="&#x305d;" d="M504 711 q-102 -55 -178 -48 q-16 4 -29.5 -4.5 q-13.5 -8.5 -18.5 -24.5 q-4 -15 4 -28 q8 -13 23 -18 q33 -8 90 2.5 q57 10.5 107 37.5 l0 1 q-99 -79 -204 -172 q-96 -81 -109 -107 q-8 -18 -1.5 -36.5 q6.5 -18.5 28.5 -26.5 q22 -8 65 10 q75 40 156 70 l1 -1 l-1 -2 q-79 -103 -65 -212 q10 -81 83 -121 q47 -28 115.5 -34.5 q68.5 -6.5 146.5 12.5 q36 10 25 48 q-4 17 -18 24.5 q-14 7.5 -31 2.5 q-111 -30 -172 -2.5 q-61 27.5 -71 84.5 q-10 77 45 149 q55 72 99 87 q131 37 196 36 l2 0 q16 0 27 11 q11 11 11 27 q1 16 -10 26.5 q-11 10.5 -27 10.5 q-84 -2 -186 -24.5 q-102 -22.5 -159.5 -41.5 q-57.5 -19 -97.5 -36 l0 -1 q27 24 60.5 52 q33.5 28 80.5 65.5 q47 37.5 52 41.5 q30 25 45.5 38 q15.5 13 34.5 40.5 q19 27.5 15 48.5 q-5 24 -33 38 q-6 2 -13 3 q-7 1 -12 1.5 q-5 0.5 -12.5 -1.5 q-7.5 -2 -11.5 -3 q-4 -1 -13 -5 q-9 -4 -12 -5 q-3 -1 -14 -6.5 q-11 -5.5 -13 -6.5 Z" /><glyph glyph-name="Japan1.871" unicode="&#x305e;" d="M196 348 l0 0 ZM852 723 q-12 10 -24.5 16.5 q-12.5 6.5 -29.5 9 q-17 2.5 -26 -11.5 q-15 -22 17 -46 q30 -19 42 -48 q20 -36 50 -23 q32 16 13 51 q-12 27 -42 52 ZM767 674 q-58 45 -81 13 q-14 -21 17 -44 q23 -16 43 -50 q7 -15 21 -22 q14 -7 29 -1 q28 16 15 52 q-16 30 -44 52 ZM498 710 q-104 -55 -178 -46 q-16 4 -29.5 -4.5 q-13.5 -8.5 -18.5 -24.5 q-4 -15 4.5 -28 q8.5 -13 23.5 -18 q32 -8 89 2 q57 10 107 37 q-1 3 0 3 q-4 -4 -93.5 -79.5 q-89.5 -75.5 -110.5 -93.5 q-96 -81 -109 -108 q-8 -17 -1.5 -35 q6.5 -18 28.5 -26 q22 -8 65 9 q84 42 156 69 q1 1 1.5 0 q0.5 -1 -0.5 -2 q-80 -104 -66 -212 q11 -81 84 -121 q47 -28 115 -34.5 q68 -6.5 146 12.5 q36 11 26 49 q-5 16 -19 23 q-14 7 -30 2 q-112 -28 -173 -1.5 q-61 26.5 -71 83.5 q-5 41 10 83.5 q15 42.5 40.5 73.5 q25.5 31 51 52 q25.5 21 42.5 27 q131 37 196 36 l2 0 q16 0 27 11.5 q11 11.5 11 27.5 q1 15 -10 26 q-11 11 -27 11 q-84 -3 -186 -25.5 q-102 -22.5 -159.5 -41.5 q-57.5 -19 -97.5 -36 q26 24 62.5 54 q36.5 30 76.5 61.5 q40 31.5 54 43.5 q29 23 45.5 37 q16.5 14 35.5 41 q19 27 14 47 q-5 27 -33 38 q-5 2 -10.5 3.5 q-5.5 1.5 -11.5 1 q-6 -0.5 -10.5 -0.5 q-4.5 0 -11.5 -2.5 q-7 -2.5 -10.5 -3 q-3.5 -0.5 -11.5 -4.5 q-8 -4 -10.5 -5 q-2.5 -1 -12.5 -6 q-10 -5 -12 -6 Z" /><glyph glyph-name="Japan1.872" unicode="&#x305f;" d="M339 249 q38 100 61 205 q3 13 16 16 q70 17 123 64 q14 12 14 31.5 q0 19.5 -10 30.5 q-11 13 -29.5 13 q-18.5 0 -29.5 -11 q-26 -21 -50 -36 q-4 -3 -6.5 -1 q-2.5 2 -1.5 7 q20 115 20 156 q1 16 -11.5 28.5 q-12.5 12.5 -29.5 13.5 q-17 0 -29.5 -11.5 q-12.5 -11.5 -13.5 -28.5 q0 -59 -23 -178 q-2 -13 -16 -13 q-55 -1 -149 13 q-17 2 -29.5 -8 q-12.5 -10 -14.5 -26 q-3 -35 36 -47 q59 -14 138 -12 q5 0 8 -3.5 q3 -3.5 2 -8.5 q-59 -226 -147 -360 q-21 -31 9 -55 q12 -9 29 -6 q17 3 28 18 q57 83 106 209 ZM868 109 q-17 37 -55 24 q-97 -34 -195 -9 q-66 16 -125 53 q-16 11 -32 9.5 q-16 -1.5 -26 -15.5 q-21 -31 8 -57 q55 -46 155 -70 q126 -29 237 11 q20 7 29 22.5 q9 15.5 4 31.5 ZM834 401 q21 30 -3 57 q-54 51 -149 59 q-71 4 -133 -8 q-15 -3 -24 -18.5 q-9 -15.5 -5 -31.5 q10 -27 37 -27 q9 0 32 2.5 q23 2.5 39 3.5 q16 1 46 0 q72 -9 101 -36 q19 -14 33.5 -13 q14.5 1 25.5 12 Z" /><glyph glyph-name="Japan1.873" unicode="&#x3060;" d="M861 746 q-12 10 -25 16.5 q-13 6.5 -30.5 9.5 q-17.5 3 -25.5 -12 q-14 -22 17 -46 q29 -20 43 -48 q7 -14 21 -21.5 q14 -7.5 28 -1.5 q31 17 14 51 q-14 29 -42 52 ZM776 697 q-57 45 -81 14 q-15 -22 17 -45 q24 -17 42 -49 q8 -16 22 -23 q14 -7 29 0 q29 15 14 51 q-13 28 -43 52 ZM336 249 q28 74 62 205 q1 13 16 16 q72 18 122 65 q14 11 14 31 q0 20 -10 31 q-11 13 -29.5 13 q-18.5 0 -29.5 -11 q-31 -26 -50 -36 q-4 -3 -6.5 -1 q-2.5 2 -1.5 6 q20 115 20 155 q1 17 -11.5 30 q-12.5 13 -29.5 14 q-17 0 -29.5 -12 q-12.5 -12 -13.5 -29 q0 -58 -22 -178 q-4 -13 -16 -13 q-43 -1 -150 13 q-17 2 -29 -8 q-12 -10 -14 -26 q-5 -35 35 -47 q66 -13 139 -12 q5 0 7.5 -3.5 q2.5 -3.5 1.5 -7.5 q-59 -226 -147 -360 q-10 -17 -6.5 -31 q3.5 -14 15.5 -23 q12 -9 29 -6.5 q17 2.5 28 17.5 q56 81 106 208 ZM865 110 q-18 37 -55 23 q-99 -35 -195 -8 q-66 16 -125 53 q-36 23 -58 -7 q-21 -31 8 -57 q52 -44 155 -68 q126 -28 238 10 q20 7 28.5 22.5 q8.5 15.5 3.5 31.5 ZM831 402 q22 29 -3 56 q-53 49 -148 60 q-72 5 -134 -9 q-15 -3 -24 -18.5 q-9 -15.5 -5 -30.5 q10 -28 37 -28 q9 0 32 3 q23 3 39.5 4 q16.5 1 45.5 -1 q72 -9 102 -35 q18 -14 32.5 -13 q14.5 1 25.5 12 Z" /><glyph glyph-name="Japan1.874" unicode="&#x3061;" d="M392 -6 q76 0 159.5 27 q83.5 27 156 88 q72.5 61 88.5 142 q13 75 -37.5 130.5 q-50.5 55.5 -146.5 57.5 q-113 3 -195 -50 q-4 -3 -6 0 q-1 2 0 3 q10 47 20 128 q2 12 15 14 q120 18 226 60 q16 6 23.5 19 q7.5 13 1.5 29 q-17 29 -51 17 q-83 -32 -190 -50 q-5 -1 -9 2.5 q-4 3.5 -3 8.5 q1 8 4 31 q3 23 5 42.5 q2 19.5 3 29.5 q1 14 -8 27.5 q-9 13.5 -23 15.5 q-16 3 -30 -6.5 q-14 -9.5 -17 -25.5 q-1 -10 -3.5 -34 q-2.5 -24 -5 -53.5 q-2.5 -29.5 -3.5 -39.5 q0 -12 -13 -14 q-88 -10 -118 -8 q-16 1 -27.5 -10 q-11.5 -11 -11.5 -26 q-1 -15 9 -25.5 q10 -10.5 26 -10.5 q32 -1 114 6 q5 1 8.5 -3 q3.5 -4 2.5 -9 q-28 -176 -64 -252 q-13 -27 16 -47 q14 -8 29.5 -3.5 q15.5 4.5 22.5 17.5 q37 72 108 106.5 q71 34.5 143 36.5 q38 0 68.5 -17 q30.5 -17 42 -50.5 q11.5 -33.5 -19.5 -83.5 q-43 -70 -140.5 -108 q-97.5 -38 -168.5 -38 q-15 0 -26.5 -9.5 q-11.5 -9.5 -12.5 -26.5 q-1 -16 10 -27 q11 -11 28 -11 Z" /><glyph glyph-name="Japan1.876" unicode="&#x3063;" d="M476 28 q52 3 118 25.5 q66 22.5 121 68.5 q38 34 58 82 q20 48 7 100 q-42 132 -185 129 q-55 -2 -142 -36 q-128 -46 -173 -49 q-18 -1 -31 1 q-13 2 -26.5 -7 q-13.5 -9 -15.5 -22 q0 -15 8.5 -27 q8.5 -12 22.5 -14 q75 -11 240 52 q91 33 134 32 q29 -1 51 -13 q22 -14 33 -29.5 q11 -15.5 17 -43.5 q9 -59 -48 -106 q-63 -52 -194 -74 q-13 -1 -22 -14 q-9 -13 -7 -26 q2 -12 11.5 -20.5 q9.5 -8.5 22.5 -8.5 Z" /><glyph glyph-name="Japan1.877" unicode="&#x3064;" d="M468 55 q66 4 155 35 q89 31 161 90 q51 45 76.5 107 q25.5 62 9.5 132 q-53 173 -244 167 q-17 0 -36 -3 q-19 -3 -32 -6 q-13 -3 -34.5 -9.5 q-21.5 -6.5 -29 -9 q-7.5 -2.5 -31 -10.5 q-23.5 -8 -24.5 -9 q-207 -76 -279 -65 q-16 3 -30 -7 q-14 -10 -17 -26 q-1 -18 8.5 -31 q9.5 -13 25.5 -16 q99 -14 321 69 q35 14 57.5 21 q22.5 7 61 16.5 q38.5 9.5 72.5 6 q34 -3.5 63 -18.5 q30 -19 46.5 -41.5 q16.5 -22.5 24.5 -61.5 q13 -85 -66 -148 q-89 -74 -266 -102 q-16 -2 -25.5 -16 q-9.5 -14 -7.5 -30 q2 -14 13.5 -24 q11.5 -10 26.5 -10 Z" /><glyph glyph-name="Japan1.878" unicode="&#x3065;" d="M904 736 q-12 10 -24.5 16.5 q-12.5 6.5 -30 9.5 q-17.5 3 -25.5 -12 q-14 -22 17 -46 q27 -19 42 -48 q19 -35 51 -23 q29 17 13 51 q-14 29 -43 52 ZM820 686 q-11 10 -24.5 17 q-13.5 7 -30.5 9.5 q-17 2.5 -26 -11.5 q-14 -22 17 -45 q21 -14 43 -49 q7 -16 21 -23 q14 -7 29 0 q29 15 14 51 q-13 28 -43 51 ZM457 62 q67 4 155 34.5 q88 30.5 160 89.5 q51 45 77 107 q26 62 9 131 q-53 173 -241 168 q-21 -1 -41 -3.5 q-20 -2.5 -44.5 -10 q-24.5 -7.5 -35 -10.5 q-10.5 -3 -39.5 -14 l-29 -10 q-206 -75 -278 -65 q-16 2 -30 -7.5 q-14 -9.5 -16 -25.5 q-2 -17 7.5 -30.5 q9.5 -13.5 25.5 -16.5 q60 -9 137.5 10.5 q77.5 19.5 182.5 58.5 q37 14 58 21 q21 7 60.5 16.5 q39.5 9.5 73 6 q33.5 -3.5 62.5 -18.5 q56 -34 70 -103 q13 -85 -65 -148 q-87 -73 -266 -101 q-16 -2 -25.5 -15.5 q-9.5 -13.5 -7.5 -29.5 q2 -14 13.5 -24 q11.5 -10 26.5 -10 Z" /><glyph glyph-name="Japan1.879" unicode="&#x3066;" d="M759 698 q-205 -68 -322 -86 q-117 -18 -235 -9 q-22 3 -37 -6.5 q-15 -9.5 -17 -26.5 q-3 -19 7 -32.5 q10 -13.5 30 -16.5 q132 -20 281 12 q2 1 3 -1.5 q1 -2.5 0 -5.5 q-95 -102 -91 -241 l0 -2 q11 -140 169 -214 q104 -45 211 -45 q18 0 30 12 q12 12 12 29 q0 19 -12 31 q-12 12 -30 12 q-95 0 -175 40 q-113 46 -121 141 q-4 108 78 192 q82 84 247 137 q17 5 24 21 q7 16 2 33 q-15 36 -54 26 Z" /><glyph glyph-name="Japan1.880" unicode="&#x3067;" d="M852 519 q-12 10 -24.5 16.5 q-12.5 6.5 -29.5 9 q-17 2.5 -26 -11.5 q-14 -20 17 -45 q30 -21 42 -49 q20 -35 49 -23 q32 17 14 52 q-12 29 -42 51 ZM767 471 q-11 9 -24.5 16 q-13.5 7 -30.5 9.5 q-17 2.5 -26 -11.5 q-14 -23 17 -46 q17 -12 43 -49 q7 -16 21 -23 q14 -7 29 0 q29 14 15 51 q-16 29 -44 53 ZM750 698 q-206 -68 -322.5 -86 q-116.5 -18 -235.5 -9 q-21 3 -36 -6.5 q-15 -9.5 -18 -26.5 q-3 -18 7 -32 q10 -14 30 -17 q134 -20 281 12 q2 1 3.5 -1.5 q1.5 -2.5 -0.5 -5.5 q-93 -100 -89 -241 l0 -2 q8 -140 167 -214 q104 -45 212 -45 q18 0 30 12 q12 12 12 29 q0 19 -12 31 q-12 12 -30 12 q-95 0 -176 40 q-114 46 -120 141 q-4 108 78 192 q82 84 246 137 q17 5 24 21 q7 16 2 33 q-13 36 -53 26 Z" /><glyph glyph-name="Japan1.881" unicode="&#x3068;" d="M272 120 q55 -103 277 -99 q94 0 229 23 q17 2 27 16.5 q10 14.5 8 30.5 q-3 14 -14 23 q-11 9 -26 8 q-8 0 -89 -10 q-81 -10 -164 -10 q-87 0 -136.5 25 q-49.5 25 -49.5 68 q0 67 81 148 q9 7 18 0 q32 -32 75 -73 q43 -41 48 -46 q31 -23 57 3 q27 29 -2 56 q-69 66 -120 113 q-8 10 0 18 q89 82 162 131 q20 14 38.5 23.5 q18.5 9.5 26.5 17.5 q27 28 19 54.5 q-8 26.5 -39 36.5 q-42 13 -114 13 q-16 0 -27.5 -12.5 q-11.5 -12.5 -11.5 -27.5 q0 -17 11 -29 q11 -12 29 -12 l28 0 q3 0 3.5 -1.5 q0.5 -1.5 -1.5 -3.5 q-102 -70 -180 -136 q-9 -8 -20 1 q-58 61 -71 72 q-28 34 -26 67 q1 16 -11 28.5 q-12 12.5 -29 13.5 q-15 0 -27 -11.5 q-12 -11.5 -13 -28.5 q-5 -76 42 -123 q5 -5 16 -15.5 q11 -10.5 29.5 -27.5 q18.5 -17 32.5 -30 q10 -6 1 -17 q-22 -23 -40 -46.5 q-18 -23.5 -34 -53.5 q-16 -30 -24 -58.5 q-8 -28.5 -6 -59.5 q2 -31 17 -59 Z" /><glyph glyph-name="Japan1.882" unicode="&#x3069;" d="M259 124 q55 -104 277 -98 q103 0 229 23 q17 2 27 15.5 q10 13.5 8 29.5 q-3 14 -14 23.5 q-11 9.5 -26 8.5 q-19 -1 -56.5 -6.5 q-37.5 -5.5 -86 -9.5 q-48.5 -4 -110.5 -4 q-87 0 -136.5 24.5 q-49.5 24.5 -49.5 68.5 q0 66 81 147 q9 9 18 0 q32 -32 75 -73 q43 -41 48 -46 q32 -22 58 3 q11 12 12 24 q1 12 -3.5 19.5 q-4.5 7.5 -11.5 12.5 q-54 54 -120 113 q-8 10 0 18 q78 75 162 131 q20 15 38.5 24.5 q18.5 9.5 26.5 16.5 q28 29 19.5 55 q-8.5 26 -39.5 36 q-56 13 -114 13 q-16 0 -27.5 -12 q-11.5 -12 -10.5 -27 q0 -17 11 -29 q11 -12 28 -12 l28 0 q2 0 3 -2.5 q1 -2.5 -1 -3.5 q-102 -70 -180 -135 q-9 -8 -19 0 q-50 53 -72 73 q-28 32 -26 66 q1 16 -11 28.5 q-12 12.5 -29 13.5 q-15 1 -27 -10.5 q-12 -11.5 -13 -28.5 q-5 -77 42 -125 q5 -5 32 -29.5 q27 -24.5 46 -42.5 q10 -7 1 -17 q-21 -22 -39.5 -46 q-18.5 -24 -34.5 -53.5 q-16 -29.5 -24 -58 q-8 -28.5 -6 -59.5 q2 -31 17 -59 ZM866 783 q-11 9 -24.5 16 q-13.5 7 -30.5 9.5 q-17 2.5 -26 -11.5 q-14 -22 17 -46 q28 -19 43 -49 q8 -14 21.5 -21 q13.5 -7 27.5 -1 q31 15 14 51 q-14 29 -42 52 ZM781 734 q-11 9 -24.5 16 q-13.5 7 -30.5 9.5 q-17 2.5 -26 -11.5 q-14 -21 17 -46 q19 -13 43 -48 q7 -16 21 -23 q14 -7 29 0 q30 15 14 50 q-14 28 -43 53 Z" /><glyph glyph-name="Japan1.883" unicode="&#x306a;" d="M425 554 q70 15 136 53 q13 6 16.5 22.5 q3.5 16.5 -3.5 26.5 q-7 13 -22.5 17 q-15.5 4 -28.5 -4 q-30 -16 -76 -34 q-4 -2 -7.5 1 q-3.5 3 -1.5 8 q21 87 24 99 q4 14 -6.5 28 q-10.5 14 -25.5 17 q-15 2 -29 -6.5 q-14 -8.5 -16 -23.5 q-8 -53 -33 -131 q-5 -16 -19 -18 q-44 -4 -136 -4 q-14 0 -25 -10.5 q-11 -10.5 -11 -24.5 q-1 -14 10.5 -25 q11.5 -11 25.5 -11 l27 0 q32 0 86 2 q5 1 8.5 -3 q3.5 -4 2.5 -10 q-72 -218 -170 -368 q-17 -37 14 -54 q14 -8 29 -4.5 q15 3.5 22 15.5 q112 186 190 425 q5 14 19 17 ZM850 134 q-73 56 -159 80 q-13 5 -16 19 q-3 24 -8.5 53.5 q-5.5 29.5 -8.5 47.5 q-3 18 -3 31 q-4 29 15 49 q19 20 75 31 q19 5 29.5 8.5 q10.5 3.5 22.5 13.5 q12 10 15 25 q0 30 -22 47 q-31 23 -76 34 q-55 17 -114 9 q-15 -2 -23.5 -15 q-8.5 -13 -6.5 -28 q1 -17 13 -26.5 q12 -9.5 28 -7.5 q26 3 62 -1 q5 -1 6.5 -5 q1.5 -4 -3.5 -6 q-52 -16 -74 -49 q-31 -47 -16 -143 q2 -11 4.5 -30.5 q2.5 -19.5 3.5 -24.5 q2 -15 -12 -15 q-161 7 -196 -78 q-14 -51 35 -100 q16 -15 30.5 -25 q14.5 -10 36.5 -18.5 q22 -8.5 45 -7.5 q23 1 56 8 q40 14 62 39.5 q22 25.5 31 71.5 q2 13 16 9 q62 -22 105 -54 q14 -10 30.5 -7.5 q16.5 2.5 24.5 14.5 q9 13 7 28.5 q-2 15.5 -15 22.5 ZM568 83 q-46 -13 -80 14 q-21 13 -23 27 q-2 14 6.5 22 q8.5 8 19.5 12 q38 15 101 1 q16 -4 16 -19 q-3 -42 -40 -57 Z" /><glyph glyph-name="Japan1.884" unicode="&#x306b;" d="M267 658 q-13 3 -22 5 q-9 2 -17 -6 q-8 -8 -13 -15.5 q-5 -7.5 -9.5 -23.5 q-4.5 -16 -8 -30 q-3.5 -14 -7.5 -34 q-3 -16 -5 -24 q-13 -64 -16 -141 q-4 -179 42 -336 q14 -33 53 -26 q16 6 22.5 20.5 q6.5 14.5 2.5 30.5 q-43 139 -41 308 q4 125 37 214 q14 41 -18 58 ZM428 234 q-40 27 -60 1 q-10 -11 -7.5 -31 q2.5 -20 19.5 -37 q93 -82 276 -86 q87 0 175 30 q18 6 27.5 21 q9.5 15 3.5 33 q-13 35 -59 18 q-80 -23 -147 -22 q-114 2 -228 73 ZM453 541 q42 -5 132 -5 q116 0 159 5 q12 2 22.5 12.5 q10.5 10.5 10.5 28.5 q-3 38 -41 36 q-83 -2 -142.5 -2 q-59.5 0 -95 1 q-35.5 1 -39.5 1 q-15 0 -27 -10 q-12 -10 -13 -24 q-2 -16 8.5 -28.5 q10.5 -12.5 25.5 -14.5 Z" /><glyph glyph-name="Japan1.885" unicode="&#x306c;" d="M715 479 q36 -64 8 -190 q-4 -11 -14 -6 q-87 29 -155.5 10.5 q-68.5 -18.5 -100.5 -69.5 q-22 -35 -9 -75 q20 -46 76 -69 q56 -19 117 -3 l3 1 q64 24 108 85 q7 11 18 4 q35 -25 54 -49 q8 -13 24.5 -14.5 q16.5 -1.5 29.5 8.5 q11 10 12.5 26 q1.5 16 -7.5 28 q-29 34 -78 70 q-11 8 -7 19 q35 126 -6 232 q-35 86 -125 115 q-61 18 -142 1 q-4 -1 -8 2 q-4 3 -4 7 q0 50 6 86 q4 17 -6 29 q-10 12 -25 14 q-16 2 -29 -7 q-13 -9 -15 -24 q-9 -48 -9 -121 q0 -14 -12 -19 q-52 -27 -90 -53 q-18 -11 -51 -40 q-7 -7 -11 3 q-18 62 -18 121 q0 14 -11 25.5 q-11 11.5 -26 11.5 q-15 1 -26.5 -9.5 q-11.5 -10.5 -12.5 -25.5 q-3 -76 29 -172 q1 -3 3 -8 q2 -5 3 -8 q5 -12 -2 -25 q-25 -43 -34 -63 q-28 -68 -30.5 -134 q-2.5 -66 28.5 -111 q24 -31 60.5 -37.5 q36.5 -6.5 75.5 12.5 q91 56 152 242 q35 108 44 215 q1 13 16 18 q19 6 40 9 q21 3 51 2 q30 -1 58.5 -17.5 q28.5 -16.5 47.5 -46.5 ZM324 182 q-15 -27 -34 -45 q-24 -21 -45.5 -14.5 q-21.5 6.5 -27.5 38.5 q-12 72 28 148 q1 4 5 4 q4 0 5 -4 q29 -53 67 -104 q9 -11 2 -23 ZM363 279 q-40 57 -58 101 q-7 10 4 22 q45 54 106 89 q3 3 5.5 1.5 q2.5 -1.5 1.5 -5.5 q-12 -112 -49 -206 q-4 -11 -10 -2 ZM541 216 q27 13 65 13 q38 0 71 -13 q14 -6 5 -15 q-24 -33 -66 -50 q-50 -18 -91 13 q-16 12 -11 26 q5 14 27 26 Z" /><glyph glyph-name="Japan1.886" unicode="&#x306d;" d="M877 172 q-18 30 -59 63 q-10 9 -9 21 q12 103 4 176 q-11 87 -49 137 q-37 48 -103 51 q-74 5 -165 -60 q-62 -45 -104 -82 q-2 0 -1 1 q38 70 41 82 q6 33 -13 47 q-8 8 -23 12 q-15 2 -13 13 q0 52 3 103 q2 16 -7 28.5 q-9 12.5 -23 13.5 q-17 1 -30 -8.5 q-13 -9.5 -14 -25.5 q-4 -48 -4 -141 q-2 -13 -13 -18 q-121 -45 -159 -50 q-15 -4 -23.5 -17.5 q-8.5 -13.5 -5.5 -28.5 q3 -14 16 -23 q13 -9 28 -7 q40 8 146 46 q4 2 7 0 q3 -2 3 -7 l0 -7 q0 -13 -6 -28 q-29 -64 -73.5 -142 q-44.5 -78 -77.5 -120 q-10 -12 -7.5 -27.5 q2.5 -15.5 14.5 -23.5 q13 -9 28 -7.5 q15 1.5 24 12.5 q40 61 95 128 q2 2 4 -1 q1 -91 4 -247 q1 -16 11.5 -26.5 q10.5 -10.5 27.5 -10.5 l1 0 q16 0 25.5 10.5 q9.5 10.5 8.5 27.5 q-3 236 -4 327 q0 13 10 25 q160 168 264 161 q51 -4 74.5 -70.5 q23.5 -66.5 6.5 -190.5 q-2 -12 -12 -7 q-98 31 -175 -5 q-53 -23 -76.5 -63 q-23.5 -40 -5.5 -77 q16 -32 59.5 -52 q43.5 -20 87.5 -21 q50 0 87 22 q47 19 75 66 q7 10 16 3 q19 -17 31 -38 q14 -27 42 -22 q28 5 30 33 q1 19 -19 45 ZM669 154 q-38 -14 -72.5 -10.5 q-34.5 3.5 -54.5 16.5 q-17 17 12 38 q65 44 154 9 q13 -6 6 -16 q-17 -28 -45 -37 Z" /><glyph glyph-name="Japan1.887" unicode="&#x306e;" d="M361 610 q-115 -56 -167 -153.5 q-52 -97.5 -35 -208.5 q19 -106 104 -128 q73 -14 130 70 q65 93 121 236 q27 72 36 135 q2 13 14 13 q71 -3 125 -45 q45 -35 64 -98 q19 -63 -3.5 -133.5 q-22.5 -70.5 -91.5 -113.5 q-57 -35 -131 -47 q-16 -2 -26.5 -16 q-10.5 -14 -8.5 -31 q2 -14 14.5 -24 q12.5 -10 27.5 -10 q64 4 141 43.5 q77 39.5 120 104.5 q38 54 45.5 124 q7.5 70 -14.5 133 q-29 77 -84 123.5 q-55 46.5 -120.5 58.5 q-65.5 12 -132.5 3 q-67 -9 -128 -36 ZM468 554 q-18 -92 -57 -180 q-39 -88 -84 -147 q-22 -28 -41.5 -29 q-19.5 -1 -31.5 17 q-12 18 -19 49 q-14 81 24 146 q73 130 200 154 q5 1 7.5 -2.5 q2.5 -3.5 1.5 -7.5 Z" /><glyph glyph-name="Japan1.888" unicode="&#x306f;" d="M236 7 q19 0 31 16 q12 16 6 34 q-47 168 -32 382 q10 160 39 240 q6 22 -5.5 36.5 q-11.5 14.5 -31.5 14.5 q-25 0 -36 -26 q-34 -104 -42 -260 q-7 -99 -1 -197 q6 -107 35 -212 q7 -28 37 -28 ZM864 105 q9 14 6.5 29.5 q-2.5 15.5 -15.5 24.5 q-65 47 -150 81 q-13 5 -13 18 q-1 19 -5 82 q-6 86 -6 138 q0 5 4 9 q4 4 10 4 q100 7 107 8 q16 4 24 15.5 q8 11.5 6 24.5 q-1 13 -11 23 q-10 10 -24 10 l-4 0 q-32 -4 -99 -9 q-6 -1 -10 3 q-4 4 -4 10 q-3 53 -17 94 q-13 38 -41.5 53.5 q-28.5 15.5 -48.5 -10.5 q-8 -10 -7 -21 q1 -11 5 -16.5 q4 -5.5 10.5 -15 q6.5 -9.5 8.5 -16.5 q10 -18 14 -72 q2 -12 -11 -14 q-168 -9 -225 -8 q-15 1 -25.5 -9 q-10.5 -10 -11.5 -25 q0 -16 9 -26 q9 -10 26 -10 q67 -5 228 5 q12 2 12 -10 q0 -11 6 -140 q2 -21 4 -60 q0 -5 -4 -8.5 q-4 -3.5 -9 -2.5 q-30 3 -47 3 q-49 -1 -90.5 -11 q-41.5 -10 -74.5 -39.5 q-33 -29.5 -33 -75.5 q2 -48 49 -78.5 q47 -30.5 134 -24.5 q127 13 143 113 q3 11 13 8 q56 -24 113 -62 q10 -9 26.5 -7.5 q16.5 1.5 27.5 15.5 ZM434 143 q0 10 10 20 q10 10 39 18.5 q29 8.5 72 8.5 q21 0 47 -3 q13 -2 10 -14 q-4 -23 -16 -40 q-34 -35 -137 -12 q-25 5 -25 22 Z" /><glyph glyph-name="Japan1.889" unicode="&#x3070;" d="M877 758 q-10 10 -24 17 q-14 7 -30.5 9.5 q-16.5 2.5 -25.5 -11.5 q-14 -24 18 -46 q31 -22 42 -49 q19 -35 50 -22 q31 16 13 50 q-11 28 -43 52 ZM793 709 q-12 10 -25 16.5 q-13 6.5 -30.5 9.5 q-17.5 3 -25.5 -12 q-15 -22 17 -45 q21 -14 43 -49 q7 -15 21 -22 q14 -7 29 -1 q28 16 15 52 q-15 29 -44 51 ZM230 8 q19 0 30.5 16.5 q11.5 16.5 6.5 33.5 q-46 165 -33 382 q11 156 39 240 q7 22 -4.5 36.5 q-11.5 14.5 -31.5 14.5 q-25 0 -36 -26 q-33 -100 -43 -260 q-7 -99 -1 -197 q7 -113 35 -213 q8 -27 38 -27 ZM857 107 q9 13 7 29 q-2 16 -15 24 q-71 51 -150 82 q-13 4 -13 18 q-1 17 -5 81 q-6 86 -6 138 q0 13 13 13 q76 6 108 9 q16 3 24 15 q8 12 6 25 q-2 13 -12 22.5 q-10 9.5 -23 9.5 l-4 0 q-45 -5 -100 -8 q-12 -2 -14 12 q-3 56 -16 94 q-13 38 -42 54 q-29 16 -48 -10 q-8 -10 -7 -21.5 q1 -11.5 5 -17 q4 -5.5 10.5 -15 q6.5 -9.5 8.5 -16.5 q8 -18 14 -72 q1 -12 -11 -14 q-170 -9 -225 -8 q-15 1 -26 -9 q-11 -10 -12 -25 q0 -15 9.5 -25.5 q9.5 -10.5 26.5 -11.5 q52 -2 228 6 q4 1 8 -2 q4 -3 4 -8 q0 -13 6 -139 q2 -35 3 -60 q0 -5 -3.5 -9 q-3.5 -4 -8.5 -3 q-30 3 -47 3 q-36 0 -68.5 -6.5 q-32.5 -6.5 -63 -20 q-30.5 -13.5 -48.5 -39 q-18 -25.5 -18 -60.5 q2 -48 48.5 -78.5 q46.5 -30.5 133.5 -24.5 q66 8 101 34.5 q35 26.5 43 78.5 q3 12 13 8 q57 -22 113 -62 q9 -8 25.5 -6.5 q16.5 1.5 27.5 15.5 ZM428 145 q0 9 10 19 q10 10 39 18.5 q29 8.5 72 8.5 q22 0 46 -3 q13 -2 11 -14 q-4 -23 -16 -40 q-34 -36 -137 -12 q-25 6 -25 23 Z" /><glyph glyph-name="Japan1.890" unicode="&#x3071;" d="M228 7 q19 0 31 16.5 q12 16.5 7 33.5 q-46 166 -33 383 q11 156 39 240 q7 22 -4.5 37 q-11.5 15 -31.5 15 q-25 0 -36 -26 q-33 -102 -43 -261 q-7 -99 -1 -197 q7 -112 35 -214 q8 -27 37 -27 ZM856 107 q9 13 7 29 q-2 16 -15 24 q-71 51 -150 82 q-14 5 -14 17 q0 22 -4 82 q-6 86 -6 138 q0 14 13 14 q76 6 108 9 q16 2 24 14 q8 12 6 25 q-2 13 -12 22.5 q-10 9.5 -23 9.5 l-4 0 q-45 -5 -100 -8 q-12 -2 -14 12 q-3 56 -16 94 q-13 39 -42 55 q-29 16 -48 -10 q-8 -10 -7 -21.5 q1 -11.5 5 -17.5 q4 -6 10.5 -15.5 q6.5 -9.5 8.5 -16.5 q8 -18 14 -72 q1 -12 -11 -14 q-171 -9 -225 -8 q-15 1 -26 -9 q-11 -10 -12 -25 q0 -15 9.5 -25 q9.5 -10 26.5 -11 q36 -2 228 6 q5 1 8.5 -2.5 q3.5 -3.5 3.5 -8.5 q0 -13 6 -139 q1 -32 3 -61 q0 -5 -3.5 -9 q-3.5 -4 -8.5 -3 q-30 3 -47 3 q-50 -1 -91 -10.5 q-41 -9.5 -74 -39 q-33 -29.5 -33 -75.5 q2 -48 49 -79 q47 -31 133 -25 q66 8 100.5 35 q34.5 27 43.5 79 q3 12 13 8 q57 -22 113 -62 q9 -8 25.5 -6.5 q16.5 1.5 27.5 15.5 ZM427 145 q0 9 10 19 q10 10 39 18.5 q29 8.5 72 8.5 q22 0 46 -3 q13 -2 11 -14 q-4 -23 -16 -40 q-34 -36 -137 -12 q-25 6 -25 23 ZM797 625 q33 0 58 23 q29 27 29 69 q0 37 -27 64.5 q-27 27.5 -65 27.5 q-37 0 -63 -26 q-26 -26 -28 -64 q-2 -36 19 -59 q7 -7 18.5 -8 q11.5 -1 19.5 5 q8 8 9 20 q1 12 -6 19 q-8 10 -6 18 q3 41 37 41 q16 0 27 -10.5 q11 -10.5 11 -27.5 q0 -19 -12 -29 q-9 -9 -24 -8 q-11 0 -19.5 -7 q-8.5 -7 -9.5 -19 q-1 -10 7 -19 q8 -9 19 -10 l6 0 Z" /><glyph glyph-name="Japan1.891" unicode="&#x3072;" d="M604 615 q7 -169 9 -268 q2 -75 -16.5 -126.5 q-18.5 -51.5 -64.5 -94.5 q-86 -60 -158 -40.5 q-72 19.5 -96 95.5 q-37 116 53 261 q34 53 72 92.5 q38 39.5 55 50.5 q14 7 30 29 q17 28 6.5 50.5 q-10.5 22.5 -36.5 26.5 q-18 1 -35 -9 q-101 -63 -188 -69 q-5 -1 -15.5 2.5 q-10.5 3.5 -12.5 3.5 l-5 0 q-25 0 -35 -22 q-11 -24 8.5 -44.5 q19.5 -20.5 69.5 -15.5 q30 5 50 11 q7 2 10 -4 q3 -6 -1 -12 q-22 -27 -36 -50 q-50 -76 -66 -147 q-21 -92 3 -176 q35 -103 124.5 -138 q89.5 -35 190.5 9 q75 36 125 111.5 q50 75.5 45 186.5 l-7 173 q0 6 6 2 q62 -82 131 -132 q11 -10 30.5 -8.5 q19.5 1.5 27.5 16.5 q9 14 4.5 29 q-4.5 15 -17.5 25 q-125 93 -170 205 q-25 55 -68 36 q-14 -8 -20 -22.5 q-6 -14.5 -5 -25.5 l2 -11 Z" /><glyph glyph-name="Japan1.892" unicode="&#x3073;" d="M887 742 q-11 9 -24 16.5 q-13 7.5 -30 10 q-17 2.5 -26 -12.5 q-14 -21 17 -46 q29 -20 43 -48 q6 -14 19.5 -21.5 q13.5 -7.5 29.5 -1.5 q31 17 14 51 q-14 29 -43 52 ZM802 693 q-11 9 -24.5 16 q-13.5 7 -30.5 9.5 q-17 2.5 -26 -11.5 q-14 -23 18 -45 q25 -18 42 -49 q8 -16 22 -23 q14 -7 29 0 q29 15 14 51 q-13 28 -44 52 ZM593 617 q8 -169 10 -267 q2 -76 -16.5 -127.5 q-18.5 -51.5 -65.5 -94.5 q-85 -59 -157.5 -39.5 q-72.5 19.5 -95.5 94.5 q-37 118 53 262 q34 52 71.5 91 q37.5 39 54.5 51 q16 9 31 29 q16 29 5.5 51 q-10.5 22 -35.5 26 q-23 0 -35 -10 q-103 -61 -188 -67 q-1 0 -29 5 l-4 0 q-25 0 -36 -22 q-10 -23 9 -44 q19 -21 69 -16 q27 5 52 11 q5 2 8.5 -4 q3.5 -6 -1.5 -11 q-26 -34 -35 -51 q-50 -76 -67 -147 q-21 -90 3 -176 q36 -102 125.5 -137 q89.5 -35 190.5 9 q75 36 124.5 111 q49.5 75 45.5 187 l-8 171 q0 2 2.5 3 q2.5 1 4.5 -1 q60 -77 131 -131 q11 -10 30.5 -8.5 q19.5 1.5 28.5 16.5 q8 14 3.5 30 q-4.5 16 -17.5 24 q-122 90 -170 205 q-28 56 -67 36 q-15 -8 -21 -22.5 q-6 -14.5 -5 -25.5 l1 -11 Z" /><glyph glyph-name="Japan1.894" unicode="&#x3075;" d="M107 101 q8 -17 25.5 -22.5 q17.5 -5.5 35.5 1.5 q34 14 111 58 q73 45 93 67 q21 23 9.5 46 q-11.5 23 -39.5 25 q-11 0 -19 -4 q-8 -4 -16.5 -12 q-8.5 -8 -15.5 -12 q-84 -60 -155 -85 q-18 -8 -27 -25 q-9 -17 -2 -37 ZM513 125 q-45 -19 -130 -16 q-17 0 -28.5 -11 q-11.5 -11 -12.5 -28 q-2 -49 68 -46 q78 4 129 20.5 q51 16.5 80 63.5 q23 36 18 90 q-5 54 -41 100 q-22 29 -55 50.5 q-33 21.5 -58.5 36 q-25.5 14.5 -32.5 29.5 q-5 10 6 34 q8 17 4 34 q-4 17 -19 24 q-14 9 -32 4 q-18 -5 -28 -21 q-25 -52 -11 -100 q20 -57 105 -99 q38 -17 59 -47 q21 -30 20 -62 q0 -38 -41 -56 ZM420 647 q38 -17 76 -46 q44 -33 49 -40 q13 -18 33 -18 q17 0 26 9 q16 14 17 28 q3 19 -8 32 q-27 30 -65 58 q-56 41 -95 58 q-14 2 -16 2 q-29 0 -41 -26 q-6 -17 1.5 -34 q7.5 -17 22.5 -23 ZM878 74 q25 5 32 27 q7 22 -1 34 q-31 77 -84 120 q-56 53 -120 62 q-19 2 -34 -7.5 q-15 -9.5 -16 -30.5 q-2 -17 8 -31 q10 -14 28 -15 q43 -7 80.5 -42 q37.5 -35 56.5 -89 q11 -34 50 -28 Z" /><glyph glyph-name="Japan1.895" unicode="&#x3076;" d="M827 708 q-12 10 -25 16.5 q-13 6.5 -30.5 9.5 q-17.5 3 -25.5 -12 q-15 -22 17 -44 q30 -22 43 -50 q7 -15 20.5 -22 q13.5 -7 29.5 -1 q30 17 13 52 q-11 25 -42 51 ZM741 660 q-11 9 -24.5 16 q-13.5 7 -30.5 9.5 q-17 2.5 -26 -11.5 q-14 -22 17 -46 q21 -14 43 -49 q8 -16 22 -23 q14 -7 29 0 q27 14 14 51 q-17 32 -44 53 ZM96 102 q17 -35 61 -22 q34 14 111 58 q71 43 93 68 q21 23 10 46.5 q-11 23.5 -40 25.5 q-11 0 -19 -4 q-8 -4 -16.5 -13 q-8.5 -9 -15.5 -13 q-81 -58 -155 -84 q-43 -22 -29 -62 ZM502 126 q-45 -19 -129 -16 q-17 0 -29 -11 q-12 -11 -13 -27 q-2 -50 68 -47 q79 5 129.5 21 q50.5 16 79.5 63 q23 35 18 89 q-5 54 -41 101 q-22 29 -55 50 q-33 21 -58.5 36 q-25.5 15 -32.5 30 q-5 10 6 34 q18 38 -15 58 q-14 8 -32 3 q-18 -5 -27 -21 q-26 -51 -12 -99 q22 -60 105 -99 q38 -17 59 -47 q21 -30 20 -62 q0 -40 -41 -56 ZM409 647 q31 -12 76 -45 q44 -33 49 -40 q12 -18 33 -18 q18 0 26 8 q16 16 17 29 q3 18 -8 31 q-27 30 -65 58 q-64 45 -95 57 q-11 3 -16 3 q-29 0 -41 -27 q-6 -17 1.5 -33 q7.5 -16 22.5 -23 ZM868 75 q25 4 31.5 26 q6.5 22 -1.5 34 q-30 77 -84 122 q-57 51 -120 61 q-18 2 -33.5 -8 q-15.5 -10 -16.5 -30 q-2 -17 8 -31 q10 -14 28 -16 q43 -7 80.5 -42 q37.5 -35 56.5 -88 q11 -33 51 -28 Z" /><glyph glyph-name="Japan1.897" unicode="&#x3078;" d="M924 192 q5 19 -2.5 37 q-7.5 18 -23.5 24 q-91 30 -191 89.5 q-100 59.5 -155.5 102.5 q-55.5 43 -96.5 81 q-36 31 -69 35 q-33 4 -51 -6.5 q-18 -10.5 -39 -31.5 q-38 -38 -99 -91.5 q-61 -53.5 -73 -59.5 q-18 -8 -23 -29.5 q-5 -21.5 7 -39.5 q11 -16 32 -19 q21 -3 31 5 q44 26 185 167 q11 9 16.5 10 q5.5 1 21.5 -8 q57 -56 193 -145 q164 -106 267 -144 q24 -10 43.5 -4 q19.5 6 26.5 27 Z" /><glyph glyph-name="Japan1.898" unicode="&#x3079;" d="M751 673 q-11 9 -24.5 16 q-13.5 7 -30.5 9.5 q-17 2.5 -26 -11.5 q-14 -23 18 -45 q31 -22 42 -49 q19 -36 51 -23 q32 16 13 51 q-11 28 -43 52 ZM666 624 q-12 10 -24.5 16.5 q-12.5 6.5 -30 9.5 q-17.5 3 -25.5 -12 q-14 -22 17 -46 q22 -15 42 -49 q7 -15 21 -22 q14 -7 29 -1 q28 16 15 52 q-16 30 -44 52 ZM924 187 q5 19 -2.5 37 q-7.5 18 -23.5 24 q-91 30 -191 89.5 q-100 59.5 -155.5 102.5 q-55.5 43 -96.5 81 q-36 31 -69.5 35 q-33.5 4 -51 -6.5 q-17.5 -10.5 -38.5 -30.5 q-38 -39 -99 -92.5 q-61 -53.5 -73 -58.5 q-18 -9 -23 -30.5 q-5 -21.5 7 -39.5 q11 -15 32 -18 q21 -3 31 5 q47 28 185 166 q11 9 16.5 10 q5.5 1 21.5 -8 q57 -56 193 -145 q164 -106 267 -144 q54 -20 70 23 Z" /><glyph glyph-name="Japan1.900" unicode="&#x307b;" d="M229 7 q17 5 23.5 20 q6.5 15 3.5 30 q-29 125 -34 249 q-5 124 8.5 213 q13.5 89 39.5 157 q5 16 -2 32 q-7 16 -22 21 q-15 6 -31.5 -1 q-16.5 -7 -22.5 -22 q-41 -108 -50 -260 q-15 -195 34 -409 q4 -16 20 -25 q16 -9 33 -5 ZM369 411 q68 -18 207 -15 q5 1 9.5 -3 q4.5 -4 4.5 -9 q5 -103 6 -126 q0 -5 -4 -8.5 q-4 -3.5 -9 -2.5 q-63 4 -104 -6 q-53 -11 -85.5 -38.5 q-32.5 -27.5 -33.5 -63.5 q-1 -63 84 -95 q122 -40 177 -8 q50 26 55 95 q0 5 4 8 q4 3 8 1 q62 -18 119 -47 q9 -7 26.5 -4 q17.5 3 27.5 19 q9 14 4 30.5 q-5 16.5 -19 24.5 q-64 40 -155 62 q-15 5 -15 18 q-1 26 -3.5 83 q-2.5 57 -2.5 66 q0 13 13 15 q83 9 148 28 q15 5 23 20 q8 15 4 32 q-5 14 -20 22 q-15 8 -31 4 q-53 -15 -127 -25 q-15 -2 -15 12 l-4 76 q-1 17 -13 28.5 q-12 11.5 -28 11.5 q-17 -1 -28.5 -13.5 q-11.5 -12.5 -10.5 -29.5 l5 -80 q0 -14 -14 -16 q-114 -3 -182 13 q-37 7 -50 -29 q-4 -16 5 -31 q9 -15 24 -19 ZM432 617 q145 0 267 25 q17 3 26.5 19 q9.5 16 4.5 31 q-5 14 -19 22.5 q-14 8.5 -29 5.5 q-29 -9 -121 -17 q-92 -8 -127 -7 q-17 1 -28.5 -10.5 q-11.5 -11.5 -11.5 -27.5 q-1 -17 10 -28.5 q11 -11.5 28 -12.5 ZM595 132 q-2 -22 -15 -27.5 q-13 -5.5 -50 -0.5 q-29 4 -50.5 12 q-21.5 8 -31 15 q-9.5 7 -9.5 13 q1 8 19.5 15 q18.5 7 49.5 8 q45 1 75 -3 q13 -2 13 -15 q0 -13 -1 -17 Z" /><glyph glyph-name="Japan1.901" unicode="&#x307c;" d="M904 782 q-11 10 -24 16.5 q-13 6.5 -30.5 9 q-17.5 2.5 -25.5 -11.5 q-15 -22 17 -46 q27 -18 42 -49 q18 -35 50 -22 q31 14 14 50 q-14 29 -43 53 ZM819 732 q-12 10 -25 16.5 q-13 6.5 -30.5 9.5 q-17.5 3 -25.5 -12 q-14 -23 18 -45 q28 -22 42 -49 q8 -15 22 -22 q14 -7 29 -1 q30 16 14 51 q-16 30 -44 52 ZM218 5 q33 9 28 50 q-29 125 -34 248.5 q-5 123.5 8.5 213 q13.5 89.5 39.5 156.5 q5 16 -2.5 31.5 q-7.5 15.5 -22.5 20.5 q-16 6 -32 -1 q-16 -7 -21 -21 q-40 -104 -51 -260 q-13 -207 35 -406 q4 -18 19 -27 q15 -9 33 -5 ZM360 408 q73 -19 206 -14 q4 1 9 -3 q5 -4 5 -9 q4 -82 5 -126 q0 -5 -4 -9 q-4 -4 -9 -3 q-63 4 -103 -6 q-54 -11 -86 -38 q-32 -27 -33 -63 q-2 -61 84 -95 q121 -40 176 -8 q51 25 55 94 q0 6 4 8.5 q4 2.5 9 0.5 q62 -18 118 -47 q10 -7 27 -4 q17 3 28 19 q8 14 3 30.5 q-5 16.5 -19 24.5 q-62 39 -154 62 q-16 4 -16 18 q-1 54 -5 149 q0 14 13 15 q85 9 147 29 q15 5 23.5 19.5 q8.5 14.5 4.5 30.5 q-5 15 -20.5 23 q-15.5 8 -31.5 4 q-51 -16 -127 -26 q-13 -2 -15 12 l-4 77 q-1 17 -13 28.5 q-12 11.5 -28 11.5 q-17 -1 -28.5 -13 q-11.5 -12 -10.5 -29 l5 -82 q0 -12 -13 -14 q-103 -4 -183 11 q-36 8 -49 -27 q-4 -16 5 -31 q9 -15 25 -20 ZM421 614 q141 0 267 26 q17 3 26.5 18 q9.5 15 5.5 30 q-5 15 -19.5 23.5 q-14.5 8.5 -30.5 4.5 q-29 -8 -120.5 -16.5 q-91.5 -8.5 -126.5 -7.5 q-17 1 -28.5 -10 q-11.5 -11 -11.5 -27 q-1 -17 10 -28.5 q11 -11.5 28 -12.5 ZM585 129 q-2 -22 -15.5 -27.5 q-13.5 -5.5 -50.5 -0.5 q-29 4 -50.5 12 q-21.5 8 -30.5 15 q-9 7 -9 13 q2 21 68 23 q45 1 75 -3 q13 -1 13 -15 l0 -17 Z" /><glyph glyph-name="Japan1.902" unicode="&#x307d;" d="M219 5 q16 3 22.5 18.5 q6.5 15.5 3.5 29.5 q-29 125 -34 249 q-5 124 8.5 213.5 q13.5 89.5 39.5 157.5 q5 16 -2 31.5 q-7 15.5 -22 21.5 q-15 6 -31.5 -1 q-16.5 -7 -22.5 -22 q-39 -104 -50 -260 q-12 -206 34 -409 q4 -17 20 -25.5 q16 -8.5 34 -3.5 ZM358 408 q73 -20 207 -15 q5 1 9.5 -3 q4.5 -4 4.5 -9 q5 -103 6 -126 q0 -5 -4 -9 q-4 -4 -9 -3 q-62 4 -104 -5 q-53 -11 -85.5 -38.5 q-32.5 -27.5 -32.5 -63.5 q-3 -63 83 -95 q122 -41 177 -9 q49 25 55 95 q0 6 4 9 q4 3 8 1 q65 -20 119 -48 q9 -7 26.5 -3.5 q17.5 3.5 27.5 19.5 q9 14 4 30 q-5 16 -19 25 q-64 38 -156 62 q-14 3 -14 18 q-1 26 -3.5 83 q-2.5 57 -2.5 66 q0 13 14 15 q75 7 147 28 q15 5 23 20 q8 15 4 32 q-5 14 -20 21.5 q-15 7.5 -31 3.5 q-68 -17 -127 -24 q-13 -2 -15 12 l-4 76 q-1 17 -13 28.5 q-12 11.5 -28 11.5 q-17 -1 -28.5 -13.5 q-11.5 -12.5 -10.5 -29.5 l5 -81 q0 -13 -14 -15 q-107 -5 -182 13 q-38 7 -49 -29 q-4 -16 4.5 -31 q8.5 -15 23.5 -19 ZM421 614 q145 0 267 25 q17 3 26.5 18.5 q9.5 15.5 4.5 31.5 q-5 15 -19 23 q-14 8 -30 4 q-28 -8 -120 -16 q-92 -8 -127 -7 q-16 1 -28 -10.5 q-12 -11.5 -12 -27.5 q-1 -17 10 -28.5 q11 -11.5 28 -12.5 ZM584 128 q-2 -22 -15 -27 q-13 -5 -50 0 q-29 4 -50.5 11.5 q-21.5 7.5 -30.5 15 q-9 7.5 -9 13.5 q0 8 18.5 14.5 q18.5 6.5 49.5 7.5 q34 1 75 -2 q13 -2 13 -16 q0 -12 -1 -17 ZM841 621 q33 0 58 23 q29 27 29 69 q0 37 -27 64.5 q-27 27.5 -65 27.5 q-37 0 -63 -26 q-26 -26 -28 -64 q-2 -36 19 -59 q7 -7 18.5 -8 q11.5 -1 19.5 5 q8 8 9 20 q1 12 -6 19 q-8 10 -6 18 q3 41 37 41 q16 0 27 -10.5 q11 -10.5 11 -27.5 q0 -19 -12 -29 q-9 -9 -24 -8 q-11 0 -19.5 -7 q-8.5 -7 -9.5 -19 q-1 -10 7 -19 q8 -9 19 -10 l6 0 Z" /><glyph glyph-name="Japan1.903" unicode="&#x307e;" d="M554 450 l-2 87 q0 5 4 9.5 q4 4.5 9 4.5 l208 16 q15 2 24.5 13 q9.5 11 8.5 26 q-2 15 -12.5 24.5 q-10.5 9.5 -25.5 8.5 q-46 -3 -205 -17 q-6 -1 -10.5 3.5 q-4.5 4.5 -4.5 9.5 q0 43 -5 88 q-2 15 -15 24.5 q-13 9.5 -29 7.5 q-14 -1 -23.5 -14 q-9.5 -13 -7.5 -28 q3 -51 5 -83 q0 -14 -13 -16 q-199 -14 -274 -14 q-14 0 -24.5 -10.5 q-10.5 -10.5 -10.5 -24.5 q0 -14 10 -24.5 q10 -10.5 25 -11.5 q29 -1 276 14 q5 1 9.5 -3 q4.5 -4 4.5 -9 l3 -86 q0 -14 -13 -14 q-85 -4 -155 2 q-13 3 -25.5 -5.5 q-12.5 -8.5 -14.5 -22.5 q-2 -14 6.5 -26.5 q8.5 -12.5 22.5 -13.5 q74 -10 167 -6 q4 1 9 -3 q5 -4 5 -9 l0 -78 q0 -5 -4 -8.5 q-4 -3.5 -9 -2.5 q-61 9 -108 2 q-55 -6 -91 -33 q-38 -27 -43 -67 q-4 -47 32 -91 q52 -64 135 -64 q52 0 100 38 q48 38 59 98 q3 13 14 9 q79 -33 143 -71 q26 -14 34 -15 q26 -2 34 17 q9 13 5.5 28.5 q-3.5 15.5 -17.5 22.5 q-1 1 -17.5 11 q-16.5 10 -51 28.5 q-34.5 18.5 -68.5 33.5 q-13 7 -57 24 q-14 5 -14 19 q0 67 -1 105 q0 13 14 15 q82 8 132 22 q15 5 22.5 17 q7.5 12 3.5 27 q-5 14 -17.5 21.5 q-12.5 7.5 -25.5 3.5 q-53 -13 -117 -21 q-5 -1 -9.5 3 q-4.5 4 -4.5 9 ZM479 164 q-11 -53 -46 -73 q-33 -19 -68 -5 q-34 9 -57 42 q-6 12 -6.5 24 q-0.5 12 17 22.5 q17.5 10.5 50.5 14.5 q50 7 99 -7 q13 -3 11 -18 Z" /><glyph glyph-name="Japan1.904" unicode="&#x307f;" d="M548 606 q19 70 -16 101 q-37 30 -92 12 q-13 -5 -34.5 -9 q-21.5 -4 -38.5 -6.5 q-17 -2.5 -46 -6.5 q-29 -4 -39 -5 q-16 -1 -26 -13.5 q-10 -12.5 -9 -28.5 q1 -17 12 -26.5 q11 -9.5 27 -9.5 q38 2 75.5 10 q37.5 8 66.5 16 q29 8 39 10 q5 1 7.5 -3 q2.5 -4 1.5 -8 q-33 -113 -79 -202 q-5 -11 -20 -11 q-134 -1 -203 -59 q-69 -58 -63 -135 q5 -47 42 -78.5 q37 -31.5 80.5 -31 q43.5 0.5 81.5 30.5 q47 48 117 179 q5 12 19 10 q82 -11 176 -44 q13 -3 8 -16 q-61 -134 -193 -205 q-15 -5 -19.5 -21.5 q-4.5 -16.5 3.5 -29.5 q9 -14 23.5 -18.5 q14.5 -4.5 29.5 3.5 q157 83 229 243 q5 9 16 6 q73 -33 107 -52 q35 -14 53 14 q7 11 3 28 q-4 17 -19 25 q-59 33 -118 59 q-12 5 -9 19 q15 67 17 143 q1 16 -8.5 29 q-9.5 13 -28.5 14 q-17 1 -29 -9.5 q-12 -10.5 -13 -27.5 q0 -64 -13 -123 q-3 -10 -14 -7 q-91 34 -167 44 q-5 1 -7.5 5 q-2.5 4 -0.5 8 q58 133 71 177 ZM265 212 q-30 -27 -63 -2 q-16 11 -15.5 33.5 q0.5 22.5 19.5 46.5 q38 48 135 56 q4 1 6 -2.5 q2 -3.5 0 -6.5 q-43 -84 -82 -125 Z" /><glyph glyph-name="Japan1.905" unicode="&#x3080;" d="M461 5 q143 0 230 51 q94 68 49 207 q-14 37 -53 23 q-14 -6 -19.5 -20.5 q-5.5 -14.5 0.5 -32.5 q10 -26 6 -61 q-6 -46 -46 -63 q-40 -17 -138 -28 q-101 -5 -157 30 q-13 9 -15.5 21.5 q-2.5 12.5 0.5 23.5 q3 11 14 36 q1 2 1.5 3.5 q0.5 1.5 1.5 4 q1 2.5 2 4.5 q2 6 7.5 18.5 q5.5 12.5 7.5 16.5 q6 13 15 24 q25 27 35 71 q4 20 6 42 q2 22 2 46 q0 24 0 27 q2 58 7 96 q2 14 15 16 q45 5 75 5 q15 0 27.5 0 q12.5 0 21.5 9 q9 9 10 26 q2 15 -8 27.5 q-10 12.5 -25 13.5 q-32 3 -93 -3 q-5 0 -9 3.5 q-4 3.5 -4 8.5 q2 53 -11 87 q-8 17 -22 24 q-14 7 -28 0 q-30 -13 -20 -47 q6 -31 5 -75 q-2 -13 -16 -16 q-85 -16 -170 -16 q-17 0 -27.5 -10.5 q-10.5 -10.5 -12.5 -26.5 q-1 -21 13.5 -32 q14.5 -11 41.5 -11 q17 0 42.5 3 q25.5 3 64 9 q38.5 6 51.5 8 q4 1 2 -8 q0 -2 -0.5 -3.5 q-0.5 -1.5 -0.5 -3.5 q-4 -22 -5 -65 q0 -4 -3 -6 q-3 -2 -6 0 q-62 36 -122 -18 q-38 -34 -44.5 -98 q-6.5 -64 23.5 -96 q23 -25 63 -32 q13 -2 9 -12 q-17 -40 -16 -76 q4 -52 55.5 -87.5 q51.5 -35.5 167.5 -37.5 ZM299 374 q1 -18 -4 -56 q-2 -15 -16 -21 q-14 -8 -30 -8 q-23 2 -22 28 q2 67 36 79 q32 15 36 -22 ZM884 399 q11 9 13 23 q2 14 -10 30 q-69 79 -136 106 q-38 13 -55 3 q-16 -11 -21 -27 q-2 -15 7.5 -27.5 q9.5 -12.5 24.5 -15.5 q51 -10 124 -90 q14 -14 29.5 -12 q15.5 2 23.5 10 Z" /><glyph glyph-name="Japan1.906" unicode="&#x3081;" d="M775 115 q107 102 87 254 q-10 52 -34 92.5 q-24 40.5 -50 62 q-26 21.5 -58.5 36 q-32.5 14.5 -53 19 q-20.5 4.5 -39.5 6.5 q-12 2 -8 13 q4 15 16.5 54 q12.5 39 13.5 43 q7 23 0.5 38 q-6.5 15 -22.5 20 q-16 3 -31 -4 q-15 -7 -19 -25 q-14 -54 -40 -125 q-4 -13 -19 -15 q-90 -11 -169 -65 q-12 -6 -14 6 q-15 81 -12 124 q0 18 -10.5 29.5 q-10.5 11.5 -22.5 13.5 q-13 2 -28.5 -7 q-15.5 -9 -17.5 -31 q-6 -78 19 -178 q4 -11 -7 -24 q-68 -62 -99.5 -138 q-31.5 -76 -18.5 -155 q15 -68 79 -92 q46 -14 82.5 0 q36.5 14 75.5 62 q50 61 112 171.5 q62 110.5 96 196.5 q5 13 19 13 q15 0 32 -2 q17 -2 42 -11 q25 -9 45.5 -24.5 q20.5 -15.5 39 -46 q18.5 -30.5 26.5 -71.5 q15 -104 -53.5 -173 q-68.5 -69 -179.5 -76 q-21 0 -33.5 -12.5 q-12.5 -12.5 -12.5 -27.5 q0 -14 11.5 -26 q11.5 -12 31.5 -12 q134 7 224 87 ZM350 220 q-38 -59 -57 -75 q-46 -37 -74 15 q-30 45 6 124 q18 47 57 86 q3 3 7.5 1.5 q4.5 -1.5 5.5 -6.5 q25 -72 55 -120 q7 -13 0 -25 ZM366 441 q51 43 121 58 q3 2 5.5 -1 q2.5 -3 1.5 -7 q-44 -103 -84 -174 q-2 -4 -7 -3.5 q-5 0.5 -6 4.5 q-23 45 -37 103 q-6 14 6 20 Z" /><glyph glyph-name="Japan1.907" unicode="&#x3082;" d="M693 251 q29 -59 -4.5 -119 q-33.5 -60 -118.5 -64 q-32 0 -54.5 12.5 q-22.5 12.5 -33 33 q-10.5 20.5 -14.5 37 q-4 16.5 -4 33.5 q-1 5 3 9 q4 4 9 3 q28 -2 48 -2 q17 1 29 13.5 q12 12.5 11 29.5 q-1 15 -13.5 26 q-12.5 11 -27.5 11 q-7 0 -43 3 q-5 0 -9 4 q-4 4 -3 10 q2 19 11 82 q9 63 11 182 q1 129 -22 186 q-9 21 -30 23.5 q-21 2.5 -31 -7.5 q-11 -4 -15.5 -17.5 q-4.5 -13.5 1.5 -31.5 q17 -39 16 -152 q-2 -110 -10 -172 q-6 -42 -11 -83 q0 -13 -14 -10 q-43 7 -67 18 q-9 3 0 12 q12 11 12 31 q-2 17 -13.5 28 q-11.5 11 -27.5 10 q-28 -1 -47.5 -14.5 q-19.5 -13.5 -23.5 -38.5 q-6 -41 30 -75 q36 -34 133 -51 q12 -3 12 -15 q0 -20 2.5 -41 q2.5 -21 13.5 -53 q11 -32 29.5 -55.5 q18.5 -23.5 54 -41 q35.5 -17.5 83.5 -17.5 q109 5 164 67 q55 62 58 137 q0 77 -64 156 q-56 65 -94 88 q-12 9 -27 7 q-15 -2 -25 -15 q-10 -15 -7 -32.5 q3 -17.5 18 -27.5 q29 -24 42 -35.5 q13 -11.5 30.5 -33 q17.5 -21.5 32.5 -48.5 ZM321 487 q39 -11 52 19 q8 15 3 31.5 q-5 16.5 -20 23.5 q-10 4 -80 39 q-11 8 -27.5 5.5 q-16.5 -2.5 -26.5 -17.5 q-18 -36 14 -56 q62 -34 85 -45 Z" /><glyph glyph-name="Japan1.908" unicode="&#x3083;" d="M776 261 q30 45 24.5 96 q-5.5 51 -44.5 80 q-31 22 -71.5 28 q-40.5 6 -66 1.5 q-25.5 -4.5 -44.5 -11.5 q-6 -1 -9 3 q-26 39 -48 57 q-10 8 -25.5 6 q-15.5 -2 -22.5 -13 q-9 -10 -7 -24.5 q2 -14.5 13 -23.5 q6 -4 26 -30 q3 -3 -2 -5 q-66 -36 -100 -57 q-2 -2 -3 2 q-35 90 -44 105 q-6 12 -19.5 16 q-13.5 4 -26.5 -1 q-12 -6 -16.5 -20.5 q-4.5 -14.5 1.5 -27.5 q2 -3 7.5 -17 q5.5 -14 16.5 -39.5 q11 -25.5 21 -48.5 q2 -3 -3 -6 q-72 -33 -107 -35 q-14 0 -25 -11 q-11 -11 -11 -25 q1 -13 12 -23 q11 -10 25 -9 q36 0 109 27 q11 8 24 11 q3 3 4 -1 q97 -244 99 -250 q16 -30 47 -19 q11 5 18.5 17 q7.5 12 2.5 28 q-4 8 -42 102 q-38 94 -63 154 q-5 5 2 7 q75 45 104 60 q5 3 8 -3 q5 -9 6 -16 q3 -11 13.5 -18 q10.5 -7 20.5 -7 q17 1 26.5 13.5 q9.5 12.5 6.5 26.5 q-2 14 -8 26 q-2 4 2 5 q39 11 79 3 q44 -10 47 -49 q2 -51 -50 -75 q-49 -23 -181 8 q-14 4 -26 -3 q-12 -7 -18 -19 q-3 -13 3.5 -25.5 q6.5 -12.5 19.5 -16.5 q2 -2 20 -7 q18 -5 51 -10 q33 -5 65 -5 q112 0 159 69 Z" /><glyph glyph-name="Japan1.909" unicode="&#x3084;" d="M865 358 q38 58 31.5 123 q-6.5 65 -56.5 104 q-41 29 -93.5 36.5 q-52.5 7.5 -86.5 1.5 q-34 -6 -58 -16 q-15 -2 -21 7 q-29 46 -63 76 q-13 10 -29.5 7.5 q-16.5 -2.5 -25.5 -15.5 q-10 -13 -7.5 -29 q2.5 -16 15.5 -26 q7 -5 35 -42 q9 -13 -5 -17 q-28 -16 -75.5 -43 q-47.5 -27 -56.5 -32 q-5 -3 -9.5 -1.5 q-4.5 1.5 -6.5 6.5 q-47 118 -60 140 q-7 14 -22 19 q-15 5 -30 -3 q-15 -7 -20 -22.5 q-5 -15.5 3 -31.5 q1 -1 60 -141 q6 -12 -7 -18 q-102 -46 -147 -47 q-16 0 -27.5 -12 q-11.5 -12 -11.5 -29 q1 -17 12.5 -28.5 q11.5 -11.5 27.5 -10.5 q51 0 143 40 q7 3 32 15 q13 8 17 -7 q123 -307 134 -337 q18 -34 53 -22 q14 5 22 18.5 q8 13.5 1 33.5 q-100 248 -141 344 q-6 14 7 19 q112 66 141 81 q13 7 18 -7 q7 -12 9 -22 q10 -31 40 -31 q19 1 29.5 15.5 q10.5 14.5 7.5 31.5 q-2 10 -12 33 q-3 4 -1 9 q2 5 9 6 q57 16 112 4 q64 -15 67 -70 q2 -76 -69 -108 q-44 -18 -100 -15 q-56 3 -150 25 q-37 9 -49 -26 q-4 -16 3 -30 q7 -14 22 -19 q7 -3 27.5 -8.5 q20.5 -5.5 65.5 -12.5 q45 -7 87 -7 q147 0 209 91 Z" /><glyph glyph-name="Japan1.911" unicode="&#x3086;" d="M361 -13 q9 -14 23.5 -17.5 q14.5 -3.5 28.5 5.5 q37 27 53.5 39.5 q16.5 12.5 48.5 44.5 q32 32 55 67 q7 12 23 12 l1 0 q82 1 160 47.5 q78 46.5 105 123.5 q27 85 -16.5 170 q-43.5 85 -128.5 110 q-34 11 -88 13 q-5 0 -9.5 5 q-4.5 5 -4.5 11 q-6 63 -48 118 q-10 15 -29 18 q-19 3 -29 -9 q-13 -11 -14 -28 q-1 -17 8 -25 q29 -34 33 -86 q2 -13 -15 -18 q-59 -16 -112.5 -55.5 q-53.5 -39.5 -90 -87.5 q-36.5 -48 -57.5 -83 q-21 -35 -34 -63 q-1 -3 -4 -2.5 q-3 0.5 -3 3.5 q-7 65 -1 128 q10 122 37 177 q6 15 1 33 q-5 18 -18 24 q-39 14 -57 -21 q-32 -77 -43 -206 q-6 -86 2 -154 q9 -88 43 -157 q9 -16 24 -21 q15 -5 26 1 q20 9 24 28 q1 6 1.5 16 q0.5 10 1.5 15 q15 60 63 149 q10 5 12 -3 q4 -17 12 -34.5 q8 -17.5 23.5 -41 q15.5 -23.5 45 -43.5 q29.5 -20 67.5 -32 q5 -2 6.5 -7.5 q1.5 -5.5 -1.5 -10.5 q-37 -47 -102 -92 q-17 -11 -23 -19 q-17 -17 0 -42 ZM508 235 q-37 11 -62.5 31.5 q-25.5 20.5 -36.5 45.5 q-11 25 -15 43.5 q-4 18.5 -4 36.5 q0 12 8 28 q50 65 123 88 q4 1 8 -2 q4 -3 4 -8 q2 -175 -9 -253 q-2 -14 -16 -10 ZM780 415 q21 -84 -38 -141 q-59 -57 -126 -56 q-5 0 -9.5 5 q-4.5 5 -3.5 10 q11 79 9 273 l0 7 q0 6 4.5 11 q4.5 5 9.5 5 q18 0 36.5 -3.5 q18.5 -3.5 43.5 -13.5 q25 -10 45 -35 q20 -25 29 -62 Z" /><glyph glyph-name="Japan1.912" unicode="&#x3087;" d="M444 512 q9 -58 16 -167 q7 -109 7 -155 q-1 -3 -2 -3 q-91 16 -141 -9.5 q-50 -25.5 -52 -73.5 q-1 -32 28 -60 q48 -43 128 -43 q39 0 72 24.5 q33 24.5 37 72.5 q0 2 3 1 q70 -22 131 -52 q14 -7 28 -2.5 q14 4.5 18 15.5 q7 8 2.5 24 q-4.5 16 -21.5 24 q-72 39 -156 61 q-4 1 -6 7 q-5 114 -8 151 q0 5 3 5 q92 8 127 17 q13 1 20.5 13.5 q7.5 12.5 6.5 25.5 q-2 13 -14.5 21.5 q-12.5 8.5 -26.5 5.5 q-37 -8 -116 -15 q-4 0 -5 4 q-10 103 -14 121 q-1 13 -14 21.5 q-13 8.5 -27 6.5 q-12 -5 -19.5 -16.5 q-7.5 -11.5 -4.5 -24.5 ZM468 103 q-2 -30 -19 -36 q-17 -6 -66 7 q-15 4 -25.5 10.5 q-10.5 6.5 -14.5 11 q-4 4.5 -4 7.5 q0 5 6 10 q6 5 20.5 8.5 q14.5 3.5 34.5 3.5 q26 0 64 -6 q4 -1 4 -7 l0 -9 Z" /><glyph glyph-name="Japan1.913" unicode="&#x3088;" d="M431 707 q25 -148 34 -438 q0 -5 -4 -8 q-4 -3 -9 -2 q-120 21 -184.5 -10.5 q-64.5 -31.5 -66.5 -93.5 q-1 -40 35 -75 q28 -26 74 -42.5 q46 -16.5 93 -16.5 q52 0 93.5 32 q41.5 32 46.5 94 q2 11 12 8 q95 -27 179 -70 q16 -8 31.5 -3.5 q15.5 4.5 21.5 17.5 q8 11 3 28.5 q-5 17.5 -24 27.5 q-96 48 -211 81 q-11 3 -13 16 q-4 122 -11 205 q0 12 12 14 q99 6 171 22 q14 1 22.5 14 q8.5 13 6.5 28 q-2 17 -16 26.5 q-14 9.5 -30 5.5 q-33 -8 -158 -22 q-12 0 -14 12 q-13 137 -18 165 q-2 15 -16.5 25 q-14.5 10 -31.5 6 q-14 -5 -22.5 -17.5 q-8.5 -12.5 -5.5 -28.5 ZM466 154 q-4 -44 -31 -54 q-27 -10 -92 8 q-23 6 -38.5 16 q-15.5 10 -21.5 17.5 q-6 7.5 -6 12.5 q0 12 24.5 24 q24.5 12 66.5 12 q41 0 85 -8 q13 -3 13 -16 l0 -12 Z" /><glyph glyph-name="Japan1.914" unicode="&#x3089;" d="M726 255 q-14 -76 -88 -118 q-66 -38 -203 -58 q-16 -1 -27 -15 q-11 -14 -9 -31 q1 -15 13 -24.5 q12 -9.5 29 -9.5 q70 1 155 30.5 q85 29.5 128 63.5 q77 59 86 156 q3 55 -13 94.5 q-16 39.5 -44 60 q-28 20.5 -65 29 q-37 8.5 -73.5 5.5 q-36.5 -3 -71.5 -15 q-48 -19 -95 -52 q-47 -33 -70.5 -56 q-23.5 -23 -40.5 -44 q-5 -2 -8 2 q42 203 47 267 q1 19 -9 32.5 q-10 13.5 -25 15.5 q-16 2 -31.5 -9 q-15.5 -11 -17.5 -31 q-4 -34 -27 -153.5 q-23 -119.5 -30 -143.5 q-24 -85 24 -110 q55 -29 120 58 q36 37 55 54.5 q19 17.5 55.5 46 q36.5 28.5 72 41 q35.5 12.5 73.5 12.5 q104 -1 90 -98 ZM389 755 q-18 3 -31 -7.5 q-13 -10.5 -16 -29.5 q-2 -16 9 -31 q11 -15 26 -17 q36 -3 126 -56 q21 -10 36 -4.5 q15 5.5 24 18.5 q8 8 6 28.5 q-2 20.5 -21 30.5 q-31 20 -79 42.5 q-48 22.5 -80 25.5 Z" /><glyph glyph-name="Japan1.915" unicode="&#x308a;" d="M383 661 q-3 17 -15 27.5 q-12 10.5 -31 8.5 q-16 -2 -26.5 -17 q-10.5 -15 -8.5 -31 q4 -22 2 -87 q0 -108 4 -148 q11 -97 45 -143 q13 -16 32.5 -17 q19.5 -1 32.5 12 q26 22 -3 57 q-15 24 -22.5 70.5 q-7.5 46.5 -8 77.5 q-0.5 31 0.5 90 q2 75 -2 100 ZM379 11 q10 -16 27.5 -19.5 q17.5 -3.5 28.5 4.5 q52 26 120 82 q91 77 127 150 q36 73 42 173 q13 194 -64 329 q-25 42 -59 19 q-29 -19 -15 -59 q16 -30 25.5 -52.5 q9.5 -22.5 22 -69 q12.5 -46.5 11.5 -109 q-1 -62.5 -15 -136.5 q-8 -46 -42 -93 q-34 -47 -75.5 -80.5 q-41.5 -33.5 -70.5 -53 q-29 -19.5 -44 -26.5 q-17 -9 -22.5 -26 q-5.5 -17 3.5 -33 Z" /><glyph glyph-name="Japan1.916" unicode="&#x308b;" d="M627 666 q22 24 7 50 q-17 22 -44 13 q-60 -21 -124.5 -36.5 q-64.5 -15.5 -101 -21.5 q-36.5 -6 -46.5 -6 q-38 0 -40 -38 q0 -17 10.5 -29 q10.5 -12 26.5 -12 q49 0 152 28 l2 -4 l-1 -1 q-9 -10 -57 -63.5 q-48 -53.5 -88 -98 q-40 -44.5 -79.5 -91.5 q-39.5 -47 -49.5 -62 q-9 -12 -7 -27.5 q2 -15.5 14 -25.5 q11 -11 28 -10 q17 1 24 14 q15 26 74 65.5 q59 39.5 115 61.5 q124 48 206 24 q40 -13 64.5 -47 q24.5 -34 24.5 -74 q1 -46 -34 -86.5 q-35 -40.5 -102 -69.5 q-12 -4 -17 7 q-59 106 -130 127 q-55 15 -99.5 -13.5 q-44.5 -28.5 -57.5 -72.5 q-6 -24 3 -51 q9 -27 32.5 -51.5 q23.5 -24.5 69.5 -39 q46 -14.5 106 -10.5 q73 6 141.5 38.5 q68.5 32.5 116 92 q47.5 59.5 47.5 129.5 q0 65 -40 119 q-40 54 -104 74 q-43 16 -96.5 13 q-53.5 -3 -83 -9.5 q-29.5 -6.5 -54.5 -15.5 q-1 -1 -2 -0.5 q-1 0.5 0 2.5 q158 173 194 208 ZM375 133 q-9 17 9 34 q18 17 50 10 q36 -11 75 -75 q3 -4 1.5 -7 q-1.5 -3 -5.5 -3 q-40 -3 -74 6 q-46 11 -56 35 Z" /><glyph glyph-name="Japan1.917" unicode="&#x308c;" d="M717 163 q-29 7 -30.5 78.5 q-1.5 71.5 10.5 111.5 q1 6 5 24.5 q4 18.5 6.5 30.5 q2.5 12 5 32 q2.5 20 2.5 34.5 q0 14.5 -2.5 32 q-2.5 17.5 -9 30 q-6.5 12.5 -18 23 q-11.5 10.5 -27.5 16.5 q-82 26 -206 -57 q-6 -4 -6 4 q0 27 -7 40 q-13 18 -26 20 q-6 3 -6 10 q8 87 20 121 q5 17 -0.5 32 q-5.5 15 -19.5 20 q-15 4 -31 -2.5 q-16 -6.5 -24 -25.5 q-11 -35 -26 -156 q0 -6 -8 -10 q-3 -1 -23 -9 q-98 -35 -125 -41 q-15 -5 -23.5 -18 q-8.5 -13 -5.5 -29 q5 -19 20.5 -25.5 q15.5 -6.5 29.5 -2.5 q40 8 121 40 q2 1 4 -0.5 q2 -1.5 1 -3.5 q0 -3 -0.5 -12 q-0.5 -9 -0.5 -14 q-2 -11 -5 -15 q-148 -227 -191 -270 q-13 -11 -12.5 -30 q0.5 -19 13.5 -29 q31 -19 55 6 q21 21 124 167 q6 8 7 9 q2 1 4 -1 q0 -51 9 -91 q19 -84 6 -144 q0 -3 -1.5 -8.5 q-1.5 -5.5 -2.5 -8.5 q-8 -39 27 -46 q19 -3 32.5 9 q13.5 12 16.5 26 q2 4 5.5 24 q3.5 20 3 67.5 q-0.5 47.5 -11.5 97.5 q-7 36 -5 145 q0 6 7 13 q20 19 47 41 q27 22 78.5 50 q51.5 28 95.5 35 q13 1 15.5 -1.5 q2.5 -2.5 2.5 -16.5 q0 -27 -11 -89 q-20 -104 -14.5 -177.5 q5.5 -73.5 43.5 -109.5 q42 -36 118 -19 q76 17 133 75 q20 21 6 50 q-6 10 -15 14 q-22 11 -44 -8 q-79 -69 -136 -59 Z" /><glyph glyph-name="Japan1.918" unicode="&#x308d;" d="M576 413 q90 0 140 -57.5 q50 -57.5 19 -132.5 q-27 -58 -91 -93 q-81 -44 -201 -53 q-16 0 -28 -13.5 q-12 -13.5 -11 -29.5 q1 -15 13 -26.5 q12 -11.5 28 -11.5 q42 1 89 10.5 q47 9.5 101.5 30 q54.5 20.5 101.5 61 q47 40.5 71 94.5 q25 53 14 117 q-11 64 -63 116 q-36 35 -80.5 53 q-44.5 18 -87 17.5 q-42.5 -0.5 -69.5 -4.5 q-27 -4 -50 -11 q-3 -1 -5 2 q-2 3 0 5 q60 68 141 132 q21 15 27.5 38 q6.5 23 -5.5 47 q-7 15 -27.5 22 q-20.5 7 -37.5 6 l-17 -1 q-6 -3 -91 -26 q-84 -23 -110 -24 q-16 0 -28.5 -12.5 q-12.5 -12.5 -13.5 -27.5 q-1 -19 14 -31 q15 -12 39 -9 q20 3 47.5 9 q27.5 6 55 13 q27.5 7 34.5 9 q0 -1 1 -2 q-82 -71 -147 -170 q-25 -39 -74.5 -98 q-49.5 -59 -75.5 -85 q-22 -27 -21.5 -44.5 q0.5 -17.5 12.5 -28.5 q32 -21 58 2 q16 16 43.5 48.5 q27.5 32.5 46.5 57.5 l19 24 q33 31 97 54 q64 23 122 23 Z" /><glyph glyph-name="Japan1.920" unicode="&#x308f;" d="M421 734 q1 14 -9.5 27.5 q-10.5 13.5 -27.5 13.5 q-15 0 -26.5 -11 q-11.5 -11 -12.5 -25 q-2 -34 -4 -135 q0 -13 -12 -18 q-36 -12 -96.5 -26.5 q-60.5 -14.5 -71.5 -13.5 q-5 1 -13 -0.5 q-8 -1.5 -18 -10.5 q-10 -9 -10 -25 q1 -54 68 -39 q59 14 140 37 q12 3 12 -10 l0 -2 q0 -15 -8 -26 q-27 -42 -53 -86 q-59 -98 -132 -182 q-11 -11 -12 -27 q-1 -16 13 -32 q18 -10 31 -9 q13 1 22 9 q34 33 67 82 q5 7 19 23 q28 24 47 42 q3 5 6 1 q1 -1 1 -3 q2 -187 4 -240 q0 -37 39 -37 q13 0 25 10.5 q12 10.5 12 28.5 q0 22 -2 126 q-2 104 -2 173 q0 13 11 24 q104 86 229 85 q45 -1 77 -17 q32 -16 45.5 -40.5 q13.5 -24.5 18.5 -42.5 q5 -18 6 -35 q2 -70 -46 -123 q-55 -67 -181 -97 q-18 -1 -25 -16.5 q-7 -15.5 -4 -29.5 q4 -14 17.5 -23 q13.5 -9 30.5 -5 q32 8 55 15.5 q23 7.5 59 24 q36 16.5 70 45 q34 28.5 63 66.5 q37 50 38 122.5 q1 72.5 -37.5 136.5 q-38.5 64 -106.5 87 q-86 28 -172.5 0.5 q-86.5 -27.5 -149.5 -71.5 q1 -2 2 -1 q0 1 2 3 q4 4 36 40 q18 22 18 50 q-1 16 -14 32 q-13 16 -24 23 q-2 2 -4 3 q-14 10 -14 18 q2 84 4 111 Z" /><glyph glyph-name="Japan1.923" unicode="&#x3092;" d="M604 309 q168 101 180 109 q17 9 21 26.5 q4 17.5 -6 29.5 q-8 12 -23.5 15.5 q-15.5 3.5 -31.5 -6.5 q-77 -51 -163 -97 q-9 -6 -17 5 q-39 70 -144 67 q-3 -1 -5 2 q-2 3 0 7 q15 25 41 84 q4 11 18 15 q77 17 142 36 q15 5 22.5 19 q7.5 14 5.5 30 q-4 17 -21 23.5 q-17 6.5 -35 0.5 q-28 -10 -91 -24 q-2 -2 -4.5 1 q-2.5 3 -1.5 6 q11 43 14 55 q7 43 -26 51 q-17 4 -30 -6 q-13 -10 -19 -27 q-17 -65 -25 -89 q-5 -14 -17 -17 q-113 -23 -155 -24 q-16 0 -27.5 -12 q-11.5 -12 -11.5 -27 q0 -16 11.5 -27.5 q11.5 -11.5 27.5 -11.5 q30 0 125 19 q3 1 5.5 -1.5 q2.5 -2.5 0.5 -5.5 q-46 -95 -102 -130 q-14 -8 -18 -24 q-4 -16 6 -33 q17 -25 52 -9 q108 56 165 36 q21 -7 31 -21 q4 -4 1.5 -9.5 q-2.5 -5.5 -7.5 -7.5 q-246 -130 -203 -258 q17 -44 71 -64 q54 -20 115 -20 q50 0 121 6.5 q71 6.5 122 12.5 l50 7 q15 3 24.5 16.5 q9.5 13.5 7.5 28.5 q-2 14 -13 23 q-11 9 -26 9 q-22 -2 -89 -9.5 q-67 -7.5 -120 -12.5 q-53 -5 -81 -5 q-95 0 -109 44 q-15 39 75 101 q34 24 73 41 q4 3 7.5 1.5 q3.5 -1.5 4.5 -5.5 l2 -73 q0 -18 10 -30 q10 -12 29 -11 q18 1 28.5 13 q10.5 12 10.5 24 q0 60 -8 113 q-2 15 10 20 Z" /><glyph glyph-name="Japan1.924" unicode="&#x3093;" d="M876 262 q7 45 -26 52 q-15 4 -31.5 -6 q-16.5 -10 -26.5 -44 q-28 -77 -75 -119.5 q-47 -42.5 -98 -42.5 q-46 0 -62.5 15.5 q-16.5 15.5 -23.5 53.5 q0 1 -2.5 16 q-2.5 15 -3.5 19 q-1 4 -4.5 19 q-3.5 15 -5.5 21.5 q-2 6.5 -7 20 q-5 13.5 -9 20 q-4 6.5 -11 17 q-7 10.5 -14 16.5 q-7 6 -16.5 11.5 q-9.5 5.5 -20.5 8.5 q-66 16 -113 -18 q-2 -1 -1 1 q120 274 176 365 q9 13 8 31.5 q-1 18.5 -15 27.5 q-38 19 -62 -15 q-51 -82 -162 -326 q-113 -258 -140 -349 q-5 -16 1.5 -31.5 q6.5 -15.5 23.5 -20.5 q17 -4 32.5 2.5 q15.5 6.5 21.5 21.5 q20 58 60.5 114.5 q40.5 56.5 79.5 89.5 q26 22 44.5 27.5 q18.5 5.5 32.5 -12.5 q14 -18 19 -64 q9 -76 45 -118 q36 -42 121 -46 q137 0 215 125 q34 52 50 117 Z" /><glyph glyph-name="Japan1.925" unicode="&#x30a1;" d="M755 419 q-11 32 -31.5 43.5 q-20.5 11.5 -57.5 13.5 q-49 0 -194 -11 q-121 -9 -198 -9 q-12 0 -22.5 -11.5 q-10.5 -11.5 -10.5 -23.5 q0 -12 10.5 -23 q10.5 -11 22.5 -11 q34 0 201 10 q140 10 192 10 q18 0 19 -3 q2 -4 -5 -11 q-40 -48 -121 -81 q-4 -2 -7 1 q-3 3 -7.5 13 q-4.5 10 -8.5 16 q-11 13 -32 11 q-13 -1 -22.5 -13.5 q-9.5 -12.5 -7.5 -23.5 q2 -15 2.5 -31.5 q0.5 -16.5 -4.5 -49 q-5 -32.5 -16.5 -60.5 q-11.5 -28 -39.5 -57.5 q-28 -29.5 -68 -48.5 q-13 -4 -18.5 -18 q-5.5 -14 -0.5 -26 q5 -13 18.5 -18 q13.5 -5 26.5 -1 q68 36 107 80.5 q39 44.5 54 110.5 q8 32 49 51 q53 21 97 53 q58 40 73 77 q7 21 0 41 Z" /><glyph glyph-name="Japan1.926" unicode="&#x30a2;" d="M831 589 q-15 39 -40 53 q-25 14 -72 16 q-84 0 -260 -14 q-191 -13 -264 -13 q-16 0 -27.5 -12 q-11.5 -12 -11.5 -28 q0 -16 11.5 -27.5 q11.5 -11.5 27.5 -11.5 q76 0 269 13 q184 14 256 14 q28 0 31 -7 q4 -10 -6 -24 q-51 -58 -168 -107 q-8 -3 -13.5 3 q-5.5 6 -12 19 q-6.5 13 -10.5 18 q-14 17 -37 15 q-15 -1 -26 -15 q-11 -14 -9 -29 q2 -15 2.5 -33.5 q0.5 -18.5 -1 -51.5 q-1.5 -33 -12.5 -65.5 q-11 -32.5 -28.5 -67 q-17.5 -34.5 -52 -65.5 q-34.5 -31 -81.5 -52 q-14 -7 -20 -22.5 q-6 -15.5 0 -30.5 q6 -13 21 -19.5 q15 -6.5 32 -0.5 q87 48 138.5 106.5 q51.5 58.5 71.5 142.5 q11 49 70 74 q62 25 126 70 q75 52 96 97 q11 30 0 55 Z" /><glyph glyph-name="Japan1.927" unicode="&#x30a3;" d="M552 352 q24 24 50.5 63.5 q26.5 39.5 33.5 72.5 q2 11 -4.5 23.5 q-6.5 12.5 -18.5 15.5 q-12 4 -25 -3 q-13 -7 -17 -19 q-16 -39 -48 -79.5 q-32 -40.5 -78.5 -81 q-46.5 -40.5 -78 -65 q-31.5 -24.5 -78.5 -58.5 q-22 -16 -8 -50 q18 -23 50 -7 q86 60 147 114 q7 7 9 -2 q1 -16 3 -47 q1 -20 0 -49.5 q-1 -29.5 -3 -57 q-2 -27.5 -3.5 -51.5 q-1.5 -24 -2.5 -39 l-2 -16 q-1 -12 8 -23 q9 -11 23 -12 q11 -1 23 8 q12 9 13 22 q1 6 4 41.5 q3 35.5 6 89.5 q3 54 2 88 q-3 60 -12 90 q-3 22 7 32 Z" /><glyph glyph-name="Japan1.928" unicode="&#x30a4;" d="M579 497 q33 34 67 83 q34 49 44 91 q4 15 -4 30 q-8 15 -22 19 q-15 4 -29.5 -3.5 q-14.5 -7.5 -19.5 -21.5 q-21 -54 -63.5 -109 q-42.5 -55 -105 -109.5 q-62.5 -54.5 -103.5 -86.5 q-41 -32 -106 -79 q-13 -10 -16 -26 q-3 -16 6 -29 q10 -13 25.5 -15.5 q15.5 -2.5 29.5 5.5 q111 75 197 153 q6 5 14 2.5 q8 -2.5 9 -10.5 q0 -5 1 -16.5 q1 -11.5 2 -23 q1 -11.5 1 -23.5 q1 -21 0.5 -46 q-0.5 -25 -2 -52.5 q-1.5 -27.5 -3 -53.5 q-1.5 -26 -3.5 -50 q-2 -24 -3.5 -42 q-1.5 -18 -2.5 -29 l-1 -11 q-1 -16 9.5 -28 q10.5 -12 26.5 -13 q14 -1 28 9 q14 10 15 25 q1 10 5 56 q4 46 7.5 118.5 q3.5 72.5 2.5 117.5 q-4 82 -15 121 q-7 28 9 47 Z" /><glyph glyph-name="Japan1.930" unicode="&#x30a6;" d="M463 29 q42 20 84 50.5 q42 30.5 87.5 76 q45.5 45.5 83 111.5 q37.5 66 57.5 142 q12 48 6 80.5 q-6 32.5 -16.5 51.5 q-10.5 19 -29.5 28 q-19 9 -34 11.5 q-15 2.5 -29 1.5 q-6 -1 -21.5 -1.5 q-15.5 -0.5 -42 -2 q-26.5 -1.5 -46.5 -2.5 q-8 -1 -14 4.5 q-6 5.5 -6 13.5 q0 97 -8 128 q-5 17 -21 24 q-16 7 -32 2 q-14 -6 -21.5 -21.5 q-7.5 -15.5 -3.5 -30.5 q6 -16 6 -104 q0 -18 -19 -20 q-91 -3 -135 -3 q-47 0 -75 -36 q-31 -40 -12 -106 q18 -59 18 -117 q0 -16 12 -28.5 q12 -12.5 28 -13.5 q39 0 41 39 q3 62 -21 139 q-15 43 9 43 q37 0 189 5.5 q152 5.5 180 8.5 q13 1 19 -3 q6 -4 8.5 -21 q2.5 -17 -8.5 -52 q-9 -35 -28 -75.5 q-19 -40.5 -50 -88 q-31 -47.5 -80.5 -91 q-49.5 -43.5 -107.5 -69.5 q-14 -7 -20 -22.5 q-6 -15.5 0 -31.5 q7 -15 23.5 -20.5 q16.5 -5.5 29.5 0.5 Z" /><glyph glyph-name="Japan1.931" unicode="&#x30a7;" d="M307 334 q11 -2 31 -2 q20 0 36.5 0.5 q16.5 0.5 41.5 2.5 q25 2 33 2 q5 1 7 -1.5 q2 -2.5 2 -8.5 q-2 -22 -1 -49 q1 -16 3 -62 q2 -46 2 -60 q1 -10 -9 -10 q-123 -9 -182 -7 q-9 2 -21 -6.5 q-12 -8.5 -13 -21.5 q-2 -12 6 -25 q8 -13 21 -14 q21 -2 65.5 0 q44.5 2 98.5 5 q54 3 70 4 q22 1 239 5 q11 0 22 11 q11 11 11 22 q0 13 -11 24 q-11 11 -22 11 q-111 0 -196 -3 q-11 -1 -11 8 q0 24 -2 73.5 q-2 49.5 -2 59.5 q0 8 0.5 20.5 q0.5 12.5 0.5 16.5 q0 10 11 12 q85 2 136 -2 q13 -1 24 8 q11 9 12 23 q1 12 -9.5 23.5 q-10.5 11.5 -22.5 12.5 q-72 6 -247 -3 q-105 -4 -114 -2 q-12 2 -25 -6.5 q-13 -8.5 -14 -22.5 q-2 -12 6.5 -24.5 q8.5 -12.5 22.5 -13.5 Z" /><glyph glyph-name="Japan1.932" unicode="&#x30a8;" d="M242 485 q15 -3 42 -3 q27 0 46.5 1 q19.5 1 57 3.5 q37.5 2.5 43.5 2.5 q7 1 12.5 -4.5 q5.5 -5.5 5.5 -13.5 q-2 -31 -1 -67 q4 -83 6 -161 q1 -8 -4 -14 q-5 -6 -14 -6 q-154 -11 -243 -9 q-15 2 -29 -8 q-14 -10 -15 -25 q-2 -15 8 -29.5 q10 -14.5 25 -16.5 q29 -2 88.5 0.5 q59.5 2.5 132.5 7 q73 4.5 93 5.5 q56 2 323 6 q16 0 27.5 12 q11.5 12 11.5 27 q0 16 -11.5 28 q-11.5 12 -27.5 12 q-166 0 -266 -4 q-8 -1 -14 4.5 q-6 5.5 -6 13.5 q0 30 -2.5 96.5 q-2.5 66.5 -2.5 80.5 q0 10 0.5 27 q0.5 17 0.5 23 q2 18 21 20 q127 2 182 -2 q16 -1 28 9 q12 10 14 26 q1 16 -10 28.5 q-11 12.5 -27 13.5 q-116 8 -330 -4 q-138 -6 -153 -3 q-15 2 -29.5 -8 q-14.5 -10 -16.5 -25 q-2 -15 8 -28.5 q10 -13.5 26 -15.5 Z" /><glyph glyph-name="Japan1.933" unicode="&#x30a9;" d="M525 84 q1 -10 -1 -12.5 q-2 -2.5 -12 -2.5 l-57 -1 q-13 0 -24 -10.5 q-11 -10.5 -11 -22.5 q0 -10 11 -20 q11 -10 24 -10 l42 0 q51 0 77 20 q21 21 18 63 q0 11 -7 79 q-10 79 -15 149 q-1 11 8 11 q113 -4 144 -12 q32 -7 39 26 q2 11 -5.5 24 q-7.5 13 -18.5 16 q-49 10 -163 13 q-11 0 -11 11 q-5 60 -2 81 q2 11 -6.5 21.5 q-8.5 10.5 -22.5 11.5 q-12 1 -24.5 -6.5 q-12.5 -7.5 -13.5 -18.5 q-2 -17 0 -89 q1 -6 -0.5 -8 q-1.5 -2 -7.5 -2 q-153 -4 -180 -6 q-12 0 -22.5 -11.5 q-10.5 -11.5 -10.5 -23.5 q1 -12 12.5 -22.5 q11.5 -10.5 23.5 -9.5 q68 5 170 5 q2 -1 2 -1 q-26 -40 -79.5 -86.5 q-53.5 -46.5 -134.5 -81.5 q-11 -6 -15.5 -19.5 q-4.5 -13.5 -1.5 -25.5 q5 -15 18 -20 q13 -5 22 1 q130 57 219 152 q0 1 0 2 q2 -20 8.5 -85 q6.5 -65 7.5 -79 Z" /><glyph glyph-name="Japan1.934" unicode="&#x30aa;" d="M533 141 q2 -15 -2.5 -20.5 q-4.5 -5.5 -20.5 -5.5 l-76 -1 q-16 0 -28 -11.5 q-12 -11.5 -12 -27.5 q0 -16 11 -28 q11 -12 29 -12 l57 0 q67 0 97 33 q27 26 24 77 q0 5 -10 106 q-12 112 -20 199 q-2 19 17 19 q145 -4 192 -15 q41 -10 51 29 q3 14 -6 28 q-9 14 -25 18 q-55 13 -218 18 q-8 0 -14 6 q-6 6 -7 14 q-5 80 -2 108 q2 16 -8 29.5 q-10 13.5 -25 15.5 q-16 2 -30 -8.5 q-14 -10.5 -15 -25.5 q-4 -33 1 -118 q1 -8 -4 -14 q-5 -6 -13 -6 q-203 -4 -241 -7 q-15 0 -26.5 -12.5 q-11.5 -12.5 -10.5 -27.5 q1 -16 13.5 -27.5 q12.5 -11.5 28.5 -10.5 q126 7 227 7 q5 0 8 -4.5 q3 -4.5 -1 -9.5 q-38 -55 -109 -116.5 q-71 -61.5 -182 -106.5 q-14 -7 -20 -23 q-6 -16 -1 -31 q7 -16 23.5 -21 q16.5 -5 28.5 1 q174 80 286 202 q3 5 7 3.5 q4 -1.5 4 -7.5 q9 -75 22 -216 Z" /><glyph glyph-name="Japan1.935" unicode="&#x30ab;" d="M217 46 q10 -14 28 -16 q18 -2 28 5 q112 74 178 210 q45 89 58 193 q2 13 14 13 q120 10 139 13 q13 2 22 2 q9 0 14 -8.5 q5 -8.5 5 -28.5 q2 -51 -15.5 -149.5 q-17.5 -98.5 -25.5 -123.5 q-8 -25 -43 -25 l-51 0 q-16 0 -28 -11.5 q-12 -11.5 -12 -27.5 q0 -16 12 -28 q12 -12 28 -12 q54 -1 71 1 q15 2 31 6.5 q16 4.5 38.5 25 q22.5 20.5 30.5 52.5 q4 16 13 60 q9 44 20 119 q11 75 10 116 q-3 65 -37 91 q-31 26 -105 18 q-17 -2 -55.5 -6 q-38.5 -4 -49.5 -5 q-5 0 -9 3.5 q-4 3.5 -3 8.5 q11 117 9 154 q0 16 -12.5 27.5 q-12.5 11.5 -28.5 10.5 q-16 0 -27 -12.5 q-11 -12.5 -10 -28.5 q1 -35 -12 -155 q0 -14 -14 -14 q-139 -6 -189 -4 q-16 0 -28 -10.5 q-12 -10.5 -13 -26.5 q-1 -16 11 -28 q12 -12 27 -13 q36 -2 183 3 q5 1 8 -2.5 q3 -3.5 2 -8.5 q-5 -35 -16 -72 q-11 -37 -32.5 -85 q-21.5 -48 -61 -94.5 q-39.5 -46.5 -91.5 -81.5 q-12 -10 -15.5 -25.5 q-3.5 -15.5 4.5 -29.5 Z" /><glyph glyph-name="Japan1.936" unicode="&#x30ac;" d="M868 732 q-11 9 -24.5 16 q-13.5 7 -30.5 9.5 q-17 2.5 -26 -11.5 q-14 -23 17 -46 q29 -20 43 -48 q20 -36 50 -23 q30 15 13 51 q-15 30 -42 52 ZM783 682 q-12 10 -25 16.5 q-13 6.5 -30.5 9.5 q-17.5 3 -25.5 -12 q-14 -21 17 -44 q24 -17 43 -50 q7 -15 21 -22 q14 -7 29 -1 q29 16 14 52 q-14 30 -43 51 ZM214 48 q10 -14 28 -16 q18 -2 28 5 q114 74 178 209 q45 89 58 193 q2 13 14 13 q120 10 139 13 q13 2 22 2 q9 0 14 -8.5 q5 -8.5 5 -28.5 q2 -51 -15.5 -149.5 q-17.5 -98.5 -25.5 -123.5 q-8 -25 -43 -25 l-51 0 q-16 0 -28 -11.5 q-12 -11.5 -12 -27.5 q0 -15 12 -27 q12 -12 28 -12 q54 -1 71 1 q15 2 31 6.5 q16 4.5 38.5 24.5 q22.5 20 30.5 52 q4 16 13 60 q9 44 20 119 q11 75 10 116 q-3 63 -37 91 q-31 26 -105 18 q-17 -2 -55.5 -6 q-38.5 -4 -49.5 -5 q-5 0 -8.5 3.5 q-3.5 3.5 -2.5 8.5 q10 123 8 153 q0 16 -12.5 27.5 q-12.5 11.5 -28.5 10.5 q-16 0 -27 -12.5 q-11 -12.5 -10 -28.5 q1 -27 -11 -154 q-2 -14 -15 -14 q-139 -6 -189 -4 q-16 0 -28 -11 q-12 -11 -13 -27 q0 -15 11.5 -27 q11.5 -12 27.5 -13 q35 -2 182 3 q5 1 8 -2.5 q3 -3.5 2 -8.5 q-5 -35 -16 -72 q-11 -37 -32.5 -85 q-21.5 -48 -61 -94.5 q-39.5 -46.5 -91.5 -81.5 q-12 -10 -15.5 -25 q-3.5 -15 4.5 -29 Z" /><glyph glyph-name="Japan1.937" unicode="&#x30ad;" d="M596 13 q17 4 24.5 19.5 q7.5 15.5 3.5 33.5 q-8 22 -58 189 q-2 7 2 13.5 q4 6.5 11 7.5 q39 6 96.5 17.5 q57.5 11.5 96 20 q38.5 8.5 43.5 9.5 q16 4 25.5 18.5 q9.5 14.5 6.5 29.5 q-5 22 -27 29 q-14 4 -39 -3 q-14 -3 -98.5 -20 q-84.5 -17 -121.5 -23 q-20 -3 -23 15 l-20 95 q-3 19 15 22 q99 13 179 33 q16 4 25 18 q9 14 5 29 q-4 24 -28 31 q-9 2 -38 -5 q-87 -20 -158 -29 q-19 -3 -24 16 q-5 23 -11.5 56.5 q-6.5 33.5 -6.5 35.5 q-7 31 -15 40 q-16 16 -37 12 q-22 -4 -31 -26 q-4 -13 3 -40 q15 -71 18 -84 q2 -8 -3 -13.5 q-5 -5.5 -12 -5.5 q-121 -4 -200 -27 q-15 -5 -22.5 -18.5 q-7.5 -13.5 -3.5 -30.5 q3 -14 14.5 -23.5 q11.5 -9.5 26.5 -6.5 q38 11 72.5 15.5 q34.5 4.5 80.5 6 q46 1.5 47 1.5 q8 1 15.5 -4 q7.5 -5 8.5 -13 l20 -92 q1 -7 -3.5 -13 q-4.5 -6 -11.5 -6 q-148 -6 -228 -34 q-14 -6 -21 -21 q-7 -15 -3 -31 q4 -12 16 -20 q12 -8 27 -5 q7 1 34 8.5 q27 7.5 72.5 13.5 q45.5 6 119.5 9 q19 2 24 -17 q32 -112 64 -207 q15 -35 48 -26 Z" /><glyph glyph-name="Japan1.938" unicode="&#x30ae;" d="M800 782 q-56 46 -80 14 q-14 -21 17 -46 q30 -21 42 -49 q19 -35 51 -22 q32 14 13 50 q-11 28 -43 53 ZM715 732 q-11 10 -24.5 17 q-13.5 7 -30.5 9.5 q-17 2.5 -26 -11.5 q-13 -24 17 -46 q24 -16 43 -49 q7 -15 21 -22 q14 -7 29 0 q29 14 15 50 q-16 30 -44 52 ZM588 16 q17 4 24 19.5 q7 15.5 2 33.5 q-5 13 -28.5 91 q-23.5 78 -29.5 97 q-3 19 14 22 q38 6 95.5 17.5 q57.5 11.5 97 20 q39.5 8.5 43.5 9.5 q15 3 24.5 17.5 q9.5 14.5 7.5 29.5 q-4 20 -28 30 q-12 4 -39 -3 q-179 -37 -219 -44 q-19 -3 -24 15 l-20 95 q-3 17 15 21 q20 3 42.5 6.5 q22.5 3.5 41 7 q18.5 3.5 36.5 7 q18 3.5 30 6.5 q12 3 21 5 l9 2 q16 4 24.5 18.5 q8.5 14.5 4.5 29.5 q-5 25 -28 30 q-6 1 -38 -4 q-88 -20 -158 -30 q-18 -3 -24 16 q-5 25 -18 92 q-7 31 -15 39 q-16 18 -37 13 q-22 -5 -31 -27 q-3 -13 3 -39 q1 -6 7.5 -34.5 q6.5 -28.5 10.5 -48.5 q3 -19 -15 -19 q-118 -4 -199 -28 q-15 -5 -23 -19 q-8 -14 -4 -30 q3 -14 14.5 -23.5 q11.5 -9.5 26.5 -6.5 q29 9 61.5 14 q32.5 5 53 6.5 q20.5 1.5 48.5 2 q28 0.5 37 1.5 q20 2 24 -17 l20 -92 q1 -7 -3.5 -13 q-4.5 -6 -11.5 -6 q-149 -6 -227 -34 q-14 -6 -21.5 -21.5 q-7.5 -15.5 -3.5 -30.5 q12 -30 43 -26 q8 1 34 9 q26 8 72 14.5 q46 6.5 120 9.5 q8 1 15.5 -4.5 q7.5 -5.5 9.5 -13.5 q44 -159 63 -206 q14 -36 50 -27 Z" /><glyph glyph-name="Japan1.939" unicode="&#x30af;" d="M636 499 q-6 -24 -11 -36 q-44 -115 -125.5 -209.5 q-81.5 -94.5 -191.5 -144.5 q-15 -7 -20 -23 q-5 -16 1 -31 q7 -14 22.5 -19.5 q15.5 -5.5 30.5 -0.5 q118 56 206.5 155 q88.5 99 134.5 202 q33 77 33 113 q-1 31 -15 53 q-14 22 -34 43 q-24 28 -107 20 q-21 -3 -38 -3 q-6 -1 -9 3.5 q-3 4.5 0 10.5 q19 44 22 65 q4 14 -5 28.5 q-9 14.5 -25 17.5 q-14 3 -28.5 -6 q-14.5 -9 -18.5 -23 q-27 -88 -92 -183 q-65 -95 -134 -171 q-11 -10 -11 -27 q0 -17 11 -28 q12 -12 28.5 -11.5 q16.5 0.5 27.5 10.5 q90 93 165 215 q7 16 29 18 q49 1 115 7 q18 3 23 -5 q16 -25 16 -35 l0 -5 Z" /><glyph glyph-name="Japan1.940" unicode="&#x30b0;" d="M853 728 q-12 10 -25 16.5 q-13 6.5 -30.5 9.5 q-17.5 3 -25.5 -12 q-14 -22 18 -46 q31 -22 42 -48 q20 -36 50 -23 q32 16 13 51 q-12 29 -42 52 ZM768 679 q-11 9 -24.5 16 q-13.5 7 -30.5 9.5 q-17 2.5 -26 -11.5 q-14 -22 17 -45 q23 -16 43 -50 q7 -15 21 -22 q14 -7 29 0 q29 14 15 51 q-16 30 -44 52 ZM626 499 q-2 -15 -9 -35 q-45 -115 -126.5 -209.5 q-81.5 -94.5 -191.5 -145.5 q-15 -7 -20.5 -22.5 q-5.5 -15.5 1.5 -29.5 q6 -14 21.5 -20 q15.5 -6 30.5 0 q118 56 207.5 155 q89.5 99 133.5 200 q33 75 33 113 q-1 31 -15 54 q-13 21 -33 42 q-26 29 -108 20 q-14 -2 -38 -2 q-6 -1 -9 3.5 q-3 4.5 0 10.5 q19 41 23 63 q3 14 -6 28.5 q-9 14.5 -25 18.5 q-14 3 -28.5 -6.5 q-14.5 -9.5 -17.5 -24.5 q-48 -155 -226 -351 q-12 -11 -12 -27.5 q0 -16.5 12 -27.5 q12 -12 28 -11.5 q16 0.5 27 10.5 q90 91 165 215 q9 16 29 18 q66 2 115 6 q18 2 23 -5 l1 0 q15 -19 15 -36 l0 -4 Z" /><glyph glyph-name="Japan1.941" unicode="&#x30b1;" d="M417 540 q47 91 49 150 q1 17 -10.5 29 q-11.5 12 -27.5 12 q-16 2 -28.5 -10 q-12.5 -12 -13.5 -28 q-9 -75 -72.5 -166.5 q-63.5 -91.5 -140.5 -150.5 q-13 -9 -15.5 -26 q-2.5 -17 6.5 -28 q11 -13 26.5 -15.5 q15.5 -2.5 28.5 6.5 q67 49 121 115 q14 17 33 17 q49 0 111 2 q8 0 14 -5.5 q6 -5.5 6 -13.5 q0 -142 -67 -230 q-24 -31 -53.5 -52 q-29.5 -21 -46.5 -26 l-17 -6 q-19 -6 -26.5 -22 q-7.5 -16 -3.5 -31 q4 -16 24.5 -22.5 q20.5 -6.5 46.5 3.5 q222 107 222 387 q0 8 6 14 q6 6 14 6 q126 2 186 2 q16 0 27.5 12 q11.5 12 11.5 28 q0 16 -12 27 q-12 11 -28 11 q-198 0 -362 -4 q-7 -1 -10 4.5 q-3 5.5 1 10.5 Z" /><glyph glyph-name="Japan1.942" unicode="&#x30b2;" d="M843 716 q-12 10 -25 16.5 q-13 6.5 -30.5 9.5 q-17.5 3 -25.5 -12 q-14 -22 17 -46 q28 -18 43 -48 q19 -35 51 -23 q30 17 12 52 q-15 30 -42 51 ZM758 668 q-12 9 -24.5 15.5 q-12.5 6.5 -30.5 9 q-18 2.5 -26 -11.5 q-15 -20 17 -45 q21 -14 43 -49 q7 -16 21 -23 q14 -7 29 0 q29 15 14 51 q-14 29 -43 53 ZM419 541 q46 89 49 148 q1 17 -10.5 29 q-11.5 12 -27.5 12 q-16 2 -28.5 -9.5 q-12.5 -11.5 -13.5 -27.5 q-9 -75 -73 -166 q-64 -91 -141 -150 q-13 -9 -15.5 -26 q-2.5 -17 7.5 -28 q11 -13 26.5 -15.5 q15.5 -2.5 28.5 6.5 q62 45 121 115 q11 16 33 16 q15 1 56 2 q41 1 55 1 q8 0 14 -5.5 q6 -5.5 6 -13.5 q0 -140 -68 -231 q-24 -31 -53 -51.5 q-29 -20.5 -46 -26.5 l-17 -5 q-20 -7 -27.5 -22.5 q-7.5 -15.5 -3.5 -30.5 q5 -16 25 -22 q20 -6 47 3 q222 107 222 387 q0 8 6 14 q6 6 14 6 q124 2 186 2 q16 0 27.5 11.5 q11.5 11.5 11.5 27.5 q0 16 -12 27.5 q-12 11.5 -28 11.5 q-198 0 -362 -4 q-7 -1 -10 4.5 q-3 5.5 1 10.5 Z" /><glyph glyph-name="Japan1.943" unicode="&#x30b3;" d="M622 103 q23 -1 44 3 q21 4 42 14.5 q21 10.5 34 33 q13 22.5 13 54.5 l0 273 q-1 36 -12.5 61.5 q-11.5 25.5 -29 36.5 q-17.5 11 -39 18 q-21.5 7 -41.5 5.5 q-20 -1.5 -37 -0.5 l-330 0 q-17 1 -28 -10.5 q-11 -11.5 -11 -27.5 q0 -16 10 -27.5 q10 -11.5 29 -12.5 q304 -1 354 1 q34 -1 46 -9 q12 -8 12 -35 l0 -264 q0 -23 -10.5 -30.5 q-10.5 -7.5 -41.5 -6.5 q-57 2 -203 1 q-146 -1 -158 -2 q-14 0 -26 -12.5 q-12 -12.5 -12 -26.5 q0 -15 12 -26.5 q12 -11.5 27 -11.5 l17 0 q17 1 43 1 q26 0 59.5 0.5 q33.5 0.5 68.5 1 q35 0.5 67.5 0.5 q32.5 0 59.5 -0.5 q27 -0.5 41 -1.5 Z" /><glyph glyph-name="Japan1.944" unicode="&#x30b4;" d="M845 757 q-12 10 -25 16.5 q-13 6.5 -30.5 9.5 q-17.5 3 -25.5 -12 q-14 -21 17 -46 q27 -18 43 -48 q7 -15 20.5 -22 q13.5 -7 29.5 -1 q29 17 13 51 q-14 31 -42 52 ZM759 708 q-11 9 -24.5 16 q-13.5 7 -30.5 9.5 q-17 2.5 -26 -11.5 q-6 -13 -0.5 -25 q5.5 -12 18.5 -20 q25 -18 42 -49 q8 -16 22 -23 q14 -7 29 0 q29 15 14 51 q-12 26 -44 52 ZM612 108 q22 -1 43 3 q21 4 42 14.5 q21 10.5 34 33 q13 22.5 13 54.5 l0 272 q-1 36 -12.5 62 q-11.5 26 -29 37 q-17.5 11 -39 18 q-21.5 7 -41.5 5.5 q-20 -1.5 -37 -0.5 l-330 0 q-17 1 -28 -10.5 q-11 -11.5 -11 -27.5 q0 -16 10 -27.5 q10 -11.5 29 -12.5 q304 -1 355 1 q33 -1 45 -9 q12 -8 12 -36 l0 -263 q0 -23 -10.5 -30.5 q-10.5 -7.5 -40.5 -6.5 q-58 2 -204 1 q-146 -1 -158 -2 q-14 0 -26 -12.5 q-12 -12.5 -12 -26.5 q0 -15 12 -26.5 q12 -11.5 27 -11.5 l17 1 q17 0 43 0 q26 0 59.5 0.5 q33.5 0.5 69 1 q35.5 0.5 67.5 0.5 q32 0 59.5 -0.5 q27.5 -0.5 41.5 -1.5 Z" /><glyph glyph-name="Japan1.945" unicode="&#x30b5;" d="M419 31 q9 -11 28 -11 q19 0 29 14 q9 6 44 38.5 q35 32.5 81.5 96 q46.5 63.5 57.5 117.5 q8 44 14 162 q0 13 14 15 q28 0 58 1 q30 1 48.5 2 q18.5 1 19.5 1 q16 1 27 12.5 q11 11.5 10 25.5 q-1 16 -12.5 27 q-11.5 11 -27.5 11 q-17 0 -120 -5 q-5 -1 -9 3 q-4 4 -4 10 q2 66 2 157 q0 16 -11.5 27 q-11.5 11 -27.5 11 q-15 0 -26 -11.5 q-11 -11.5 -11 -27.5 q0 -97 -1 -158 q-2 -14 -15 -15 q-46 -2 -161 2 q-14 2 -14 15 q-3 108 -3 137 q0 16 -11 27 q-11 11 -25 11 q-17 0 -28 -11 q-11 -11 -11 -28 q0 -28 3 -134 q0 -6 -4.5 -10 q-4.5 -4 -9.5 -3 q-63 3 -133 3 q-16 0 -27.5 -11.5 q-11.5 -11.5 -11.5 -26.5 q0 -15 11.5 -26 q11.5 -11 26.5 -12 q6 0 135 -3 q5 0 9.5 -4.5 q4.5 -4.5 4.5 -10.5 q1 -41 1 -101 q1 -70 38 -117 q16 -15 32 -14.5 q16 0.5 25 8.5 q10 9 11 24.5 q1 15.5 -9 27.5 q-20 23 -21 72 q0 6 -0.5 40.5 q-0.5 34.5 -0.5 57.5 q-1 6 3 10.5 q4 4.5 10 3.5 q111 -4 158 -2 q5 0 9 -4 q4 -4 3 -9 q-4 -100 -13 -147 q-10 -51 -59 -109 q-49 -58 -92 -95 q-18 -13 -21 -22 q-10 -25 7 -42 Z" /><glyph glyph-name="Japan1.946" unicode="&#x30b6;" d="M864 731 q-12 10 -25 16.5 q-13 6.5 -30.5 9.5 q-17.5 3 -25.5 -12 q-14 -22 17 -45 q30 -20 43 -49 q19 -35 50 -22 q30 15 13 51 q-14 29 -42 51 ZM779 682 q-12 10 -25 16.5 q-13 6.5 -30.5 9.5 q-17.5 3 -25.5 -12 q-14 -20 17 -45 q21 -14 43 -49 q7 -15 21 -22 q14 -7 29 -1 q29 16 14 52 q-14 30 -43 51 ZM402 33 q9 -11 28 -11 q19 0 30 14 l6 6 q7 5 16 13.5 q9 8.5 21.5 20.5 q12.5 12 26 26.5 q13.5 14.5 28 31 q14.5 16.5 27.5 35 q13 18.5 24.5 38 q11.5 19.5 20 40 q8.5 20.5 12.5 40.5 q8 37 14 162 q0 12 14 14 q27 1 58 2 q31 1 48.5 2 q17.5 1 19.5 1 q16 1 27 12 q11 11 10 26 q-1 16 -12.5 27 q-11.5 11 -27.5 10 q-17 0 -120 -5 q-5 0 -9 4 q-4 4 -4 10 q2 66 2 155 q0 16 -11.5 27.5 q-11.5 11.5 -26.5 11.5 q-16 0 -27 -12 q-11 -12 -11 -28 q0 -95 -1 -156 q-2 -13 -14 -15 q-47 -2 -162 2 q-14 2 -14 15 q-3 108 -3 135 q0 16 -11 27.5 q-11 11.5 -25 11.5 q-17 0 -28 -11.5 q-11 -11.5 -11 -27.5 q0 -26 3 -133 q0 -6 -4 -10.5 q-4 -4.5 -9 -3.5 q-64 3 -133 3 q-16 0 -27.5 -11 q-11.5 -11 -11.5 -27 q0 -15 11 -25.5 q11 -10.5 27 -11.5 q3 0 135 -3 q13 -2 13 -15 q2 -84 2 -102 q1 -74 39 -116 q12 -15 29 -15 q17 0 26 9 q10 8 11 24.5 q1 16.5 -9 28.5 q-20 20 -21 70 q0 5 -0.5 40 q-0.5 35 -0.5 59 q-1 6 3.5 10 q4.5 4 9.5 3 q95 -3 158 -2 q5 0 9 -3.5 q4 -3.5 3 -9.5 q-4 -99 -13 -146 q-10 -51 -58.5 -108.5 q-48.5 -57.5 -92.5 -95.5 q-18 -16 -21 -21 q-10 -25 7 -42 Z" /><glyph glyph-name="Japan1.947" unicode="&#x30b7;" d="M438 369 q-28 32 -87.5 46.5 q-59.5 14.5 -113.5 13.5 q-16 -1 -28 -13 q-12 -12 -11 -29 q1 -16 13 -27.5 q12 -11.5 28 -10.5 q27 1 73 -7 q46 -8 63 -23 q13 -15 30 -15 q16 0 26 9 q12 10 14 27 q2 17 -7 29 ZM310 575 q61 -22 95 -62 q10 -11 25 -14 q15 -3 32 6 q12 10 14.5 27 q2.5 17 -6.5 29 q-37 45 -90.5 71.5 q-53.5 26.5 -84.5 25.5 q-16 -1 -27.5 -13 q-11.5 -12 -11.5 -28 q0 -26 26 -36 q6 -2 16 -4 q10 -2 12 -2 ZM302 66 q41 8 107.5 36 q66.5 28 144.5 71.5 q78 43.5 156 107.5 q78 64 127 132 q9 13 6 29.5 q-3 16.5 -16 26.5 q-11 10 -28.5 7.5 q-17.5 -2.5 -27.5 -16.5 q-80 -117 -265 -220 q-146 -84 -215 -94 q-15 -1 -24.5 -13.5 q-9.5 -12.5 -9.5 -29.5 q0 -16 13 -27 q13 -11 32 -10 Z" /><glyph glyph-name="Japan1.948" unicode="&#x30b8;" d="M816 748 q-12 10 -25 16.5 q-13 6.5 -30.5 9.5 q-17.5 3 -25.5 -12 q-14 -22 17 -45 q30 -20 43 -49 q7 -15 20.5 -22 q13.5 -7 29.5 -1 q31 17 14 51 q-14 30 -43 52 ZM730 699 q-12 10 -25 16.5 q-13 6.5 -30.5 9.5 q-17.5 3 -25.5 -12 q-13 -21 18 -45 q25 -18 42 -49 q8 -15 22 -22 q14 -7 29 -1 q29 16 14 52 q-14 29 -44 51 ZM428 373 q-28 33 -86.5 47 q-58.5 14 -113.5 13 q-16 -1 -28 -13 q-12 -12 -11 -29 q1 -16 13 -27.5 q12 -11.5 28 -10.5 q26 1 73 -7 q47 -8 64 -22 q12 -16 29 -16 q16 0 26 10 q12 9 14 26 q2 17 -8 29 ZM301 579 q61 -22 95 -62 q10 -12 25 -14.5 q15 -2.5 32 7.5 q12 9 14.5 26.5 q2.5 17.5 -6.5 29.5 q-38 45 -91 71.5 q-53 26.5 -84 25.5 q-16 -1 -27.5 -13 q-11.5 -12 -11.5 -28 q0 -27 25 -36 q6 -2 15.5 -4 q9.5 -2 13.5 -3 ZM292 72 q99 19 271 118.5 q172 99.5 264 227.5 q9 13 6.5 29.5 q-2.5 16.5 -15.5 26.5 q-11 9 -28.5 6.5 q-17.5 -2.5 -27.5 -16.5 q-82 -117 -265 -220 q-70 -40 -129.5 -64.5 q-59.5 -24.5 -85.5 -28.5 q-15 -1 -24.5 -14 q-9.5 -13 -9.5 -30 q0 -15 13 -26 q13 -11 31 -9 Z" /><glyph glyph-name="Japan1.949" unicode="&#x30b9;" d="M416 180 q46 30 116 92 q16 13 34 8 q60 -21 119.5 -70 q59.5 -49 88.5 -94 q9 -13 25.5 -16 q16.5 -3 30.5 5 q13 9 16 25.5 q3 16.5 -5 29.5 q-32 46 -90.5 98 q-58.5 52 -126.5 84 q-6 2 -7.5 8.5 q-1.5 6.5 3.5 12.5 q91 115 93 176 q0 29 -21 63 q-37 51 -112 47 q-27 -1 -153.5 -14.5 q-126.5 -13.5 -163.5 -16.5 q-16 -1 -27.5 -13 q-11.5 -12 -10.5 -28 q0 -16 11.5 -27.5 q11.5 -11.5 31.5 -10.5 q30 3 104.5 11 q74.5 8 132.5 14 q58 6 78 6 q34 0 40 -7 q10 -16 10 -28 q0 -9 -12.5 -33.5 q-12.5 -24.5 -45 -67 q-32.5 -42.5 -76.5 -85.5 q-71 -67 -133.5 -106 q-62.5 -39 -152.5 -78 q-15 -6 -21.5 -20.5 q-6.5 -14.5 -1.5 -31.5 q6 -15 21 -21 q15 -6 31 -2 q92 34 174 90 Z" /><glyph glyph-name="Japan1.950" unicode="&#x30ba;" d="M840 760 q-11 10 -24.5 17 q-13.5 7 -30.5 9.5 q-17 2.5 -26 -11.5 q-14 -23 17 -46 q28 -19 43 -49 q7 -14 21 -21 q14 -7 29 -1 q29 15 13 50 q-12 29 -42 52 ZM754 711 q-56 46 -80 14 q-15 -22 17 -45 q27 -18 42 -49 q8 -15 22 -22 q14 -7 29 -1 q29 16 14 52 q-13 27 -44 51 ZM411 184 q39 24 116 93 q17 12 34 6 q59 -20 118.5 -69 q59.5 -49 89.5 -94 q8 -13 25 -16 q17 -3 30 5 q13 9 16 25 q3 16 -5 30 q-32 46 -90.5 97.5 q-58.5 51.5 -125.5 83.5 q-17 8 -5 22 q91 115 93 176 q0 31 -21 63 q-37 51 -112 47 q-28 -2 -154 -15.5 q-126 -13.5 -162 -15.5 q-16 -1 -27.5 -13 q-11.5 -12 -10.5 -28 q0 -17 11.5 -28 q11.5 -11 30.5 -10 q30 3 104.5 11 q74.5 8 132.5 14 q58 6 78 6 q34 0 41 -7 q9 -14 9 -28 q0 -9 -12.5 -33.5 q-12.5 -24.5 -45 -67 q-32.5 -42.5 -76.5 -85.5 q-71 -67 -133.5 -106 q-62.5 -39 -152.5 -78 q-15 -6 -21.5 -20.5 q-6.5 -14.5 -1.5 -31.5 q12 -32 52 -24 q94 35 175 91 Z" /><glyph glyph-name="Japan1.951" unicode="&#x30bb;" d="M328 476 q-128 -40 -147 -46 q-14 -6 -21.5 -21 q-7.5 -15 -3.5 -32 q7 -24 32 -26 q13 -2 36 6 q36 14 106 35 q6 2 11 -2 q5 -4 5 -11 l2 -192 q0 -51 32 -89.5 q32 -38.5 108 -35.5 q250 18 303 25 q16 2 26.5 15 q10.5 13 9.5 29 q-1 16 -14 27 q-13 11 -29 9 l-24 -2 q-25 -2 -62.5 -5 q-37.5 -3 -78 -6.5 q-40.5 -3.5 -78 -6.5 q-37.5 -3 -56.5 -4 q-21 -1 -34 3 q-13 4 -18 14.5 q-5 10.5 -6 18 q-1 7.5 -1 23.5 q0 11 0 48 q0 37 0 87.5 q0 50.5 0 65.5 q0 19 19 24 q147 42 230 53 q6 1 9 -3.5 q3 -4.5 0 -9.5 q-43 -64 -161 -185 q-11 -11 -11.5 -27.5 q-0.5 -16.5 12.5 -29.5 q30 -26 63 6 q135 142 168 198 q40 66 20 107 q-18 36 -104 25 q-110 -18 -228 -50 q-7 -3 -12.5 1.5 q-5.5 4.5 -5.5 11.5 q0 99 2 137 q1 16 -10 28.5 q-11 12.5 -26 13.5 q-16 2 -28.5 -9 q-12.5 -11 -14.5 -27 q-2 -22 -2 -165 q0 -19 -18 -26 Z" /><glyph glyph-name="Japan1.952" unicode="&#x30bc;" d="M851 764 q-11 9 -24.5 16 q-13.5 7 -30.5 9.5 q-17 2.5 -26 -11.5 q-14 -23 17 -46 q28 -19 43 -49 q19 -35 49 -22 q30 15 14 50 q-14 30 -42 53 ZM765 714 q-56 46 -80 14 q-16 -23 17 -45 q27 -18 42 -49 q8 -15 22 -22 q14 -7 29 -1 q29 16 14 52 q-13 27 -44 51 ZM327 477 q-23 -8 -82 -26.5 q-59 -18.5 -64 -20.5 q-14 -5 -22 -20 q-8 -15 -4 -32 q8 -23 33 -27 q11 -2 36 7 q5 2 24.5 8.5 q19.5 6.5 40 13.5 q20.5 7 40.5 13 q7 2 12 -2 q5 -4 5 -11 l2 -192 q0 -31 10.5 -58 q10.5 -27 43.5 -48 q33 -21 86 -19 q231 17 303 25 q16 2 26.5 15 q10.5 13 9.5 29 q-1 16 -14 27 q-13 11 -29 9 l-60 -6 q-61 -5 -135 -11 q-74 -6 -104 -8 q-22 -1 -35 3 q-13 4 -17.5 15 q-4.5 11 -5.5 18 q-1 7 -1 23 l0 201 q0 19 19 25 q149 43 230 52 q6 0 9 -4 q3 -4 0 -9 q-49 -72 -161 -184 q-11 -10 -11.5 -27 q-0.5 -17 12.5 -30 q30 -26 63 6 q125 125 168 198 q40 67 20 106 q-19 37 -104 25 q-70 -10 -228 -49 q-7 -3 -12.5 1.5 q-5.5 4.5 -5.5 11.5 q0 99 2 137 q1 15 -10 27.5 q-11 12.5 -26 13.5 q-16 2 -28.5 -9 q-12.5 -11 -14.5 -26 q-2 -22 -2 -167 q0 -19 -19 -24 Z" /><glyph glyph-name="Japan1.953" unicode="&#x30bd;" d="M397 481 q-62 53 -111 123 q-12 21 -29 26 q-17 5 -28 -5 q-16 -8 -21 -26 q-5 -18 7 -38 q71 -102 132 -146 q33 -23 58 5 q11 11 9.5 30 q-1.5 19 -17.5 31 ZM712 391 q46 120 59 262 q1 16 -10 29 q-11 13 -28 14 q-17 1 -30.5 -10 q-13.5 -11 -14.5 -27 q-18 -150 -60 -254 q-23 -58 -68 -108 q-45 -50 -80 -75 q-35 -25 -127 -85 q-22 -15 -33 -22 q-31 -22 -18 -55 q6 -14 23 -19.5 q17 -5.5 39 3.5 q97 61 158.5 107.5 q61.5 46.5 98.5 87.5 q37 41 55 72.5 q18 31.5 36 79.5 Z" /><glyph glyph-name="Japan1.955" unicode="&#x30bf;" d="M201 308 q9 -12 26 -15 q17 -3 29 6 q141 112 212 242 q6 12 19 14 q13 0 61.5 2.5 q48.5 2.5 65.5 2.5 q25 0 31 -7 q8 -13 0 -44 q-17 -65 -59 -134 q-6 -10 -16 -2 q-1 0 -7 6 q-6 6 -10 8 q-52 38 -86 39 q-7 0 -14 0 q-7 0 -12.5 0 q-5.5 0 -10.5 0 q-5 0 -8.5 0 q-3.5 0 -6 0 q-2.5 0 -3.5 0 l-2 0 q-16 -1 -26.5 -13.5 q-10.5 -12.5 -9.5 -27.5 q0 -16 12 -27.5 q12 -11.5 27 -10.5 l52 0 q7 0 27 -13 q20 -13 35 -27 q10 -8 1 -19 q-94 -123 -212 -204 q-13 -9 -16.5 -25.5 q-3.5 -16.5 4.5 -28.5 q7 -12 21.5 -16.5 q14.5 -4.5 33.5 4.5 q144 97 260 260 q84 125 104 217 q16 68 -15 106 q-30 38 -94 38 q-4 0 -88 -3 q-5 -1 -7 2.5 q-2 3.5 0 7.5 q11 24 21 35 q9 12 7.5 29 q-1.5 17 -13.5 28 q-11 9 -28 7.5 q-17 -1.5 -27 -14.5 q-17 -18 -46 -80 q-18 -40 -30 -62.5 q-12 -22.5 -38.5 -63.5 q-26.5 -41 -65.5 -81 q-39 -40 -91 -81 q-13 -10 -15 -27 q-2 -17 8 -28 Z" /><glyph glyph-name="Japan1.956" unicode="&#x30c0;" d="M866 754 q-11 10 -24 17 q-13 7 -30 9.5 q-17 2.5 -26 -11.5 q-15 -23 17 -46 q29 -20 42 -48 q19 -36 50 -23 q31 16 13 50 q-11 27 -42 52 ZM781 705 q-12 10 -25 16.5 q-13 6.5 -30.5 9.5 q-17.5 3 -25.5 -12 q-14 -22 17 -45 q24 -16 43 -49 q7 -15 21 -22 q14 -7 29 -1 q28 16 15 52 q-15 29 -44 51 ZM198 309 q9 -12 25.5 -14.5 q16.5 -2.5 29.5 5.5 q141 112 212 242 q6 12 19 14 q87 5 127 5 q26 0 31 -7 q8 -13 0 -44 q-15 -61 -59 -134 q-6 -10 -16 -1 q-1 1 -4 3.5 q-3 2.5 -6.5 5 q-3.5 2.5 -6.5 4.5 q-50 37 -86 39 q-7 0 -14 0 q-7 0 -12.5 0 q-5.5 0 -10.5 0 q-5 0 -8.5 0 q-3.5 0 -6 0 q-2.5 0 -4.5 0 l-1 0 q-16 -1 -26.5 -13.5 q-10.5 -12.5 -9.5 -27.5 q0 -16 12 -27.5 q12 -11.5 27 -10.5 q19 1 52 0 q7 0 27 -13 q20 -13 35 -27 q9 -8 1 -19 q-94 -123 -212 -204 q-13 -8 -16.5 -24 q-3.5 -16 4.5 -29 q7 -12 21.5 -16.5 q14.5 -4.5 33.5 4.5 q147 100 260 260 q84 125 104 215 q16 69 -15 107 q-30 38 -94 38 q-32 0 -88 -2 q-5 -1 -7 2 q-2 3 0 7 q12 26 21 34 q9 12 7.5 29 q-1.5 17 -13.5 28 q-11 9 -28 7.5 q-17 -1.5 -27 -13.5 q-15 -16 -46 -80 q-15 -33 -22.5 -48 q-7.5 -15 -28.5 -50.5 q-21 -35.5 -41.5 -60.5 q-20.5 -25 -55.5 -60.5 q-35 -35.5 -77 -68.5 q-13 -10 -15 -27 q-2 -17 8 -28 Z" /><glyph glyph-name="Japan1.957" unicode="&#x30c1;" d="M334 59 q10 -13 25 -16.5 q15 -3.5 31 6.5 q5 4 16.5 12.5 q11.5 8.5 35.5 31 q24 22.5 45.5 47 q21.5 24.5 43.5 61 q22 36.5 34 72.5 q15 47 19 81 q4 22 24 22 q5 0 84.5 2.5 q79.5 2.5 107.5 2.5 q16 0 28 11.5 q12 11.5 12 28.5 q0 17 -12 29 q-12 12 -28 12 q-79 0 -191 -5 q-8 -1 -15.5 5 q-7.5 6 -8.5 15 q-3 35 -12 73 q-2 8 2 16.5 q4 8.5 12 11.5 q66 32 115 60 q31 19 16 54 q-6 15 -22.5 20 q-16.5 5 -32.5 -3 q-30 -18 -61 -33 q-31 -15 -61 -26 q-30 -11 -56 -19.5 q-26 -8.5 -54 -14 q-28 -5.5 -47.5 -9.5 q-19.5 -4 -43.5 -6 q-24 -2 -35 -3 q-11 -1 -30 -2 q-19 -1 -20 -1 q-15 -1 -27 -13.5 q-12 -12.5 -12 -28.5 q0 -18 12 -28.5 q12 -10.5 29 -10.5 q107 0 213 26 q21 5 26 -15 q6 -25 9 -50 q2 -20 -19 -22 q-270 -10 -296 -14 q-16 -2 -25 -16 q-9 -14 -7 -32 q2 -14 13.5 -24 q11.5 -10 31.5 -8 q83 6 281 13 q8 1 14 -5.5 q6 -6.5 5 -14.5 q-9 -39 -15 -53 q-28 -90 -128 -171 q-3 -3 -10.5 -8 q-7.5 -5 -12 -10 q-4.5 -5 -7.5 -11 q-10 -21 4 -40 Z" /><glyph glyph-name="Japan1.959" unicode="&#x30c3;" d="M286 296 q6 -12 21.5 -16.5 q15.5 -4.5 27.5 1.5 q13 7 17 22.5 q4 15.5 -2 25.5 q-5 9 -42 112 q-4 14 -18.5 21 q-14.5 7 -27.5 3 q-14 -4 -20 -18.5 q-6 -14.5 -3 -27.5 q5 -17 22.5 -63.5 q17.5 -46.5 24.5 -59.5 ZM433 339 q4 -14 18.5 -19.5 q14.5 -5.5 27.5 -0.5 q14 4 19.5 20 q5.5 16 0.5 28 q-10 20 -27 108 q-1 15 -13.5 23 q-12.5 8 -26.5 7 q-14 -1 -23 -14 q-9 -13 -7 -25 q10 -88 31 -127 ZM602 166 q66 100 108 272 q3 12 -4 26.5 q-7 14.5 -17 18.5 q-14 3 -27.5 -3.5 q-13.5 -6.5 -16.5 -23.5 q-54 -182 -104 -247 q-8 -13 -20.5 -26 q-12.5 -13 -28 -25.5 q-15.5 -12.5 -27 -21 q-11.5 -8.5 -26 -18.5 q-14.5 -10 -17.5 -12 q-19 -10 -23 -14 q-11 -22 -3 -35 q4 -12 18.5 -18 q14.5 -6 28.5 0 q12 6 34 19 q22 13 62.5 45 q40.5 32 62.5 63 Z" /><glyph glyph-name="Japan1.960" unicode="&#x30c4;" d="M265 385 q7 -13 23.5 -18 q16.5 -5 30.5 3 q14 9 18 25 q4 16 -3 30 q-6 10 -56 148 q-4 15 -19.5 22.5 q-15.5 7.5 -31.5 2.5 q-15 -5 -21.5 -20 q-6.5 -15 -2.5 -31 q7 -21 30 -83.5 q23 -62.5 32 -78.5 ZM463 441 q6 -14 21 -20 q15 -6 30 0 q15 7 20.5 23.5 q5.5 16.5 -0.5 30.5 q-17 35 -35 144 q-1 16 -14.5 25.5 q-13.5 9.5 -30.5 8.5 q-15 -2 -25 -16.5 q-10 -14.5 -8 -29.5 q24 -131 42 -166 ZM672 214 q79 109 150 358 q4 15 -4 30 q-8 15 -22 19 q-16 5 -30 -2 q-14 -7 -19 -24 q-65 -231 -140 -338 q-42 -60 -164 -138 q-18 -10 -25 -17 q-16 -21 -5 -43 q6 -14 20 -19.5 q14 -5.5 33 1.5 q17 10 43.5 27 q26.5 17 80 61 q53.5 44 82.5 85 Z" /><glyph glyph-name="Japan1.962" unicode="&#x30c6;" d="M523 171 q39 64 41 205 q0 8 5.5 13.5 q5.5 5.5 13.5 5.5 q167 2 219 0 q16 -1 28.5 10.5 q12.5 11.5 13.5 28.5 q1 16 -11 28 q-12 12 -28 13 q-60 3 -302.5 -1 q-242.5 -4 -301.5 -11 q-17 -1 -26.5 -15 q-9.5 -14 -7.5 -30 q6 -36 44 -34 q37 5 254 10 q7 0 13 -6 q6 -6 6 -13 q0 -110 -29 -161 q-19 -31 -51 -64 q-32 -33 -50 -47 q-13 -11 -15.5 -27 q-2.5 -16 6.5 -30 q23 -32 56 -9 q4 2 21.5 17 q17.5 15 48.5 48.5 q31 33.5 52 68.5 ZM296 568 q188 6 388 0 q15 0 27.5 11.5 q12.5 11.5 12.5 27.5 q0 16 -12 28 q-12 12 -28 13 q-104 4 -390 0 q-16 -1 -27.5 -11.5 q-11.5 -10.5 -12.5 -28.5 q-1 -19 12.5 -30 q13.5 -11 29.5 -10 Z" /><glyph glyph-name="Japan1.963" unicode="&#x30c7;" d="M157 437 l0 0 ZM891 771 q-11 9 -24.5 16 q-13.5 7 -30.5 9.5 q-17 2.5 -26 -11.5 q-14 -23 17 -46 q28 -19 43 -49 q7 -14 21 -21 q14 -7 29 -1 q30 15 14 50 q-14 29 -43 53 ZM805 721 q-56 46 -80 14 q-15 -22 17 -45 q27 -18 42 -49 q8 -15 22 -22 q14 -7 29 -1 q29 16 14 52 q-14 28 -44 51 ZM523 176 q39 62 41 205 q0 7 6 13 q6 6 13 6 q166 2 220 0 q16 -1 28.5 11 q12.5 12 12.5 28 q1 16 -11 28 q-12 12 -28 13 q-65 2 -305 -1.5 q-240 -3.5 -299 -9.5 q-17 -1 -26.5 -15.5 q-9.5 -14.5 -7.5 -30.5 q7 -35 44 -33 q41 4 254 9 q19 0 19 -19 q0 -111 -29 -161 q-19 -32 -52 -65 q-33 -33 -50 -45 q-28 -25 -8 -57 q10 -14 26.5 -16.5 q16.5 -2.5 29.5 7.5 q3 1 21.5 16.5 q18.5 15.5 49 48.5 q30.5 33 51.5 68 ZM296 573 q189 6 388 0 q16 0 28 11.5 q12 11.5 12 27.5 q1 16 -11 28 q-12 12 -28 13 q-105 4 -391 0 q-16 -1 -27.5 -11.5 q-11.5 -10.5 -12.5 -28.5 q-1 -19 12.5 -30 q13.5 -11 29.5 -10 Z" /><glyph glyph-name="Japan1.964" unicode="&#x30c8;" d="M478 476 l1 180 q0 16 -12 28 q-12 12 -28 12 q-16 0 -27.5 -12 q-11.5 -12 -11.5 -28 l0 -592 q0 -18 11.5 -28 q11.5 -10 27.5 -10 q17 0 28.5 12 q11.5 12 11.5 30 q-2 25 -2 290 q0 8 6 13.5 q6 5.5 14 5.5 q36 0 48 -8 q20 -12 126 -105 q9 -8 26 -7.5 q17 0.5 28 12.5 q11 11 10 27.5 q-1 16.5 -13 27.5 q-103 95 -140 114 q-27 16 -84 18 q-9 0 -14.5 6 q-5.5 6 -5.5 14 Z" /><glyph glyph-name="Japan1.965" unicode="&#x30c9;" d="M811 735 q-11 10 -24 17 q-13 7 -30 9.5 q-17 2.5 -26 -11.5 q-15 -23 17 -46 q31 -21 42 -48 q20 -36 51 -23 q32 16 13 50 q-11 28 -43 52 ZM726 686 q-12 10 -25 16.5 q-13 6.5 -30.5 9.5 q-17.5 3 -25.5 -12 q-14 -22 17 -44 q24 -17 43 -50 q7 -15 21 -22 q14 -7 29 -1 q28 16 15 52 q-16 31 -44 51 ZM473 478 l1 180 q0 16 -12 27.5 q-12 11.5 -28 11.5 q-16 0 -27.5 -11.5 q-11.5 -11.5 -11.5 -27.5 l0 -591 q0 -18 11.5 -28 q11.5 -10 27.5 -10 q17 0 28.5 12 q11.5 12 11.5 30 q-2 24 -2 289 q0 8 6 13.5 q6 5.5 14 5.5 q35 0 49 -7 q32 -21 125 -105 q9 -9 26 -8.5 q17 0.5 28 13.5 q12 10 11 26.5 q-1 16.5 -14 27.5 q-102 95 -139 114 q-28 16 -85 18 q-8 0 -14 6 q-6 6 -6 14 Z" /><glyph glyph-name="Japan1.966" unicode="&#x30ca;" d="M473 384 q-2 -124 -31.5 -188.5 q-29.5 -64.5 -93.5 -91.5 q-14 -4 -22 -19 q-8 -15 -5 -30 q5 -14 18.5 -23 q13.5 -9 35.5 -3 q35 14 59.5 32 q24.5 18 53.5 56 q29 38 45.5 106 q16.5 68 19.5 164 q0 9 5.5 14.5 q5.5 5.5 13.5 5.5 q139 6 229 4 q15 1 26.5 12.5 q11.5 11.5 11.5 26.5 q1 16 -10.5 28 q-11.5 12 -27.5 13 q-58 1 -228 -4 q-7 0 -13 5.5 q-6 5.5 -6 12.5 q-2 116 -13 185 q-1 16 -14.5 26.5 q-13.5 10.5 -30.5 9.5 q-15 -2 -25 -16.5 q-10 -14.5 -8 -29.5 q9 -74 11 -177 q0 -8 -5.5 -14 q-5.5 -6 -13.5 -6 q-38 -1 -255 -7 q-16 -1 -27.5 -13.5 q-11.5 -12.5 -10.5 -28.5 q0 -16 12 -27.5 q12 -11.5 28 -10.5 q49 0 252 7 q19 0 19 -19 Z" /><glyph glyph-name="Japan1.967" unicode="&#x30cb;" d="M302 173 q38 0 257.5 7.5 q219.5 7.5 252.5 11.5 q16 2 26.5 16 q10.5 14 8.5 30 q-1 15 -15.5 25.5 q-14.5 10.5 -30.5 8.5 q-27 -4 -242 -11 q-215 -7 -257 -7 q-72 0 -85 4 q-15 5 -31 -2 q-16 -7 -21 -22 q-5 -15 3 -31.5 q8 -16.5 23 -20.5 q26 -9 111 -9 ZM249 465 q44 -9 72 -7 q11 1 61 3.5 q50 2.5 86.5 4 q36.5 1.5 87 3 q50.5 1.5 94 1.5 q43.5 0 76.5 -3 q14 0 26 10 q12 10 13 25 q1 16 -9 29.5 q-10 13.5 -26 14.5 q-17 2 -40 3 q-23 1 -48 1 q-25 0 -53 -0.5 q-28 -0.5 -55 -1.5 q-27 -1 -52.5 -2 q-25.5 -1 -47.5 -2 q-22 -1 -38.5 -2 q-16.5 -1 -25.5 -2 l-10 0 q-56 -4 -100 6 q-15 2 -30 -8 q-15 -10 -16 -25 q-4 -19 7 -32.5 q11 -13.5 28 -15.5 Z" /><glyph glyph-name="Japan1.968" unicode="&#x30cc;" d="M744 487 q43 66 13 118 q-21 36 -78 45 q-42 2 -51.5 2.5 q-9.5 0.5 -53 -4.5 q-43.5 -5 -63.5 -7 q-26 -1 -99 -4 q-73 -3 -120 -6 q-16 -1 -28 -13.5 q-12 -12.5 -11 -28.5 q1 -16 14 -27 q13 -11 29 -10 q14 1 85 3.5 q71 2.5 129.5 6.5 q58.5 4 97.5 10 q58 7 77 -4 q12 -7 -9 -40 q-35 -54 -95 -123 q-14 -14 -31 -4 q-110 61 -223 87 q-14 3 -28.5 -6 q-14.5 -9 -18.5 -24 q-2 -15 6.5 -29.5 q8.5 -14.5 23.5 -18.5 q90 -21 183 -68 q6 -3 7 -9.5 q1 -6.5 -4 -11.5 q-131 -116 -265 -174 q-15 -5 -20.5 -21.5 q-5.5 -16.5 0.5 -30.5 q6 -13 21 -20.5 q15 -7.5 32 -0.5 q195 100 301 202 q14 14 30 2 q93 -71 120 -151 q4 -14 20.5 -21 q16.5 -7 33.5 -2 q32 15 22 52 q-23 66 -84 126 q-31 33 -59 54 q-12 12 -2 26 q65 72 98 125 Z" /><glyph glyph-name="Japan1.969" unicode="&#x30cd;" d="M573 377 q54 59 85 100 q24 42 3 65 q-34 33 -79 26 q-149 -22 -302 -55 q-15 -2 -24 -14 q-9 -12 -7 -30 q2 -16 14.5 -24.5 q12.5 -8.5 31.5 -5.5 q96 22 260 49 q5 1 7.5 -3 q2.5 -4 -1.5 -7 q-196 -251 -369 -275 q-15 -2 -25.5 -13.5 q-10.5 -11.5 -9.5 -27.5 q1 -18 14.5 -27.5 q13.5 -9.5 26.5 -8.5 q94 8 186 72 q30 20 89 71 q4 3 8 1.5 q4 -1.5 4 -7.5 l3 -206 q0 -15 11 -26.5 q11 -11.5 27 -11.5 q15 0 27 10.5 q12 10.5 12 28.5 l-5 283 q0 20 13 36 ZM605 676 q-18 2 -92 30.5 q-74 28.5 -110 28.5 q-17 0 -27.5 -10.5 q-10.5 -10.5 -12.5 -26.5 q-1 -17 10 -28.5 q11 -11.5 29 -10.5 q18 0 89 -27 q71 -27 95 -32 q23 -4 37 5.5 q14 9.5 16 29.5 q1 16 -9 28 q-10 12 -25 13 ZM787 217 q35 16 19 52 q-28 67 -87 95 q-41 17 -82 13 q-15 -2 -25 -14.5 q-10 -12.5 -9 -27.5 q1 -16 13 -26.5 q12 -10.5 27 -8.5 q67 6 92 -60 q4 -14 18.5 -21.5 q14.5 -7.5 33.5 -1.5 Z" /><glyph glyph-name="Japan1.970" unicode="&#x30ce;" d="M260 42 q117 44 222 134 q93 84 149 171 q97 143 131 272 q4 16 -4 31.5 q-8 15.5 -23 20.5 q-16 4 -31.5 -5 q-15.5 -9 -20.5 -23 q-36 -125 -119 -250 q-136 -201 -333 -272 q-16 -7 -22 -23 q-6 -16 -1 -32 q5 -14 20.5 -21 q15.5 -7 31.5 -3 Z" /><glyph glyph-name="Japan1.971" unicode="&#x30cf;" d="M127 157 q21 -26 58 -8 q114 88 186 201 q49 83 67 150 q4 14 -4.5 29.5 q-8.5 15.5 -23.5 19.5 q-15 3 -29.5 -6 q-14.5 -9 -18.5 -24 q-22 -65 -61 -123 q-63 -106 -165 -183 q-12 -8 -14.5 -25.5 q-2.5 -17.5 5.5 -30.5 ZM837 146 q17 0 27 14 q10 14 8 31 q-9 58 -28 107 q-19 49 -51 89.5 q-32 40.5 -48.5 58.5 q-16.5 18 -51.5 50 q-35 29 -45 45 q-9 13 -26 15.5 q-17 2.5 -30 -5.5 q-12 -9 -15.5 -26 q-3.5 -17 4.5 -30 q11 -13 57 -59 q39 -35 63 -61 q24 -26 53 -79.5 q29 -53.5 39 -115.5 q2 -15 14 -25 q12 -10 30 -9 Z" /><glyph glyph-name="Japan1.972" unicode="&#x30d0;" d="M832 707 q-57 45 -81 14 q-15 -22 17 -44 q31 -21 42 -50 q19 -35 51 -22 q30 16 13 51 q-10 26 -42 51 ZM746 659 q-11 9 -24.5 16 q-13.5 7 -30.5 9.5 q-17 2.5 -26 -11.5 q-14 -22 17 -46 q21 -14 43 -49 q7 -15 21 -22 q14 -7 29 -1 q28 16 15 52 q-16 30 -44 52 ZM127 162 q19 -26 58 -9 q113 88 185 202 q55 91 67 150 q4 15 -4.5 29.5 q-8.5 14.5 -23.5 18.5 q-14 4 -29 -4.5 q-15 -8.5 -19 -24.5 q-22 -65 -61 -124 q-62 -106 -165 -182 q-12 -8 -14 -25.5 q-2 -17.5 6 -30.5 ZM836 151 q17 0 27 14 q10 14 8 31 q-9 58 -28.5 107.5 q-19.5 49.5 -50.5 89 q-31 39.5 -49 58 q-18 18.5 -51 49.5 q-35 31 -45 46 q-9 13 -26 15.5 q-17 2.5 -30 -5.5 q-13 -9 -15.5 -26.5 q-2.5 -17.5 5.5 -30.5 q9 -12 57 -58 q29 -26 47 -44.5 q18 -18.5 42.5 -51 q24.5 -32.5 41 -72.5 q16.5 -40 23.5 -88 q2 -14 14 -24.5 q12 -10.5 30 -9.5 Z" /><glyph glyph-name="Japan1.973" unicode="&#x30d1;" d="M122 162 q19 -26 57 -9 q113 87 186 202 q49 83 67 150 q4 15 -4.5 29.5 q-8.5 14.5 -23.5 18.5 q-14 4 -29 -4.5 q-15 -8.5 -19 -24.5 q-22 -65 -61 -124 q-65 -109 -165 -182 q-12 -8 -14 -25.5 q-2 -17.5 6 -30.5 ZM831 150 q17 0 27 14.5 q10 14.5 8 31.5 q-9 58 -28.5 107 q-19.5 49 -50.5 89 q-31 40 -48.5 58.5 q-17.5 18.5 -51.5 50.5 q-34 29 -45 45 q-9 13 -26 15.5 q-17 2.5 -30 -5.5 q-12 -9 -15.5 -26 q-3.5 -17 4.5 -30 q11 -13 57 -59 q39 -35 63 -61 q24 -26 53 -79.5 q29 -53.5 39 -115.5 q2 -15 14 -25 q12 -10 30 -10 ZM782 562 q33 0 58 23 q29 27 29 69 q0 38 -27.5 65 q-27.5 27 -64.5 27 q-37 0 -62.5 -25.5 q-25.5 -25.5 -28.5 -64.5 q-2 -36 19 -59 q7 -7 18.5 -8 q11.5 -1 19.5 5 q8 8 9 20 q1 12 -6 19 q-8 10 -6 18 q3 41 37 41 q17 0 27.5 -11 q10.5 -11 10.5 -27 q0 -18 -11 -29 q-11 -9 -25 -8 q-11 0 -19.5 -7 q-8.5 -7 -9.5 -19 q-1 -10 7 -19 q8 -9 19 -10 l6 0 Z" /><glyph glyph-name="Japan1.974" unicode="&#x30d2;" d="M417 137 q-46 -1 -66 10.5 q-20 11.5 -18.5 29 q1.5 17.5 0.5 36.5 q0 23 1.5 74.5 q1.5 51.5 2.5 78.5 q0 18 20 22 q212 27 353 61 q15 5 23.5 19.5 q8.5 14.5 5.5 29.5 q-4 15 -18.5 24 q-14.5 9 -29.5 5 q-118 -28 -332 -58 q-7 -1 -13 3.5 q-6 4.5 -6 12.5 q3 97 3 143 q0 16 -12.5 28 q-12.5 12 -28.5 12 q-16 -1 -28 -13 q-12 -12 -12 -28 l-11 -442 q0 -57 30 -88 q30 -30 91 -38 q61 -8 247 2 q116 9 166 25 q15 5 22 21 q7 16 2 32 q-6 15 -22 21.5 q-16 6.5 -31 1.5 q-75 -24 -339 -25 Z" /><glyph glyph-name="Japan1.975" unicode="&#x30d3;" d="M844 701 q-12 10 -25 16.5 q-13 6.5 -30.5 9.5 q-17.5 3 -25.5 -12 q-15 -22 17 -45 q28 -19 43 -49 q7 -15 20.5 -22 q13.5 -7 29.5 -1 q30 17 13 52 q-14 29 -42 51 ZM758 652 q-11 10 -24.5 17 q-13.5 7 -30.5 9 q-17 2 -26 -11 q-14 -24 18 -46 q25 -18 42 -49 q8 -16 22 -23 q14 -7 29 0 q29 15 14 51 q-13 28 -44 52 ZM418 139 q-46 -1 -66 10.5 q-20 11.5 -18.5 28.5 q1.5 17 0.5 37 q1 53 5 153 q0 19 19 22 q222 29 353 61 q15 5 23.5 19 q8.5 14 5.5 28 q-4 16 -18.5 25.5 q-14.5 9.5 -29.5 5.5 q-127 -32 -332 -58 q-7 -1 -13 3.5 q-6 4.5 -6 11.5 q3 99 3 144 q0 16 -12.5 28 q-12.5 12 -28.5 12 q-16 -1 -28 -13 q-12 -12 -12 -28 l-11 -442 q0 -57 30 -88 q30 -29 91 -37 q61 -8 248 2 q115 9 165 24 q15 5 22 20.5 q7 15.5 2 31.5 q-6 15 -22 22 q-16 7 -31 2 q-75 -24 -339 -25 Z" /><glyph glyph-name="Japan1.976" unicode="&#x30d4;" d="M769 552 q7 0 8 1 l-19 0 l5 -1 l6 0 ZM418 139 q-46 -1 -66 10.5 q-20 11.5 -18.5 28.5 q1.5 17 0.5 36 q1 55 5 154 q0 19 19 22 q222 29 353 61 q15 5 23.5 19 q8.5 14 5.5 29 q-4 16 -18.5 25 q-14.5 9 -29.5 5 q-112 -27 -332 -58 q-7 -1 -13 3.5 q-6 4.5 -6 12.5 q3 97 3 143 q0 15 -12.5 27.5 q-12.5 12.5 -28.5 12.5 q-16 -1 -28 -13 q-12 -12 -12 -28 l-11 -442 q0 -57 30 -88 q30 -30 91.5 -38 q61.5 -8 247.5 2 q117 9 165 25 q15 5 22 20.5 q7 15.5 2 31.5 q-6 15 -22 22 q-16 7 -31 2 q-75 -24 -339 -25 ZM782 562 q33 0 58 23 q29 27 29 69 q0 38 -27.5 65 q-27.5 27 -64.5 27 q-37 0 -62.5 -25.5 q-25.5 -25.5 -28.5 -64.5 q-2 -36 19 -59 q7 -7 18.5 -8 q11.5 -1 19.5 5 q8 8 9 20 q1 12 -6 19 q-8 10 -6 18 q3 41 37 41 q17 0 27.5 -11 q10.5 -11 10.5 -27 q0 -18 -11 -29 q-11 -9 -25 -8 q-11 0 -19.5 -7 q-8.5 -7 -9.5 -19 q-1 -10 7 -19 q8 -9 19 -10 l6 0 Z" /><glyph glyph-name="Japan1.977" unicode="&#x30d5;" d="M400 69 q9 -14 26.5 -16.5 q17.5 -2.5 28.5 7.5 q176 125 253 270 q48 90 58 190 q4 23 1.5 51 q-2.5 28 -18.5 48 q-29 30 -103 34 q-74 4 -156 -6 q-178 -13 -252 -39 q-32 -16 -23 -52 q4 -16 20.5 -22.5 q16.5 -6.5 32.5 -0.5 q36 12 168 26 q132 14 215 13 q28 0 33 -6 q5 -6 2 -40 q-20 -217 -277 -402 q-13 -9 -15.5 -25.5 q-2.5 -16.5 6.5 -29.5 Z" /><glyph glyph-name="Japan1.978" unicode="&#x30d6;" d="M875 763 q-10 10 -23.5 17 q-13.5 7 -29.5 9.5 q-16 2.5 -25 -11.5 q-14 -22 17 -44 q30 -20 43 -51 q20 -32 49 -20 q30 16 12 49 q-13 28 -43 51 ZM791 714 q-12 10 -25 16.5 q-13 6.5 -30 9.5 q-17 3 -25 -12 q-15 -19 17 -44 q24 -15 44 -49 q7 -15 20.5 -22 q13.5 -7 28.5 -1 q28 17 13 52 q-14 27 -43 50 ZM377 74 q10 -14 26.5 -16.5 q16.5 -2.5 27.5 6.5 q177 127 252 270 q50 91 59 190 q5 22 2 50 q-3 28 -21 49 q-28 29 -101 33 q-73 4 -155 -6 q-183 -11 -253 -40 q-14 -6 -20 -20 q-6 -14 -2 -30 q4 -15 20 -21.5 q16 -6.5 32 -1.5 q37 12 168.5 26.5 q131.5 14.5 214.5 13.5 q29 -1 34.5 -7 q5.5 -6 1.5 -40 q-16 -216 -276 -404 q-12 -9 -15 -24.5 q-3 -15.5 5 -27.5 Z" /><glyph glyph-name="Japan1.979" unicode="&#x30d7;" d="M365 72 q9 -14 25 -16 q16 -2 27 8 q179 127 253 271 q49 87 58 190 q5 22 2 49.5 q-3 27.5 -19 47.5 q-29 29 -102 33 q-73 4 -155 -6 q-182 -13 -252 -39 q-32 -15 -22 -48 q4 -15 19 -21.5 q15 -6.5 30 -1.5 q38 12 170.5 26.5 q132.5 14.5 215.5 13.5 q29 -1 35 -7 q6 -6 2 -42 q-20 -219 -278 -405 q-12 -9 -14.5 -24.5 q-2.5 -15.5 5.5 -28.5 ZM794 626 q33 0 58 23 q29 27 29 69 q0 38 -27.5 65 q-27.5 27 -64.5 27 q-37 0 -62.5 -25.5 q-25.5 -25.5 -28.5 -64.5 q-2 -36 19 -59 q7 -7 18.5 -8 q11.5 -1 19.5 5 q8 8 9 20 q1 12 -6 19 q-8 10 -6 18 q3 41 37 41 q17 0 27.5 -11 q10.5 -11 10.5 -27 q0 -18 -11 -29 q-11 -9 -25 -8 q-11 0 -19.5 -7 q-8.5 -7 -9.5 -19 q-1 -10 7 -19 q8 -9 19 -10 l6 0 Z" /><glyph glyph-name="Japan1.980" unicode="&#x30d8;" d="M861 202 q9 19 4.5 33.5 q-4.5 14.5 -17.5 21.5 q-265 161 -390 250 q-37 27 -72.5 29.5 q-35.5 2.5 -56.5 -8 q-21 -10.5 -37 -28.5 q-80 -84 -138 -148 q-11 -11 -10.5 -29 q0.5 -18 12.5 -29 q12 -11 29.5 -9 q17.5 2 31.5 15 q92 100 121 130 q13 13 21 18.5 q8 5.5 22 4 q14 -1.5 32 -15.5 q48 -34 202.5 -132 q154.5 -98 188.5 -116 q38 -20 57 13 Z" /><glyph glyph-name="Japan1.981" unicode="&#x30d9;" d="M737 635 q-12 10 -25 16.5 q-13 6.5 -30.5 9.5 q-17.5 3 -25.5 -12 q-14 -22 17 -46 q28 -19 43 -49 q18 -36 50 -23 q31 15 14 51 q-15 31 -43 53 ZM651 585 q-12 10 -24.5 16.5 q-12.5 6.5 -30 9.5 q-17.5 3 -25.5 -12 q-14 -23 18 -45 q29 -21 41 -50 q8 -15 22 -21.5 q14 -6.5 29 -0.5 q29 15 14 51 q-13 28 -44 52 ZM861 189 q19 36 -13 56 q-265 160 -390 249 q-37 27 -72.5 29.5 q-35.5 2.5 -56.5 -8.5 q-21 -11 -37 -29 q-62 -62 -138 -147 q-11 -11 -10.5 -29 q0.5 -18 12.5 -29 q12 -10 29.5 -8.5 q17.5 1.5 31.5 14.5 q92 100 121 130 q13 13 21 18.5 q8 5.5 22 4 q14 -1.5 32 -14.5 q48 -35 202.5 -133 q154.5 -98 188.5 -115 q38 -21 57 12 Z" /><glyph glyph-name="Japan1.982" unicode="&#x30da;" d="M860 189 q18 33 -12 53 q-266 160 -391 251 q-37 27 -72 29.5 q-35 2.5 -56 -8 q-21 -10.5 -37 -28.5 q-1 -1 -59.5 -63 q-58.5 -62 -78.5 -85 q-10 -11 -9.5 -28 q0.5 -17 11.5 -28 q28 -23 59 6 q92 100 121 130 q13 14 21 19.5 q8 5.5 23 4 q15 -1.5 34 -15.5 q48 -35 203 -133 q155 -98 189 -116 q37 -20 54 12 ZM686 490 q33 0 58 23 q29 27 29 69 q0 38 -27.5 65 q-27.5 27 -64.5 27 q-37 0 -62.5 -25.5 q-25.5 -25.5 -28.5 -64.5 q-2 -36 19 -59 q7 -7 18.5 -8 q11.5 -1 19.5 5 q8 8 9 20 q1 12 -6 19 q-8 10 -6 18 q3 41 37 41 q17 0 27.5 -11 q10.5 -11 10.5 -27 q0 -18 -11 -29 q-11 -9 -25 -8 q-11 0 -19.5 -7 q-8.5 -7 -9.5 -19 q-1 -10 7 -19 q8 -9 19 -10 l6 0 Z" /><glyph glyph-name="Japan1.983" unicode="&#x30db;" d="M259 273 q-25 -22 -67 -51 q-3 -2 -10 -6 q-7 -4 -12 -7.5 q-5 -3.5 -9 -8.5 q-15 -16 -6 -41 q8 -18 25 -22.5 q17 -4.5 27 1.5 q33 17 103.5 78 q70.5 61 95.5 96 q19 30 -9 54 q-9 9 -24 8.5 q-15 -0.5 -26 -12.5 q-14 -12 -41.5 -42 q-27.5 -30 -46.5 -47 ZM235 452 q110 -1 211 0 q8 0 13.5 -6 q5.5 -6 5.5 -13 q0 -71 -0.5 -157.5 q-0.5 -86.5 -0.5 -146 q0 -59.5 0 -63.5 q0 -16 11.5 -28 q11.5 -12 27.5 -12 q16 0 28 11.5 q12 11.5 12 27.5 q0 4 0.5 64 q0.5 60 0.5 147 q0 87 0 157 q0 18 18 20 q170 2 216 6 q16 1 26.5 14 q10.5 13 9.5 29 q-2 15 -14.5 25 q-12.5 10 -27.5 9 q-42 -3 -210 -5 q-8 -1 -13 4.5 q-5 5.5 -5 14.5 q1 71 1 125 q0 14 -11.5 26.5 q-11.5 12.5 -28.5 12.5 q-18 0 -29 -12 q-11 -12 -11 -27 l0 -125 q0 -9 -5.5 -14.5 q-5.5 -5.5 -13.5 -5.5 q-140 -2 -211 0 q-16 0 -27.5 -12 q-11.5 -12 -11.5 -27 q0 -16 11.5 -27.5 q11.5 -11.5 27.5 -11.5 ZM768 150 q9 -11 23 -13.5 q14 -2.5 32 8.5 q13 11 14 28.5 q1 17.5 -10 27.5 l-163 177 q-10 12 -27 13 q-17 1 -27 -10 q-12 -12 -13 -28 q-1 -16 10 -27 l161 -176 Z" /><glyph glyph-name="Japan1.984" unicode="&#x30dc;" d="M801 739 q-12 10 -25 16.5 q-13 6.5 -30.5 9.5 q-17.5 3 -25.5 -12 q-14 -22 17 -45 q30 -20 43 -49 q19 -35 51 -23 q32 17 13 51 q-14 29 -43 52 ZM716 690 q-12 10 -25 16.5 q-13 6.5 -30.5 9.5 q-17.5 3 -25.5 -12 q-13 -21 17 -45 q21 -14 43 -49 q7 -15 21 -22 q14 -7 29 -1 q29 16 14 52 q-14 30 -43 51 ZM259 270 q-26 -23 -68 -52 q-30 -21 -31 -22 q-14 -18 -6 -41 q17 -33 53 -21 q32 17 102.5 78.5 q70.5 61.5 95.5 95.5 q20 30 -8 54 q-27 21 -51 -4 q-12 -11 -40 -41 q-28 -30 -47 -47 ZM234 447 l211 0 q8 0 13.5 -5.5 q5.5 -5.5 5.5 -12.5 q0 -70 0 -157 q0 -87 -0.5 -146 q-0.5 -59 -0.5 -63 q0 -16 11.5 -28 q11.5 -12 27.5 -12 q16 0 28 11.5 q12 11.5 12 27.5 q0 4 0 63.5 q0 59.5 0.5 146.5 q0.5 87 0.5 157 q0 17 19 19 q158 2 215 7 q16 1 27 13.5 q11 12.5 10 28.5 q-2 15 -14 25.5 q-12 10.5 -28 9.5 q-59 -4 -210 -6 q-19 0 -19 19 q1 72 1 126 q0 13 -11 25.5 q-11 12.5 -29 12.5 q-18 0 -28.5 -12 q-10.5 -12 -10.5 -26 l0 -126 q-2 -19 -20 -19 q-140 -2 -211 0 q-16 0 -27.5 -12.5 q-11.5 -12.5 -11.5 -27.5 q0 -15 11.5 -27 q11.5 -12 27.5 -12 ZM768 145 q8 -10 22 -12.5 q14 -2.5 32 8.5 q13 11 14 28.5 q1 17.5 -10 27.5 l-163 177 q-11 12 -27 12.5 q-16 0.5 -27 -10.5 q-12 -11 -13 -27.5 q-1 -16.5 10 -26.5 l162 -177 Z" /><glyph glyph-name="Japan1.985" unicode="&#x30dd;" d="M260 268 l-68 -51 q-27 -16 -31 -22 q-14 -16 -6 -41 q15 -32 52 -21 q33 17 103.5 78.5 q70.5 61.5 95.5 95.5 q19 30 -9 55 q-9 8 -24 7.5 q-15 -0.5 -26 -11.5 q-15 -13 -43 -43.5 q-28 -30.5 -44 -46.5 ZM235 447 q110 -1 211 0 q8 0 13.5 -5.5 q5.5 -5.5 5.5 -13.5 q0 -71 -0.5 -157.5 q-0.5 -86.5 -0.5 -146 q0 -59.5 0 -63.5 q0 -16 11.5 -28 q11.5 -12 27.5 -12 q16 0 28 11.5 q12 11.5 12 27.5 q0 4 0.5 64 q0.5 60 0.5 147 q0 87 0 157 q0 18 19 20 q158 2 215 7 q16 0 27 12.5 q11 12.5 9 29.5 q-1 15 -13.5 25.5 q-12.5 10.5 -27.5 9.5 q-59 -4 -210 -6 q-8 -1 -13.5 4.5 q-5.5 5.5 -5.5 14.5 q1 71 1 125 q0 14 -11.5 26.5 q-11.5 12.5 -28.5 12.5 q-18 0 -28.5 -12 q-10.5 -12 -10.5 -27 l0 -125 q-2 -20 -20 -20 q-140 -2 -211 0 q-16 0 -27.5 -12 q-11.5 -12 -11.5 -27 q0 -16 11.5 -27.5 q11.5 -11.5 27.5 -11.5 ZM768 145 q9 -11 23 -13.5 q14 -2.5 32 8.5 q13 11 14 28.5 q1 17.5 -10 27.5 l-163 177 q-10 12 -27 13 q-17 1 -27 -10 q-12 -11 -13 -27.5 q-1 -16.5 10 -26.5 l161 -177 ZM782 590 q33 0 58 23 q29 27 29 69 q0 38 -27.5 65 q-27.5 27 -64.5 27 q-37 0 -62.5 -25.5 q-25.5 -25.5 -28.5 -64.5 q-2 -36 19 -59 q7 -7 18.5 -8 q11.5 -1 19.5 5 q8 8 9 20 q1 12 -6 19 q-8 10 -6 18 q3 41 37 41 q17 0 27.5 -11 q10.5 -11 10.5 -27 q0 -18 -11 -29 q-11 -9 -25 -8 q-11 0 -19.5 -7 q-8.5 -7 -9.5 -19 q-1 -10 7 -19 q8 -9 19 -10 l6 0 Z" /><glyph glyph-name="Japan1.986" unicode="&#x30de;" d="M726 527 q17 -1 24 -2 q7 -1 13.5 -5.5 q6.5 -4.5 0.5 -14.5 q-6 -10 -23 -26 q-67 -67 -208 -193 q-14 -11 -27 1 q-29 34 -63.5 57.5 q-34.5 23.5 -60.5 27.5 q-16 1 -29.5 -9 q-13.5 -10 -15.5 -26 q-1 -16 9.5 -29.5 q10.5 -13.5 25.5 -14.5 q13 -3 28.5 -13.5 q15.5 -10.5 35.5 -32.5 q20 -22 34 -38.5 q14 -16.5 40.5 -49.5 q26.5 -33 38.5 -47 q9 -12 24.5 -15 q15.5 -3 29.5 5 q13 10 16 26 q3 16 -5 29 q-3 3 -14 17.5 q-11 14.5 -18 23.5 q-11 14 1 29 q121 105 214 197 q40 43 51 77.5 q11 34.5 -3.5 56.5 q-14.5 22 -44 34 q-29.5 12 -70.5 14 q-37 2 -105 -0.5 q-68 -2.5 -141 -8 q-73 -5.5 -137.5 -11 q-64.5 -5.5 -112.5 -10 q-48 -4.5 -49 -4.5 q-16 -2 -26 -15 q-10 -13 -9 -29 q1 -16 14 -26 q13 -10 30 -9 q3 1 106 10.5 q103 9.5 236 18 q133 8.5 190 5.5 Z" /><glyph glyph-name="Japan1.987" unicode="&#x30df;" d="M643 20 q13 0 28 11 q12 11 12.5 28 q0.5 17 -10.5 28 q-72 70 -178 98 q-79 21 -161 21 l-12 0 q-17 -1 -29 -13 q-12 -12 -11 -28 q2 -27 26 -36 q6 -2 37 -2 q68 -1 144.5 -24 q76.5 -23 125.5 -72 q18 -11 28 -11 ZM553 520 q14 0 24 7 q3 3 11 7 q5 4 23.5 17 q18.5 13 26.5 19 q27 20 24 49 q-9 42 -83 54 q-4 0 -26 3.5 q-22 3.5 -61.5 10.5 q-39.5 7 -65.5 11 q-17 4 -51 10 l-7 0 q-31 0 -38 -30 q-3 -19 12 -34 q6 -5 39 -13 q5 -1 16 -3 q11 -2 16 -3 q20 -3 74 -12 q54 -9 68 -11 q2 -1 2.5 -2.5 q0.5 -1.5 -1.5 -2.5 q-6 -2 -8 -3 q-23 -8 -29 -17 q-4 -8 -5 -13 q-3 -15 6 -28 q14 -16 33 -16 ZM374 367 q10 1 35 1 q118 0 183 -65 q30 -23 55 -5 q13 11 14.5 27 q1.5 16 -8.5 29 q-94 91 -241 91 q-32 0 -49 -2 q-16 -2 -26 -14 q-10 -12 -9 -29 q2 -14 16.5 -24.5 q14.5 -10.5 29.5 -8.5 Z" /><glyph glyph-name="Japan1.988" unicode="&#x30e0;" d="M190 111 q56 2 306 41 q30 6 93 14 q63 8 83 11 q37 6 53.5 -2 q16.5 -8 28.5 -34 l15 -30 q6 -15 21 -20.5 q15 -5.5 32 -0.5 q14 5 20.5 20.5 q6.5 15.5 1.5 30.5 q-10 25 -27 55.5 q-17 30.5 -34.5 57.5 q-17.5 27 -37 54.5 q-19.5 27.5 -34 46.5 q-14.5 19 -25.5 33 l-10 14 q-10 12 -27.5 14.5 q-17.5 2.5 -29.5 -6.5 q-20 -15 -14 -41 q1 -4 15 -26 q34 -43 56 -76 q7 -9 -3 -11 q-113 -12 -189 -26 q-16 -2 -88 -12 q-4 -1 -7 2 q-3 3 -1 6 q8 28 20 65.5 q12 37.5 25.5 74.5 q13.5 37 27.5 75 q14 38 26.5 71 q12.5 33 22.5 59 q10 26 16 41 l6 16 q6 15 -0.5 31 q-6.5 16 -21.5 22 q-15 5 -30.5 -1.5 q-15.5 -6.5 -22.5 -20.5 q-127 -331 -155 -442 q-5 -14 -16 -15 q-83 -11 -95 -11 q-14 2 -27 -7 q-13 -9 -17 -24 q-4 -17 7 -33.5 q11 -16.5 36 -15.5 Z" /><glyph glyph-name="Japan1.989" unicode="&#x30e1;" d="M618 396 q80 140 106 265 q2 16 -8 30 q-10 14 -26 16 q-16 2 -30 -8.5 q-14 -10.5 -16 -26.5 q-7 -33 -35.5 -105 q-28.5 -72 -61.5 -130 q-8 -17 -26 -8 q-81 41 -163 53 q-15 2 -29 -7.5 q-14 -9.5 -16 -25.5 q-2 -15 7.5 -29.5 q9.5 -14.5 24.5 -16.5 q56 -9 130 -44 q19 -8 5 -23 q-88 -105 -255 -214 q-13 -8 -17 -25 q-4 -17 4 -30 q21 -32 55 -13 q190 121 285 243 q12 16 28 5 q27 -19 68 -54 q10 -11 26.5 -11 q16.5 0 29.5 12 q11 10 11 28 q0 18 -13 28 q-29 27 -78 64 q-17 11 -6 27 Z" /><glyph glyph-name="Japan1.990" unicode="&#x30e2;" d="M501 519 q178 7 225 13 q16 2 25.5 15 q9.5 13 7.5 28 q-1 15 -14 25 q-13 10 -28 8 q-27 -4 -140 -9 q-249 -9 -322 -25 q-15 -2 -24 -15 q-9 -13 -7 -29 q3 -29 38 -29 q9 0 24 2 q15 2 42.5 5 q27.5 3 57.5 6 q7 1 12.5 -4.5 q5.5 -5.5 4.5 -12.5 q-2 -33 -6 -70 q-2 -19 -21 -19 q-32 -2 -53 -2 q-4 0 -131 -4 q-15 0 -25.5 -11 q-10.5 -11 -10.5 -27 q0 -16 11 -27 q11 -11 26 -11 q112 4 181 5 q6 0 11.5 -6 q5.5 -6 4.5 -13 q-6 -66 -6 -105 q-1 -32 5.5 -55.5 q6.5 -23.5 30.5 -44 q24 -20.5 66 -26.5 q93 -8 152 -3 q90 9 146 48 q13 9 15.5 25 q2.5 16 -5.5 29 q-9 13 -25 15 q-16 2 -28 -6 q-55 -37 -151 -37 q-36 0 -100 4 q-18 3 -24 11 q-6 8 -6 25 q0 48 6 122 q2 19 21 19 q175 7 224 3 q57 -2 97 19 q25 16 10.5 49 q-14.5 33 -46.5 20 q-28 -12 -56 -12 q-44 3 -225 -2 q-8 0 -13.5 6 q-5.5 6 -4.5 13 q2 15 4 39.5 q2 24.5 3 32.5 q2 18 21 18 Z" /><glyph glyph-name="Japan1.991" unicode="&#x30e3;" d="M759 350 q9 40 -52 71 q-33 13 -68 5 q-50 -13 -164 -35 q-11 -2 -15 9 q-22 89 -33 115 q-6 10 -20 15 q-14 5 -26 0 q-12 -4 -17.5 -16.5 q-5.5 -12.5 -0.5 -24.5 q3 -7 30 -102 q3 -10 -8 -14 q-49 -10 -124 -22 q-13 -1 -22 -13 q-9 -12 -8 -25 q1 -13 13 -23 q12 -10 22 -8 q44 6 133 23 q10 3 14 -9 q38 -153 45 -261 q0 -11 9 -21.5 q9 -10.5 26 -11.5 q13 0 23 11 q10 11 11 30 q-3 87 -45 267 q-4 8 7 13 q115 24 162 35 q15 4 31 -2 q10 -4 2 -12 q-24 -33 -66 -75.5 q-42 -42.5 -67 -58.5 q-13 -6 -17 -20.5 q-4 -14.5 2 -27.5 q11 -17 30 -17 q9 0 19 5 q35 19 106 94 q22 20 46 53 q18 35 22 53 Z" /><glyph glyph-name="Japan1.992" unicode="&#x30e4;" d="M846 476 q9 50 -69 89 q-46 16 -91 6 q-159 -34 -218 -46 q-21 -4 -26 18 q-34 130 -45 154 q-7 14 -22 20 q-15 6 -31 1 q-14 -8 -20 -24 q-6 -16 -1 -32 q11 -21 42 -136 q5 -21 -16 -24 q-128 -24 -171 -29 q-16 -1 -26.5 -14.5 q-10.5 -13.5 -8.5 -30.5 q2 -16 15.5 -26.5 q13.5 -10.5 29.5 -8.5 q38 4 179 30 q8 2 15.5 -2.5 q7.5 -4.5 8.5 -13.5 q52 -232 59 -354 q0 -15 10.5 -27 q10.5 -12 30.5 -13 q38 0 39 51 q-3 131 -59 358 q-5 22 15 25 q45 10 120.5 26 q75.5 16 95.5 20 q23 6 42 -2 q9 -2 11 -11 q2 -9 -4 -16 q-34 -47 -90 -103 q-56 -56 -92 -77 q-14 -9 -18 -25 q-4 -16 4 -30 q13 -19 34 -19 q13 0 21 6 q57 35 141 124 q28 31 61 73 q30 42 34 63 Z" /><glyph glyph-name="Japan1.993" unicode="&#x30e5;" d="M350 308 q71 -4 219 7 q5 1 8 -4 q6 -52 -2 -152 q0 -6 -6 -6 l-305 -2 q-12 -1 -22.5 -12.5 q-10.5 -11.5 -10.5 -22.5 q1 -12 11.5 -23 q10.5 -11 21.5 -11 l476 6 q13 0 23.5 11 q10.5 11 10.5 23 q0 11 -11 22 q-11 11 -24 11 l-91 -2 q-5 0 -5 6 q3 39 3 125 q0 66 -23 88 q-20 15 -51 12 q-4 0 -56 -2 q-52 -2 -100 -3.5 q-48 -1.5 -68 -2.5 q-12 0 -23 -11 q-11 -11 -10 -24 q0 -12 11.5 -22.5 q11.5 -10.5 23.5 -10.5 Z" /><glyph glyph-name="Japan1.994" unicode="&#x30e6;" d="M299 466 q36 -1 137.5 2 q101.5 3 155.5 8 q13 2 15 -10 q8 -68 -2 -206 q0 -11 -14 -11 l-411 -5 q-16 -1 -27.5 -12.5 q-11.5 -11.5 -11.5 -27.5 q1 -16 12.5 -27.5 q11.5 -11.5 27.5 -11.5 l644 7 q16 0 27.5 12 q11.5 12 11.5 28 q0 16 -12 27.5 q-12 11.5 -28 11.5 l-127 -2 q-13 0 -13 11 q5 88 5 169 q-1 83 -32 109 q-22 21 -62 18 q-120 -6 -299 -12 q-16 0 -27.5 -12 q-11.5 -12 -10.5 -27 q0 -16 12.5 -27.5 q12.5 -11.5 28.5 -11.5 Z" /><glyph glyph-name="Japan1.995" unicode="&#x30e7;" d="M683 376 q0 53 -26.5 75 q-26.5 22 -66.5 21 q-182 -4 -259 0 q-13 1 -23.5 -7.5 q-10.5 -8.5 -11.5 -21.5 q-1 -12 8 -23.5 q9 -11.5 21 -12.5 q13 -1 102.5 -1 q89.5 0 159.5 1 q23 0 27.5 -4 q4.5 -4 5.5 -27 q0 -49 -1 -80 q0 -8 -9 -6 q-36 9 -59 9 l-202 0 q-12 0 -22 -10.5 q-10 -10.5 -10 -22.5 q0 -11 10.5 -21.5 q10.5 -10.5 21.5 -10.5 l1 0 l200 0 q22 0 59 -10 q9 -7 9 -16 l0 -59 q0 -10 -11 -10 l-281 0 q-12 0 -22.5 -11 q-10.5 -11 -10.5 -22 q0 -11 10.5 -22 q10.5 -11 22.5 -11 l281 0 q9 0 10 -10 q0 -11 10 -20 q10 -9 22 -9 q14 0 22.5 9.5 q8.5 9.5 8.5 19.5 l0 26 q1 26 1.5 65 q0.5 39 0.5 81.5 q0 42.5 0.5 81.5 q0.5 39 0.5 59 Z" /><glyph glyph-name="Japan1.996" unicode="&#x30e8;" d="M743 508 q0 67 -33.5 95.5 q-33.5 28.5 -86.5 26.5 q-241 -4 -345 0 q-16 1 -27.5 -8.5 q-11.5 -9.5 -13.5 -23.5 q-2 -16 8 -28.5 q10 -12.5 25 -13.5 q16 -2 136 -2.5 q120 -0.5 213 1.5 q31 0 39.5 -7 q8.5 -7 9.5 -40 q0 -63 -1 -105 q0 -17 -18 -13 q-51 10 -77 11 q-23 1 -58 1 q-35 0 -70 0 q-35 0 -65.5 0 q-30.5 0 -52.5 -0.5 q-22 -0.5 -23 -0.5 q-16 -1 -27 -12 q-11 -11 -11 -26 q0 -16 11.5 -27 q11.5 -11 26.5 -11 l1 0 l266 0 q37 -1 78 -14 q18 -6 18 -26 l0 -79 q0 -8 -6 -13.5 q-6 -5.5 -14 -5.5 l-375 0 q-15 0 -26.5 -11.5 q-11.5 -11.5 -11.5 -27.5 q0 -15 11.5 -26 q11.5 -11 26.5 -11 l374 0 q18 0 20 -19 q0 -15 11 -26.5 q11 -11.5 26 -11.5 q17 0 27 12 q10 12 10 26 l1 34 q0 35 0.5 87.5 q0.5 52.5 1 108.5 q0.5 56 1 108 q0.5 52 0.5 78 Z" /></font>
</defs>
</svg>
